<?xml version="1.0" encoding="UTF-8" standalone="no"?>
<svg
   xmlns:dc="http://purl.org/dc/elements/1.1/"
   xmlns:cc="http://creativecommons.org/ns#"
   xmlns:rdf="http://www.w3.org/1999/02/22-rdf-syntax-ns#"
   xmlns:svg="http://www.w3.org/2000/svg"
   xmlns="http://www.w3.org/2000/svg"
   xmlns:sodipodi="http://sodipodi.sourceforge.net/DTD/sodipodi-0.dtd"
   xmlns:inkscape="http://www.inkscape.org/namespaces/inkscape"
   version="1.1"
   id="svg2"
   xml:space="preserve"
   width="166.66667"
   height="166.66667"
   viewBox="0 0 166.66667 166.66667"
   sodipodi:docname="12_06.eps"><metadata
     id="metadata8"><rdf:RDF><cc:Work
         rdf:about=""><dc:format>image/svg+xml</dc:format><dc:type
           rdf:resource="http://purl.org/dc/dcmitype/StillImage" /></cc:Work></rdf:RDF></metadata><defs
     id="defs6" /><sodipodi:namedview
     pagecolor="#ffffff"
     bordercolor="#666666"
     borderopacity="1"
     objecttolerance="10"
     gridtolerance="10"
     guidetolerance="10"
     inkscape:pageopacity="0"
     inkscape:pageshadow="2"
     inkscape:window-width="640"
     inkscape:window-height="480"
     id="namedview4" /><g
     id="g10"
     inkscape:groupmode="layer"
     inkscape:label="ink_ext_XXXXXX"
     transform="matrix(1.3333333,0,0,-1.3333333,0,166.66667)"><g
       id="g12"
       transform="scale(0.1)"><path
         d="M 1250,0 H 0 V 1250 H 1250 V 0"
         style="fill:#fff4f3;fill-opacity:1;fill-rule:nonzero;stroke:none"
         id="path14" /><path
         d="m 879.441,262.773 c 0,-11.003 -119.964,-19.933 -267.949,-19.933 -147.98,0 -267.945,8.93 -267.945,19.933 0,11.016 119.965,19.942 267.945,19.942 147.985,0 267.949,-8.926 267.949,-19.942"
         style="fill:#cfc7be;fill-opacity:1;fill-rule:nonzero;stroke:none"
         id="path16" /><path
         d="m 453.398,417.258 46.696,-1.328 55.332,102.691 h -44.735 l -0.515,0.09 -0.227,-0.066 c -15.633,-2.512 -26.726,-8.633 -32.969,-18.196 -8.429,-12.922 -5.156,-27.812 -4.414,-30.664 2.528,-9.726 4.164,-29.648 -5.726,-42.695 -3.426,-4.524 -7.93,-7.805 -13.442,-9.832"
         style="fill:#eeaa46;fill-opacity:1;fill-rule:nonzero;stroke:none"
         id="path18" /><path
         d="m 411.625,437.766 c 5.094,-8.957 14,-19.59 27.574,-19.321 11.117,0.207 19.438,3.86 24.742,10.852 9.063,11.953 7.297,31.113 5.102,39.57 -2.348,9.016 -2.297,22.571 4.895,33.574 6.82,10.45 18.742,17.11 35.433,19.805 l 0.809,-0.058 0.511,0.078 h 43.125 c -1.613,6.464 -8.953,26.836 -38.777,39.121 -33.406,13.75 -80.398,10.801 -104.617,-28.184 -14.758,-23.75 -14.195,-68.348 1.203,-95.437"
         style="fill:#fefefe;fill-opacity:1;fill-rule:nonzero;stroke:none"
         id="path20" /><path
         d="m 483.316,867.539 c -24.277,3.059 -77.222,6.836 -87.613,-5.703 -3.047,-3.672 -5.664,-17.566 11.082,-69.246 6.34,-19.563 13.485,-38.391 17.668,-49.074 0.059,7.832 0.488,15.539 1.309,23.027 2.695,24.582 11.855,47.715 27.23,68.75 8.332,11.395 18.488,22.187 30.324,32.246"
         style="fill:#fdd163;fill-opacity:1;fill-rule:nonzero;stroke:none"
         id="path22" /><path
         d="m 560.297,522.793 v -0.527 h 25.055 c -3.106,7.519 -4.461,13.254 -4.547,13.613 -0.223,0.976 0.383,1.965 1.363,2.187 0.98,0.227 1.957,-0.378 2.187,-1.367 0.122,-0.515 12.469,-51.75 48.125,-47.961 12.661,1.352 20.602,8.645 22.356,20.559 2.344,15.906 -7.68,38.223 -26.336,46.086 -19.391,8.164 -42.527,0.613 -55.824,-9.848 -9.043,-7.117 -13.567,-15.301 -12.403,-22.449 l 0.024,-0.293"
         style="fill:#fefefe;fill-opacity:1;fill-rule:nonzero;stroke:none"
         id="path24" /><path
         d="m 408.461,435.969 c -7.441,13.074 -11.941,31.25 -12.352,49.851 -0.257,11.914 1.137,23.098 4.012,32.801 h -0.605 l -53.086,-98.316 79.156,-2.258 c -6.504,3.398 -12.301,9.426 -17.125,17.922"
         style="fill:#eeaa46;fill-opacity:1;fill-rule:nonzero;stroke:none"
         id="path26" /><path
         d="M 829.391,643.215 C 811.656,629.91 792.969,627.52 780.41,627.852 c -10.961,0.285 -19.137,2.597 -22.094,3.554 -4.796,-5.5 -9.933,-10.976 -15.441,-16.445 l -2.57,0.012 0.008,2.578 c 46.757,46.402 67.421,93.797 61.41,140.855 -5.594,43.821 -33.727,79.438 -56.336,101.594 -24.602,24.102 -48.192,37.961 -48.422,38.098 l -0.871,1.218 c -1.735,8.672 -14.879,29.383 -30.574,48.184 -18.098,21.68 -34.016,34.441 -42.625,34.141 -16.43,-0.567 -43.875,-49.942 -53.067,-68.914 l -1.09,-0.95 c -0.32,-0.097 -32.433,-10.422 -65.523,-33.507 -30.402,-21.219 -67.887,-57.887 -73.828,-112.125 -1.117,-10.149 -1.539,-20.911 -1.239,-31.973 l 0.02,-0.617 c 1.687,-56.219 22.383,-120.242 69.531,-152.903 42.578,-29.492 100.43,-27.207 167.301,6.621 l 2.445,-0.796 -0.8,-2.454 c -19.297,-9.753 -37.852,-16.96 -55.516,-21.582 6.351,-0.039 12.738,-1.164 18.789,-3.711 9.258,-3.894 17.301,-11.433 22.648,-21.25 1.969,-3.601 3.489,-7.39 4.543,-11.21 h 142.008 c 5.488,30.3 -21.789,60.402 -22.07,60.703 l 0.105,2.57 2.578,-0.109 c 0.973,-1.055 19.481,-21.485 23.145,-46.348 62.66,18.34 93.176,60.066 100.266,90.449 3.125,13.379 1.617,24.805 -3.938,29.817 -17.558,15.878 -35.598,5.527 -69.812,-20.137"
         style="fill:#fefefe;fill-opacity:1;fill-rule:nonzero;stroke:none"
         id="path28" /><path
         d="m 502.766,413.203 -1.606,-0.957 h -0.051 l -105.898,3.02 4.457,-146.875 165.187,3.562 -7.976,241.692 -54.113,-100.442"
         style="fill:#e39331;fill-opacity:1;fill-rule:nonzero;stroke:none"
         id="path30" /><path
         d="m 623.121,415.645 -62.601,98.21 7.976,-241.851 H 822.105 V 414.805 H 624.656 l -1.535,0.84"
         style="fill:#e39331;fill-opacity:1;fill-rule:nonzero;stroke:none"
         id="path32" /><path
         d="m 800.609,522.629 v 0 h -142.64 c 0.933,-4.77 1.113,-9.492 0.469,-13.867 -1.993,-13.508 -11.313,-22.129 -25.579,-23.645 -16.16,-1.719 -30.32,6.602 -40.929,24.043 -1.95,3.203 -3.606,6.426 -4.996,9.461 h -25.137 l 63.855,-100.176 h 266.875 l -73.914,104.184 h -18 -0.004"
         style="fill:#eeaa46;fill-opacity:1;fill-rule:nonzero;stroke:none"
         id="path34" /><path
         d="m 442.258,818.445 c 0,0 13,-45.547 31.219,-42.261 18.211,3.269 -19.192,57.671 2.914,82.695 0,0 -28.801,-31.313 -34.133,-40.434"
         style="fill:#fdd163;fill-opacity:1;fill-rule:nonzero;stroke:none"
         id="path36" /><path
         d="m 478.656,861.055 c 0,0 -0.082,-26.465 19.348,-48.567 19.43,-22.097 33.031,-18.941 34.976,-9.961 1.938,8.989 -11.906,93.743 23.797,106.621 0,0 -46.949,-19.675 -78.121,-48.093"
         style="fill:#fdd163;fill-opacity:1;fill-rule:nonzero;stroke:none"
         id="path38" /><path
         d="m 553.77,907.832 c 0,0 -7.985,-22.734 6.953,-48.953 14.937,-26.234 25.683,-25.871 29.875,-20.227 4.187,5.645 -4.371,54.286 18.031,74.141 0,0 -29.094,5.145 -54.859,-4.961"
         style="fill:#fdd163;fill-opacity:1;fill-rule:nonzero;stroke:none"
         id="path40" /><path
         d="m 432.434,789.297 c 0,0 -20.649,41.277 -14.332,50.391 6.316,9.113 39.464,-1.336 39.464,-1.336 0,0 -22.949,-32.297 -25.132,-49.055"
         style="fill:#f6b3a8;fill-opacity:1;fill-rule:nonzero;stroke:none"
         id="path42" /><path
         d="m 399.707,507.207 c 0,0 48.023,22.344 73.281,-11.414 0,0 -6.312,-12.871 0,-36.184 6.313,-23.32 -19.039,-52.949 -47.402,-40.078 -28.367,12.879 -29.949,83.789 -25.879,87.676"
         style="fill:#fdd163;fill-opacity:1;fill-rule:nonzero;stroke:none"
         id="path44" /><path
         d="m 425.586,553.84 c 0,0 19.961,-3.402 30.644,-15.305 10.688,-11.894 23.559,-9.472 25.258,-2.91 1.7,6.555 -0.726,25.984 -13.359,34.973 0,0 -23.164,-2.91 -42.543,-16.758"
         style="fill:#fdd163;fill-opacity:1;fill-rule:nonzero;stroke:none"
         id="path46" /><path
         d="m 503.59,566.953 c 0,0 4.613,-14.324 2.547,-25.383 -2.059,-11.043 4.738,-19.988 12.511,-17.886 7.774,2.109 16.153,16.796 18.09,27.488 0,0 -21.488,13.957 -33.148,15.781"
         style="fill:#fdd163;fill-opacity:1;fill-rule:nonzero;stroke:none"
         id="path48" /><path
         d="m 767.219,630.828 c 0,0 23.07,-25.625 30.844,-39.59 7.765,-13.965 16.632,-21.492 21.855,-10.437 5.223,11.047 3.887,41.035 -9.598,54.148 0,0 -24.043,-7.281 -43.101,-4.121"
         style="fill:#fdd163;fill-opacity:1;fill-rule:nonzero;stroke:none"
         id="path50" /><path
         d="m 825.566,642.852 c 0,0 38.067,-25.071 41.891,-67.364 0,0 29.945,26.797 37.285,58.367 7.344,31.575 -14.816,42.09 -30.238,37.954 -15.426,-4.141 -48.938,-28.957 -48.938,-28.957"
         style="fill:#fdd163;fill-opacity:1;fill-rule:nonzero;stroke:none"
         id="path52" /><path
         d="m 587.379,521.531 c 0,0 12.871,36.313 42.5,34.985 0,0 29.262,-16.211 26.957,-42.661 -2.309,-26.445 -26.648,-30.203 -39.102,-25.308 -12.453,4.891 -27.929,23.277 -30.355,32.984"
         style="fill:#fdd163;fill-opacity:1;fill-rule:nonzero;stroke:none"
         id="path54" /><path
         d="m 903.141,633.535 c -7.09,-30.383 -37.606,-72.109 -100.266,-90.449 -3.664,24.863 -22.172,45.293 -23.145,46.348 l -2.578,0.109 -0.105,-2.57 c 0.281,-0.301 27.558,-30.403 22.07,-60.703 H 657.109 c -1.054,3.82 -2.574,7.609 -4.543,11.21 -5.347,9.817 -13.39,17.356 -22.648,21.25 -6.051,2.547 -12.438,3.672 -18.789,3.711 17.664,4.622 36.219,11.829 55.516,21.582 l 0.8,2.454 -2.445,0.796 c -66.871,-33.828 -124.723,-36.113 -167.301,-6.621 -47.148,32.661 -67.844,96.684 -69.531,152.903 l -0.02,0.617 c -0.3,11.062 0.122,21.824 1.239,31.973 5.941,54.238 43.426,90.906 73.828,112.125 33.09,23.085 65.203,33.41 65.523,33.507 l 1.09,0.95 c 9.192,18.972 36.637,68.347 53.067,68.914 8.609,0.3 24.527,-12.461 42.625,-34.141 15.695,-18.801 28.839,-39.512 30.574,-48.184 l 0.871,-1.218 c 0.23,-0.137 23.82,-13.996 48.422,-38.098 22.609,-22.156 50.742,-57.773 56.336,-101.594 6.011,-47.058 -14.653,-94.453 -61.41,-140.855 l -0.008,-2.578 2.57,-0.012 c 5.508,5.469 10.645,10.945 15.441,16.445 2.957,-0.957 11.133,-3.269 22.094,-3.554 12.559,-0.332 31.246,2.058 48.981,15.363 34.214,25.664 52.254,36.015 69.812,20.137 5.555,-5.012 7.063,-16.438 3.938,-29.817 z M 818.613,522.629 892.527,418.445 H 625.652 l -63.855,100.176 h 25.137 c 1.39,-3.035 3.046,-6.258 4.996,-9.461 10.609,-17.441 24.769,-25.762 40.929,-24.043 14.266,1.516 23.586,10.137 25.579,23.645 0.644,4.375 0.464,9.097 -0.469,13.867 h 142.64 0.004 z m 3.492,-250.625 H 568.496 l -7.976,241.851 62.601,-98.21 1.535,-0.84 h 197.449 z m -422.437,-3.613 -4.457,146.875 105.898,-3.02 h 0.051 l 1.606,0.957 54.113,100.442 7.976,-241.692 z m -53.238,151.914 53.086,98.316 h 0.605 c -2.875,-9.703 -4.269,-20.887 -4.012,-32.801 0.411,-18.601 4.911,-36.777 12.352,-49.851 4.824,-8.496 10.621,-14.524 17.125,-17.922 z m 63.992,112.898 c 24.219,38.985 71.211,41.934 104.617,28.184 29.824,-12.285 37.164,-32.657 38.777,-39.121 h -43.125 l -0.511,-0.078 -0.809,0.058 c -16.691,-2.695 -28.613,-9.355 -35.433,-19.805 -7.192,-11.003 -7.243,-24.558 -4.895,-33.574 2.195,-8.457 3.961,-27.617 -5.102,-39.57 -5.304,-6.992 -13.625,-10.645 -24.742,-10.852 -13.574,-0.269 -22.48,10.364 -27.574,19.321 -15.398,27.089 -15.961,71.687 -1.203,95.437 z m 62.144,-63.418 c -0.742,2.852 -4.015,17.742 4.414,30.664 6.243,9.563 17.336,15.684 32.969,18.196 l 0.227,0.066 0.515,-0.09 h 44.735 l -55.332,-102.691 -46.696,1.328 c 5.512,2.027 10.016,5.308 13.442,9.832 9.89,13.047 8.254,32.969 5.726,42.695 z m 100.11,75.75 c 13.297,10.461 36.433,18.012 55.824,9.848 18.656,-7.863 28.68,-30.18 26.336,-46.086 -1.754,-11.914 -9.695,-19.207 -22.356,-20.559 -35.656,-3.789 -48.003,47.446 -48.125,47.961 -0.23,0.989 -1.207,1.594 -2.187,1.367 -0.98,-0.222 -1.586,-1.211 -1.363,-2.187 0.086,-0.359 1.441,-6.094 4.547,-13.613 h -25.055 v 0.527 l -0.024,0.293 c -1.164,7.148 3.36,15.332 12.403,22.449 z M 424.453,743.516 c -4.183,10.683 -11.328,29.511 -17.668,49.074 -16.746,51.68 -14.129,65.574 -11.082,69.246 10.391,12.539 63.336,8.762 87.613,5.703 -11.836,-10.059 -21.992,-20.851 -30.324,-32.246 -15.375,-21.035 -24.535,-44.168 -27.23,-68.75 -0.821,-7.488 -1.25,-15.195 -1.309,-23.027 z m 402.75,-97.395 c -27.367,-20.523 -57.519,-14.18 -66.285,-11.687 34.801,41.046 49.742,82.812 44.418,124.453 -5.734,44.883 -34.422,81.211 -57.477,103.789 -22.546,22.082 -44.281,35.676 -48.379,38.164 -2.414,9.695 -15.32,30.019 -31.167,48.996 -9.032,10.816 -31.551,35.926 -45.54,35.445 -9.398,-0.32 -21.757,-12.468 -36.722,-36.093 -9.707,-15.321 -17.465,-30.758 -19.156,-34.176 -5.071,-1.711 -34.965,-12.278 -65.684,-33.696 -4.91,-3.425 -9.609,-6.961 -14.086,-10.601 -8.844,1.199 -80.27,10.293 -94.227,-6.555 -6.351,-7.668 -2.941,-31.445 10.422,-72.695 9.235,-28.496 20.16,-55.41 21.27,-58.113 0.793,-23.821 4.937,-48.247 12.129,-70.266 12.32,-37.727 32.683,-67.266 58.906,-85.418 20.465,-14.184 44.277,-21.359 70.805,-21.359 h 0.941 c 6.305,0.039 12.766,0.488 19.371,1.336 -6.199,-2.457 -11.801,-5.692 -16.316,-9.247 -8.641,-6.796 -13.539,-14.675 -13.934,-22.121 -2.98,9.075 -12.219,27.004 -40.066,38.481 -19.313,7.945 -40.535,9.851 -59.778,5.371 -21.101,-4.926 -38.156,-17.031 -49.324,-35 -2.386,-3.852 -4.414,-8.195 -6.07,-12.949 l -0.516,0.086 h -2.304 l -1.61,-0.957 -55.004,-101.875 0.028,-1.778 1.519,-0.91 48.196,-1.375 4.515,-148.894 c 0.031,-0.989 0.84,-1.77 1.82,-1.77 h 0.04 l 168.82,3.645 h 257.168 c 1.008,0 1.82,0.82 1.82,1.824 v 144.629 h 70.309 l 1.617,0.976 -0.133,1.895 -76.5,107.832 -1.484,0.762 h -16.746 c 0.746,4.445 0.859,8.847 0.496,13.144 64.566,18.691 96.047,61.856 103.383,93.289 3.472,14.895 1.593,27.356 -5.043,33.352 -20.243,18.3 -41.629,4.675 -74.442,-19.934"
         style="fill:#9b0064;fill-opacity:1;fill-rule:nonzero;stroke:none"
         id="path56" /><path
         d="m 611.543,913.34 c 0,0 34.605,5.098 54.098,-4.192 0,0 -25.868,43.711 -34.426,43.528 -8.563,-0.176 -20.586,-29.324 -19.672,-39.336"
         style="fill:#f6b3a8;fill-opacity:1;fill-rule:nonzero;stroke:none"
         id="path58" /><path
         d="m 526.418,648.203 c 5.277,-9.14 -0.922,-22.598 -13.84,-30.058 -12.922,-7.454 -27.672,-6.094 -32.949,3.054 -5.277,9.145 0.918,22.602 13.84,30.063 12.914,7.449 27.668,6.093 32.949,-3.059"
         style="fill:#f6b3a8;fill-opacity:1;fill-rule:nonzero;stroke:none"
         id="path60" /><path
         d="m 713.297,740.371 c 5.277,-9.141 -0.914,-22.598 -13.832,-30.058 -12.922,-7.461 -27.672,-6.094 -32.949,3.046 -5.282,9.153 0.91,22.61 13.832,30.059 12.918,7.461 27.672,6.094 32.949,-3.047"
         style="fill:#f6b3a8;fill-opacity:1;fill-rule:nonzero;stroke:none"
         id="path62" /><path
         d="m 522.734,710.293 c 6.161,-12.141 4.012,-25.605 -4.8,-30.09 -8.809,-4.473 -20.954,1.75 -27.114,13.891 -6.164,12.136 -4.011,25.601 4.801,30.078 8.813,4.473 20.949,-1.738 27.113,-13.879"
         style="fill:#9b0064;fill-opacity:1;fill-rule:nonzero;stroke:none"
         id="path64" /><path
         d="m 511.117,711.453 c 0,-4.422 -3.914,-8.015 -8.738,-8.015 -4.828,0 -8.746,3.593 -8.746,8.015 0,4.426 3.918,8.02 8.746,8.02 4.824,0 8.738,-3.594 8.738,-8.02"
         style="fill:#fefefe;fill-opacity:1;fill-rule:nonzero;stroke:none"
         id="path66" /><path
         d="m 658.008,772.703 c 6.168,-12.137 4.012,-25.601 -4.793,-30.074 -8.817,-4.477 -20.957,1.734 -27.121,13.875 -6.16,12.141 -4.016,25.605 4.801,30.078 8.812,4.481 20.953,-1.738 27.113,-13.879"
         style="fill:#9b0064;fill-opacity:1;fill-rule:nonzero;stroke:none"
         id="path68" /><path
         d="m 646.391,773.867 c 0,-4.426 -3.911,-8.008 -8.739,-8.008 -4.832,0 -8.746,3.582 -8.746,8.008 0,4.434 3.914,8.02 8.746,8.02 4.828,0 8.739,-3.586 8.739,-8.02"
         style="fill:#fefefe;fill-opacity:1;fill-rule:nonzero;stroke:none"
         id="path70" /><path
         d="m 645.605,705.398 c 10.622,-22.769 -5.57,-52.793 -36.167,-67.07 -30.594,-14.265 -64.008,-7.371 -74.629,15.402 -10.621,22.762 5.574,52.793 36.168,67.063 30.593,14.266 64.007,7.383 74.628,-15.395"
         style="fill:#fdd163;fill-opacity:1;fill-rule:nonzero;stroke:none"
         id="path72" /><path
         d="m 572.867,679.895 c 1.738,-4.321 5.961,-7.356 10.899,-7.356 6.488,0 11.746,5.254 11.746,11.746 0,3.028 -1.149,5.805 -3.035,7.883 0,0 -10.399,-2.051 -13.176,0.637 0,0 -0.942,-9.992 -6.434,-13.242"
         style="fill:#f6b3a8;fill-opacity:1;fill-rule:nonzero;stroke:none"
         id="path74" /><path
         d="m 575.297,679.094 c 1.781,-2.922 4.957,-4.739 8.469,-4.739 5.472,0 9.925,4.454 9.925,9.93 0,2.141 -0.683,4.199 -1.945,5.903 -2.43,-0.415 -7.5,-1.055 -11.027,-0.09 -0.614,-3.028 -2.086,-8.055 -5.422,-11.004 z m 8.469,-8.379 c -5.211,0 -9.875,2.93 -12.157,7.527 l -0.308,0.391 -0.25,1.094 1.133,1.855 0.57,0.129 c 3.246,2.715 4.516,8.926 4.734,11.258 l 1.184,1.543 1.894,-0.403 c 1.254,-1.211 6.989,-1.05 11.559,-0.156 l 1.703,-0.562 c 2.262,-2.5 3.508,-5.735 3.508,-9.106 0,-7.476 -6.09,-13.57 -13.57,-13.57"
         style="fill:#9b0064;fill-opacity:1;fill-rule:nonzero;stroke:none"
         id="path76" /><path
         d="m 600.914,706.063 c -0.449,1.078 -1.031,2.062 -1.699,2.953 -0.676,0.906 -1.395,1.675 -2.285,2.437 h -1.383 l -0.121,-1.492 0.054,-0.066 c 2.395,-2.825 3.856,-6.79 2.348,-9.641 -0.723,-1.445 -1.953,-2.715 -3.437,-3.762 -1.485,-1.023 -3.235,-1.961 -4.895,-2.554 -1.668,-0.61 -3.351,-0.891 -4.848,-0.61 -1.503,0.227 -2.828,1.027 -4.019,2.192 -1.188,1.16 -2.156,2.703 -2.949,4.375 l -0.832,1.929 c 3.882,5.285 5.597,16.008 4.105,17.707 -1.965,2.227 -6.402,2.434 -14.469,-0.652 0,0 -10.918,-4.887 -11.129,-10.969 -0.203,-5.984 10.106,-9.492 16.879,-9.043 l 0.496,-0.664 1.504,-2.363 c 0.918,-1.602 1.633,-3.281 1.914,-4.91 0.274,-1.645 0.18,-3.188 -0.496,-4.551 -0.613,-1.391 -1.808,-2.617 -3.257,-3.645 -1.438,-1.023 -3.207,-1.921 -4.895,-2.558 -1.707,-0.625 -3.453,-0.906 -5.043,-0.684 -3.211,0.391 -5.637,3.848 -6.59,7.422 l -0.015,0.09 -1.141,0.777 -0.949,-1.16 c 0.109,-1.172 0.343,-2.207 0.707,-3.269 0.344,-1.067 0.82,-2.102 1.449,-3.086 0.637,-0.981 1.441,-1.887 2.422,-2.629 0.984,-0.75 2.14,-1.309 3.344,-1.621 2.425,-0.633 4.879,-0.313 7.046,0.3 2.192,0.657 4.145,1.536 6.125,2.754 1.926,1.243 3.805,2.942 4.973,5.266 0.836,1.621 1.203,3.469 1.188,5.242 0.925,-0.406 1.914,-0.711 2.929,-0.848 2.575,-0.363 5.039,0.215 7.16,1.094 2.125,0.93 3.969,2.031 5.754,3.457 1.739,1.438 3.399,3.262 4.262,5.625 0.426,1.16 0.625,2.434 0.578,3.66 -0.054,1.243 -0.344,2.422 -0.785,3.497"
         style="fill:#9b0064;fill-opacity:1;fill-rule:nonzero;stroke:none"
         id="path78" /><path
         d="m 625.691,487.422 0.465,1.672 0.367,1.785 0.274,1.816 0.176,1.836 c 0.172,2.449 0.074,4.942 -0.309,7.395 -0.144,1.238 -0.48,2.429 -0.766,3.648 l -0.585,1.789 -0.313,0.891 -0.375,0.855 c -0.93,2.356 -2.352,4.477 -3.855,6.536 1.73,-1.868 3.429,-3.836 4.668,-6.125 l 0.496,-0.836 0.429,-0.879 0.825,-1.782 c 0.449,-1.218 0.949,-2.437 1.257,-3.718 0.703,-2.532 1.129,-5.149 1.262,-7.801 l 0.043,-1.984 -0.062,-2 -0.168,-2.004 -0.317,-2.071 c -0.199,-0.996 -1.16,-1.632 -2.152,-1.425 -0.988,0.195 -1.625,1.164 -1.426,2.148 l 0.055,0.203 0.011,0.051"
         style="fill:#9b0064;fill-opacity:1;fill-rule:nonzero;stroke:none"
         id="path80" /><path
         d="m 651.723,499.426 c -0.61,2.078 -1.356,4.219 -2.149,6.297 -0.789,2.09 -1.668,4.14 -2.64,6.152 -0.965,2.012 -2.036,3.984 -3.301,5.82 -1.266,1.836 -2.672,3.614 -4.528,4.934 2.024,-1.059 3.708,-2.68 5.247,-4.367 1.539,-1.707 2.906,-3.567 4.164,-5.481 1.269,-1.914 2.445,-3.894 3.539,-5.918 1.097,-2.019 2.129,-4.043 3.097,-6.199 0.411,-0.918 -0.007,-2.004 -0.922,-2.41 -0.925,-0.41 -2.003,0 -2.417,0.918 l -0.079,0.223 -0.011,0.031"
         style="fill:#9b0064;fill-opacity:1;fill-rule:nonzero;stroke:none"
         id="path82" /><path
         d="m 887.434,628.516 c 0,-8.914 -5.789,-16.145 -12.93,-16.145 -7.145,0 -12.938,7.231 -12.938,16.145 0,8.925 5.793,16.152 12.938,16.152 7.141,0 12.93,-7.227 12.93,-16.152"
         style="fill:#9b0064;fill-opacity:1;fill-rule:nonzero;stroke:none"
         id="path84" /><path
         d="m 882.336,659.91 c 0,-2.984 -2.258,-5.406 -5.039,-5.406 -2.785,0 -5.039,2.422 -5.039,5.406 0,2.981 2.254,5.403 5.039,5.403 2.781,0 5.039,-2.422 5.039,-5.403"
         style="fill:#9b0064;fill-opacity:1;fill-rule:nonzero;stroke:none"
         id="path86" /><path
         d="m 901.156,652.805 c 0,-4.492 -2.855,-8.137 -6.375,-8.137 -3.519,0 -6.379,3.645 -6.379,8.137 0,4.492 2.86,8.133 6.379,8.133 3.52,0 6.375,-3.641 6.375,-8.133"
         style="fill:#9b0064;fill-opacity:1;fill-rule:nonzero;stroke:none"
         id="path88" /><path
         d="m 902.613,633.855 c 0,-3.417 -1.754,-6.187 -3.918,-6.187 -2.164,0 -3.914,2.77 -3.914,6.187 0,3.43 1.75,6.204 3.914,6.204 2.164,0 3.918,-2.774 3.918,-6.204"
         style="fill:#9b0064;fill-opacity:1;fill-rule:nonzero;stroke:none"
         id="path90" /><path
         d="m 745.738,798.367 c 0.668,1.496 1.367,2.805 2.117,4.153 0.754,1.335 1.54,2.636 2.372,3.918 1.648,2.566 3.441,5.027 5.363,7.378 3.859,4.707 8.258,8.977 13.133,12.61 2.449,1.797 5.007,3.449 7.668,4.914 2.679,1.426 5.433,2.723 8.289,3.758 5.687,2.109 11.675,3.32 17.687,3.757 l 0.813,-0.691 -0.676,-0.809 h -0.008 c -5.863,-0.605 -11.644,-1.964 -17.082,-4.164 -2.726,-1.082 -5.34,-2.421 -7.887,-3.867 -2.515,-1.492 -4.933,-3.152 -7.238,-4.949 -4.586,-3.633 -8.691,-7.859 -12.262,-12.488 -1.781,-2.317 -3.433,-4.739 -4.941,-7.239 -0.758,-1.242 -1.469,-2.507 -2.145,-3.796 -0.664,-1.282 -1.324,-2.629 -1.836,-3.872 l -0.019,-0.054 c -0.379,-0.93 -1.445,-1.367 -2.375,-0.988 -0.934,0.378 -1.375,1.445 -0.992,2.375 l 0.019,0.054"
         style="fill:#9b0064;fill-opacity:1;fill-rule:nonzero;stroke:none"
         id="path92" /><path
         d="m 768.559,760.73 c 2.972,1.196 5.906,2.18 8.902,3.118 2.988,0.925 6,1.765 9.043,2.5 6.074,1.472 12.266,2.519 18.519,2.988 6.25,0.398 12.606,0.242 18.754,-1.191 6.157,-1.329 12.059,-4.25 16.575,-8.672 l 0.007,-0.813 -0.793,-0.027 -0.011,0.012 c -4.481,4.097 -10.184,6.687 -16.149,7.773 -5.957,1.18 -12.113,1.133 -18.176,0.535 -6.066,-0.664 -12.078,-1.887 -17.968,-3.523 -2.949,-0.825 -5.871,-1.742 -8.754,-2.746 -2.879,-0.996 -5.774,-2.098 -8.504,-3.301 l -0.039,-0.008 c -0.918,-0.41 -1.992,0.008 -2.399,0.926 -0.402,0.929 0.012,2.004 0.934,2.402 l 0.059,0.027"
         style="fill:#9b0064;fill-opacity:1;fill-rule:nonzero;stroke:none"
         id="path94" /><path
         d="m 442.566,649.453 c -4.226,-0.976 -8.523,-2.324 -12.668,-3.855 -4.16,-1.567 -8.242,-3.34 -12.132,-5.453 -1.953,-1.051 -3.864,-2.184 -5.696,-3.415 -1.832,-1.242 -3.617,-2.55 -5.273,-4.003 -3.344,-2.883 -6.254,-6.282 -8.289,-10.188 l -0.008,-0.012 -0.84,-0.261 -0.277,0.82 c 1.941,4.18 4.836,7.859 8.176,11.008 1.652,1.59 3.441,3.023 5.277,4.383 1.84,1.367 3.754,2.617 5.719,3.789 3.914,2.363 8.019,4.367 12.215,6.152 2.097,0.891 4.226,1.719 6.375,2.48 2.164,0.774 4.304,1.473 6.578,2.098 0.968,0.266 1.972,-0.301 2.238,-1.277 0.262,-0.965 -0.309,-1.973 -1.273,-2.239 l -0.067,-0.015 -0.055,-0.012"
         style="fill:#9b0064;fill-opacity:1;fill-rule:nonzero;stroke:none"
         id="path96" /><path
         d="m 463.313,612.305 c -1.571,-1.004 -3.18,-2.239 -4.696,-3.465 -1.527,-1.25 -2.996,-2.57 -4.406,-3.945 -2.82,-2.766 -5.371,-5.801 -7.531,-9.094 -1.067,-1.66 -2.024,-3.379 -2.852,-5.164 -0.824,-1.782 -1.473,-3.645 -1.98,-5.539 -0.516,-1.895 -0.774,-3.86 -0.907,-5.821 -0.117,-1.964 0.043,-3.945 0.313,-5.91 l 0.008,-0.015 -0.496,-0.657 -0.645,0.469 c -0.387,2.024 -0.656,4.082 -0.641,6.152 0.028,2.071 0.2,4.153 0.637,6.18 0.434,2.031 1.02,4.035 1.793,5.957 0.778,1.926 1.695,3.801 2.723,5.598 2.09,3.586 4.605,6.894 7.402,9.941 1.403,1.516 2.867,2.981 4.406,4.363 1.547,1.399 3.09,2.708 4.852,3.989 l 2.551,-0.41 -0.41,-2.539 -0.075,-0.051 -0.046,-0.039"
         style="fill:#9b0064;fill-opacity:1;fill-rule:nonzero;stroke:none"
         id="path98" /><path
         d="m 802.074,940.359 c -7.179,14.934 -28.234,10.403 -33.578,-4.793 -5.117,15.196 -25.293,19.727 -32.172,4.793 -6.312,-13.711 17.785,-39.324 29.676,-50.789 -0.77,-3.679 -1.445,-5.82 -1.445,-5.82 0,0 1.523,1.27 3.941,3.445 2.32,-2.175 3.777,-3.445 3.777,-3.445 0,0 -0.625,2.07 -1.351,5.652 12.34,11.391 37.773,37.18 31.152,50.957"
         style="fill:#b8aeed;fill-opacity:1;fill-rule:nonzero;stroke:none"
         id="path100" /><path
         d="m 984.512,567.031 c -7.184,14.934 -28.239,10.403 -33.578,-4.797 -5.118,15.2 -25.293,19.731 -32.172,4.797 -6.317,-13.711 17.793,-39.328 29.676,-50.793 -0.77,-3.679 -1.446,-5.816 -1.446,-5.816 0,0 1.524,1.266 3.942,3.445 2.32,-2.179 3.777,-3.445 3.777,-3.445 0,0 -0.625,2.066 -1.352,5.652 12.34,11.375 37.774,37.18 31.153,50.957"
         style="fill:#f9e978;fill-opacity:1;fill-rule:nonzero;stroke:none"
         id="path102" /><path
         d="m 976.324,641.184 c 0,-6.821 -5.519,-12.336 -12.336,-12.336 -6.804,0 -12.332,5.515 -12.332,12.336 0,6.804 5.528,12.332 12.332,12.332 6.817,0 12.336,-5.528 12.336,-12.332"
         style="fill:#b8aeed;fill-opacity:1;fill-rule:nonzero;stroke:none"
         id="path104" /><path
         d="m 926.992,423.281 c 0,-4.543 -3.679,-8.222 -8.222,-8.222 -4.54,0 -8.227,3.679 -8.227,8.222 0,4.539 3.687,8.223 8.227,8.223 4.543,0 8.222,-3.684 8.222,-8.223"
         style="fill:#bce8cd;fill-opacity:1;fill-rule:nonzero;stroke:none"
         id="path106" /><path
         d="m 869.434,776.855 c 0,-4.542 -3.68,-8.222 -8.223,-8.222 -4.539,0 -8.223,3.68 -8.223,8.222 0,4.54 3.684,8.223 8.223,8.223 4.543,0 8.223,-3.683 8.223,-8.223"
         style="fill:#f9e978;fill-opacity:1;fill-rule:nonzero;stroke:none"
         id="path108" /><path
         d="m 375.609,337.219 c -7.175,14.937 -28.238,10.398 -33.574,-4.785 -5.117,15.183 -25.297,19.722 -32.176,4.785 -6.312,-13.711 17.793,-39.321 29.684,-50.793 -0.773,-3.684 -1.445,-5.821 -1.445,-5.821 0,0 1.515,1.282 3.937,3.45 2.32,-2.168 3.781,-3.45 3.781,-3.45 0,0 -0.628,2.071 -1.351,5.657 12.336,11.383 37.765,37.183 31.144,50.957"
         style="fill:#bce8cd;fill-opacity:1;fill-rule:nonzero;stroke:none"
         id="path110" /><path
         d="m 375.609,805.906 c -7.175,14.946 -28.238,10.403 -33.574,-4.793 -5.117,15.196 -25.297,19.739 -32.176,4.793 -6.312,-13.711 17.793,-39.324 29.684,-50.789 -0.773,-3.679 -1.445,-5.82 -1.445,-5.82 0,0 1.515,1.269 3.937,3.445 2.32,-2.176 3.781,-3.445 3.781,-3.445 0,0 -0.628,2.07 -1.351,5.652 12.336,11.391 37.765,37.18 31.144,50.957"
         style="fill:#fbc2d3;fill-opacity:1;fill-rule:nonzero;stroke:none"
         id="path112" /><path
         d="m 352.52,580.73 c 0,-6.812 -5.524,-12.332 -12.332,-12.332 -6.813,0 -12.336,5.52 -12.336,12.332 0,6.821 5.523,12.336 12.336,12.336 6.808,0 12.332,-5.515 12.332,-12.336"
         style="fill:#fbc2d3;fill-opacity:1;fill-rule:nonzero;stroke:none"
         id="path114" /><path
         d="m 426.523,683.516 c 0,-4.539 -3.679,-8.223 -8.222,-8.223 -4.539,0 -8.223,3.684 -8.223,8.223 0,4.543 3.684,8.222 8.223,8.222 4.543,0 8.222,-3.679 8.222,-8.222"
         style="fill:#bce8cd;fill-opacity:1;fill-rule:nonzero;stroke:none"
         id="path116" /><path
         d="m 451.191,445.059 c 0,-4.539 -3.679,-8.223 -8.222,-8.223 -4.539,0 -8.223,3.684 -8.223,8.223 0,4.543 3.684,8.222 8.223,8.222 4.543,0 8.222,-3.679 8.222,-8.222"
         style="fill:#f9e978;fill-opacity:1;fill-rule:nonzero;stroke:none"
         id="path118" /></g></g></svg>
