<?xml version="1.0" encoding="UTF-8" standalone="no"?>
<svg
   xmlns:dc="http://purl.org/dc/elements/1.1/"
   xmlns:cc="http://creativecommons.org/ns#"
   xmlns:rdf="http://www.w3.org/1999/02/22-rdf-syntax-ns#"
   xmlns:svg="http://www.w3.org/2000/svg"
   xmlns="http://www.w3.org/2000/svg"
   xmlns:sodipodi="http://sodipodi.sourceforge.net/DTD/sodipodi-0.dtd"
   xmlns:inkscape="http://www.inkscape.org/namespaces/inkscape"
   version="1.1"
   id="svg2"
   xml:space="preserve"
   width="6354.6401"
   height="6354.6533"
   viewBox="0 0 6354.6401 6354.6533"
   sodipodi:docname="20749479.eps"><metadata
     id="metadata8"><rdf:RDF><cc:Work
         rdf:about=""><dc:format>image/svg+xml</dc:format><dc:type
           rdf:resource="http://purl.org/dc/dcmitype/StillImage" /></cc:Work></rdf:RDF></metadata><defs
     id="defs6"><clipPath
       clipPathUnits="userSpaceOnUse"
       id="clipPath30"><path
         d="m 21296,22254.4 c -1796.4,-4367.7 -2790.7,-4108.9 -5755.7,-6174.9 -2704.2,-1884.6 -2766.6,-4981.7 -335.4,-6185.1 3484.3,-1724.9 8190.5,-1947.1 12558.4,3179.9 4367.9,5127 3757.4,10381.5 3280.4,11074.4 -476.8,693 -9747.7,-1894.3 -9747.7,-1894.3 z"
         clip-rule="evenodd"
         id="path28" /></clipPath></defs><sodipodi:namedview
     pagecolor="#ffffff"
     bordercolor="#666666"
     borderopacity="1"
     objecttolerance="10"
     gridtolerance="10"
     guidetolerance="10"
     inkscape:pageopacity="0"
     inkscape:pageshadow="2"
     inkscape:window-width="640"
     inkscape:window-height="480"
     id="namedview4" /><g
     id="g10"
     inkscape:groupmode="layer"
     inkscape:label="ink_ext_XXXXXX"
     transform="matrix(1.3333333,0,0,-1.3333333,0,6354.6533)"><g
       id="g12"
       transform="scale(0.1)"><path
         d="M 0.00390625,47659.9 H 47659.8 V 0 H 0.00390625 v 47659.9 0"
         style="fill:#fefefe;fill-opacity:1;fill-rule:evenodd;stroke:none"
         id="path14" /><path
         d="M 17627.7,14706.7 C 14942.6,12663.8 17239.3,7600.1 19911,7759 c 1314.9,0 2148.8,0 3463.6,0 128.3,560.7 -747.6,1698.4 -1758.4,1990.7 1648.9,2838.9 -2379,6181.6 -3988.5,4957 v 0"
         style="fill:#ba6c27;fill-opacity:1;fill-rule:evenodd;stroke:none"
         id="path16" /><path
         d="m 15778,13735.7 c -3604.5,-970.2 -4913.9,4207.8 -3728.1,6749.1 279.7,600.1 885.5,1187.9 1300,1714.7 1042.9,1324.8 2090.8,3068.2 -86.3,3390 -1594.5,235.7 -4910.05,-2922.9 -3802.87,-7905.7 1107.17,-4982.7 4046.57,-5832 4046.57,-5832 0,0 1305.4,-27.4 2270.7,1883.9 v 0"
         style="fill:#e89954;fill-opacity:1;fill-rule:evenodd;stroke:none"
         id="path18" /><path
         d="m 24752.9,17010 c -167.8,-1539.6 166.9,-3394 411,-5929.2 284.4,-2952.7 253.5,-3321.8 253.5,-3321.8 1314.9,0 2629.8,0 3944.8,0 128.2,560.7 -399.6,1899.3 -1410.5,2191.5 452.2,2414.5 2132.6,7741 2196,8944 157.2,2989.4 -5035.2,1412 -5394.8,-1884.5 v 0"
         style="fill:#ba6c27;fill-opacity:1;fill-rule:evenodd;stroke:none"
         id="path20" /><path
         d="m 21296,22254.4 c -1796.4,-4367.7 -2790.7,-4108.9 -5755.7,-6174.9 -2704.2,-1884.6 -2766.6,-4981.7 -335.4,-6185.1 3484.3,-1724.9 8190.5,-1947.1 12558.4,3179.9 4367.9,5127 3757.4,10381.5 3280.4,11074.4 -476.8,693 -9747.7,-1894.3 -9747.7,-1894.3 v 0"
         style="fill:#e89954;fill-opacity:1;fill-rule:evenodd;stroke:none"
         id="path22" /><g
         id="g24"><g
           id="g26"
           clip-path="url(#clipPath30)"><path
             d="m 17539,17772.4 c -331.6,-206.1 -700.5,-424.4 -1116.7,-672.4 212.4,-721.1 637.9,-1410.1 1436.4,-1806.7 1815.8,-901.7 -175.6,689.9 -319.7,2479.1 z m 1764.2,1391.1 c -349.2,-393.4 -741.7,-713.9 -1220.4,-1039.3 342,-618.6 869.5,-1157 1669.1,-1464.3 2192.7,-842.8 89.5,581 -448.7,2503.6 z m 1104.1,1781.4 c -239.7,-522.6 -475.5,-945.2 -728,-1304.8 411.7,-563.2 1000.7,-1029.7 1831.2,-1162.8 2115.9,-339.1 -592,684.3 -1103.2,2467.6 v 0"
             style="fill:#c46818;fill-opacity:1;fill-rule:evenodd;stroke:none"
             id="path32" /></g></g><path
         d="m 21296,22254.6 c -325.3,-791.5 -337.9,-868.2 -614.6,-1418.2 1715.1,-878.8 6920.9,-1941.1 10641.7,241.8 124.3,1573.5 -157.1,2775 -279.3,3070.6 -122.3,295.4 -9747.8,-1894.2 -9747.8,-1894.2 v 0"
         style="fill:#cf7f3a;fill-opacity:1;fill-rule:evenodd;stroke:none"
         id="path34" /><path
         d="m 14564,10745.1 c 175.6,-303.1 388.8,-590 640.9,-850.7 2701.9,-2795.5 8190.5,-1947 12558.4,3179.9 1228.1,1441.5 2062.7,2893.3 2617.4,4250.8 -1905.8,-2733.1 -5854.1,-6279.8 -13497.3,-6213.9 -1021.8,8.8 -1781,-125.1 -2319.4,-366.1 v 0"
         style="fill:#cf7f3a;fill-opacity:1;fill-rule:evenodd;stroke:none"
         id="path36" /><path
         d="m 14417.5,14706.7 c -2685.1,-2042.9 -388.4,-7106.6 2283.3,-6947.7 1314.9,0 2148.8,0 3463.6,0 128.3,560.7 -747.6,1698.4 -1758.5,1990.7 1649,2838.9 -2378.9,6181.6 -3988.4,4957 v 0"
         style="fill:#e89954;fill-opacity:1;fill-rule:evenodd;stroke:none"
         id="path38" /><path
         d="m 22376.5,17010 c -23.2,-1539.6 486,-3394 968.4,-5929.2 562,-2952.7 565.9,-3321.8 565.9,-3321.8 1314.9,0 2629.9,0 3944.8,0 75.5,560.7 -578.2,1899.3 -1616.6,2191.5 225.3,2414.5 748.4,6040.5 698.7,7243.6 -123.8,2989.4 -4511.5,3112.4 -4561.2,-184.1 v 0"
         style="fill:#e89954;fill-opacity:1;fill-rule:evenodd;stroke:none"
         id="path40" /><path
         d="M 20266.1,22563.4 20100,20714.7 c 3656.1,-2105.7 8775,-1703.1 11463.2,-515.3 l 194,1800.2 c 0,0 -6990.6,-1796.9 -11491.1,563.8 v 0"
         style="fill:#333333;fill-opacity:1;fill-rule:evenodd;stroke:none"
         id="path42" /><path
         d="M 20266.1,22563.4 20100,20714.7 c 685.7,-395 1422.9,-701.7 2185.9,-931.5 -585.7,684.5 -780.7,1475.4 -765.7,2245.1 -433.2,148.5 -853.6,325 -1254.1,535.1 v 0"
         style="fill:#212121;fill-opacity:1;fill-rule:evenodd;stroke:none"
         id="path44" /><path
         d="m 20266.1,22563.4 -88.3,-983.8 c 120.3,-57.5 245,-115 380,-172.2 4773.1,-2021.5 9163.1,-743.3 11143,69.6 l 56.4,522.6 c 0,0 -6990.5,-1796.9 -11491.1,563.8 v 0"
         style="fill:#212121;fill-opacity:1;fill-rule:evenodd;stroke:none"
         id="path46" /><path
         d="m 20266.1,22563.4 -88.3,-983.8 c 120.3,-57.5 245,-115 380,-172.2 363.3,-153.8 724.1,-287.6 1082.2,-404.9 -91.8,338.7 -126.5,684.5 -119.8,1025.8 -433.2,148.5 -853.6,325 -1254.1,535.1 v 0"
         style="fill:#212121;fill-opacity:1;fill-rule:evenodd;stroke:none"
         id="path48" /><path
         d="m 38000.7,30621.2 c 74.5,22.7 116.6,101.6 94,176.1 -22.6,74.5 -101.6,116.6 -176.1,93.8 l -1731.9,-532.9 c -74.5,-22.7 -116.5,-101.5 -93.9,-176 22.6,-74.6 101.6,-116.7 176.1,-93.9 l 1731.8,532.9 v 0"
         style="fill:#5c291a;fill-opacity:1;fill-rule:evenodd;stroke:none"
         id="path50" /><path
         d="m 38296.7,29298.2 c 77.3,9.3 132.4,79.9 123.2,157.2 -9.3,77.3 -79.7,132.3 -157,123.1 l -1798.4,-222.7 c -77.3,-9.3 -132.4,-79.7 -123.2,-157.1 9.4,-77.3 79.8,-132.4 157,-123.1 l 1798.4,222.6 v 0"
         style="fill:#5c291a;fill-opacity:1;fill-rule:evenodd;stroke:none"
         id="path52" /><path
         d="m 38151.3,27921.8 c 74.5,-22.5 116.8,-101.3 94.3,-175.9 -22.5,-74.6 -101.4,-116.7 -175.9,-94.2 l -1732.9,529.7 c -74.5,22.4 -116.8,101.3 -94.3,176 22.5,74.4 101.4,116.5 175.9,94.2 l 1732.9,-529.8 v 0"
         style="fill:#5c291a;fill-opacity:1;fill-rule:evenodd;stroke:none"
         id="path54" /><path
         d="m 23645.8,35419.6 c 0,0 -5191.9,2117.5 -6334.1,2371.5 -1142.2,254 -1022.7,-4032.6 -31.5,-8375.7 991.3,-4343.1 6365.6,6004.2 6365.6,6004.2 v 0"
         style="fill:#c46818;fill-opacity:1;fill-rule:evenodd;stroke:none"
         id="path56" /><path
         d="m 23150.3,34270.3 c 0,0 -4505.9,1837.9 -5497.1,2058.2 -991.2,220.6 -887.6,-3499.7 -27.3,-7268.8 860.3,-3769.1 5524.4,5210.6 5524.4,5210.6 v 0"
         style="fill:#ffc491;fill-opacity:1;fill-rule:evenodd;stroke:none"
         id="path58" /><path
         d="m 29655.1,35848.7 c 0,0 3709.9,3443.5 4570,4003.6 860.1,560 1654.4,-3472.4 1763.7,-7803.8 109.3,-4331.6 -6333.7,3800.2 -6333.7,3800.2 v 0"
         style="fill:#c46818;fill-opacity:1;fill-rule:evenodd;stroke:none"
         id="path60" /><path
         d="m 31136.6,35284.1 c 0,0 2641.2,3168.7 3252.9,3711.8 611.8,543.1 1165.7,-2611 1232.6,-6079.5 67,-3468.8 -4485.5,2367.7 -4485.5,2367.7 v 0"
         style="fill:#ffc491;fill-opacity:1;fill-rule:evenodd;stroke:none"
         id="path62" /><path
         d="m 27624.9,36787.5 c 6159.6,-2.1 14569.2,-10047.2 4610.8,-14766 -5802.6,-2749.7 -14557.9,-1354.2 -14818.8,4241.8 -199.4,4276.3 4048.4,10526.4 10208,10524.2 v 0"
         style="fill:#e89954;fill-opacity:1;fill-rule:evenodd;stroke:none"
         id="path64" /><path
         d="m 30108,36306.9 c 32.6,-221.2 -957.3,-3196.7 1170.1,-8077.2 -1180.9,-1346.2 -1263.7,-692.6 -1999.4,-519.6 -465.4,2315.8 -1084.4,5322.8 -6117.6,7905.9 1760.7,1088 4983.8,1632.6 6946.9,690.9 v 0"
         style="fill:#c46818;fill-opacity:1;fill-rule:evenodd;stroke:none"
         id="path66" /><path
         d="m 30508.1,27160.6 c -3.2,51.6 36,96.2 87.8,99.5 51.7,3.3 96.3,-36 99.6,-87.7 0.2,-5.3 95.4,-960.7 11.9,-1150.6 -171.3,-389.4 -491.4,-653.7 -859.1,-795.2 -220.3,-84.7 -458.7,-125.5 -692.8,-122.8 -235.1,2.4 -465.7,48.7 -668.8,138.1 l -5.8,2.7 c -292.2,130.1 -529.2,348.8 -646.9,654.4 -18.7,48.5 5.5,103.1 54,121.8 48.6,18.7 103.1,-5.6 121.8,-54.2 98.5,-255.9 299.5,-440.2 548,-550.5 l 4.8,-2 c 180.5,-79.4 385.5,-120.7 594.3,-122.9 209.9,-2.4 424.6,34.6 623.6,111.3 324.3,124.7 605.6,355.6 754.7,694.3 67.7,154.2 -26.8,1058.4 -27.1,1063.8 v 0"
         style="fill:#5c291a;fill-opacity:1;fill-rule:evenodd;stroke:none"
         id="path68" /><path
         d="m 30577.8,26053.8 c -13.7,48.7 14.9,99.5 63.7,113.2 48.8,13.6 99.6,-14.9 113.3,-63.6 62.2,-219.9 217.8,-366.3 409,-433.8 124.4,-43.8 264.5,-54.9 404.7,-31.9 141.7,23.2 283.1,81.4 408.6,175.2 250.1,187.3 440.2,518.3 452.3,1005.5 1.2,50.5 43.2,90.6 93.8,89.5 50.7,-1.2 90.8,-43.2 89.6,-93.7 -13.8,-551 -234.8,-930.3 -526,-1148.2 -150.6,-112.7 -319.7,-182 -488.8,-209.8 -170.5,-28 -341.9,-14.2 -495.4,40 -245.1,86.6 -444.7,274.8 -524.8,557.6 v 0"
         style="fill:#5c291a;fill-opacity:1;fill-rule:evenodd;stroke:none"
         id="path70" /><path
         d="m 30291,28280.2 c 0,0 -1494.5,-322.1 -920.6,-902.3 573.9,-580.1 1142.2,-710.8 1549.9,-325.7 407.8,385.1 1123.9,1551.8 -629.3,1228 v 0"
         style="fill:#b93c3b;fill-opacity:1;fill-rule:evenodd;stroke:none"
         id="path72" /><path
         d="m 29453.4,27951 c -208.9,-146 -315.2,-338.5 -83,-573.1 573.9,-580.1 1142.1,-710.8 1549.9,-325.7 285.2,269.5 720.9,920.6 357.8,1177.4 77.3,-410.3 -256,-962.8 -954.2,-904.6 -765.4,63.8 -877.2,410.7 -870.5,626 v 0"
         style="fill:#a83836;fill-opacity:1;fill-rule:evenodd;stroke:none"
         id="path74" /><path
         d="m 19473.6,26761 c -77.3,8.6 -133.3,78.3 -124.8,155.8 8.5,77.4 78.3,133.4 155.7,124.9 l 1800.6,-203.8 c 77.3,-8.4 133.3,-78.2 124.8,-155.6 -8.5,-77.4 -78.3,-133.3 -155.7,-124.9 l -1800.6,203.6 v 0"
         style="fill:#5c291a;fill-opacity:1;fill-rule:evenodd;stroke:none"
         id="path76" /><path
         d="m 19427.4,25406.2 c -77.7,-5.1 -145,53.9 -150.1,131.6 -5.2,77.7 53.8,145 131.5,150.1 l 1808.5,113.5 c 77.6,5.2 144.9,-53.8 150.1,-131.6 5.2,-77.7 -53.8,-144.9 -131.6,-150.1 l -1808.4,-113.5 v 0"
         style="fill:#5c291a;fill-opacity:1;fill-rule:evenodd;stroke:none"
         id="path78" /><path
         d="m 19824.6,24080.4 c -69,-35.9 -96,-121.2 -60.1,-190.4 35.9,-68.9 121.2,-96 190.3,-60 l 1605.1,840.8 c 69.1,35.9 96,121.2 60.2,190.3 -35.9,69.2 -121.2,95.9 -190.3,60.2 l -1605.2,-840.9 v 0"
         style="fill:#5c291a;fill-opacity:1;fill-rule:evenodd;stroke:none"
         id="path80" /><path
         d="m 25458.1,28085.7 c 705.3,-1125.8 1730.2,245.4 1209.8,1230.6 -385.6,730.6 -1102.1,455.4 -1337.2,-144.1 -120.4,-307.4 -114.5,-700.3 127.4,-1086.5 v 0"
         style="fill:#000000;fill-opacity:1;fill-rule:evenodd;stroke:none"
         id="path82" /><path
         d="m 25838.5,29373.4 c 114.6,1.4 208.5,-74 209.6,-168.4 1.1,-94.5 -90.8,-171.9 -205.5,-173.4 -114.6,-1.4 -208.4,73.9 -209.6,168.4 -1.2,94.3 90.8,172 205.5,173.4 v 0"
         style="fill:#ffffff;fill-opacity:1;fill-rule:evenodd;stroke:none"
         id="path84" /><path
         d="m 25595,31724.4 c 0,0 -1183.2,-1053.7 -1029,-1310.6 154.2,-257 1823.8,388.3 2048,898.9 224,510.7 -454.9,757.4 -1019,411.7 v 0"
         style="fill:#5c291a;fill-opacity:1;fill-rule:evenodd;stroke:none"
         id="path86" /><path
         d="m 32669.5,29339.4 c 925,-953.4 1640.7,601.7 925.8,1456.3 -529.8,633.9 -1173,214.9 -1277.6,-420.3 -53.4,-325.9 34.4,-708.9 351.8,-1036 v 0"
         style="fill:#000000;fill-opacity:1;fill-rule:evenodd;stroke:none"
         id="path88" /><path
         d="m 32772.2,30678.2 c 111.8,25.3 219.4,-28.9 240.2,-120.8 20.9,-92.1 -52.8,-187.3 -164.6,-212.5 -111.8,-25.6 -219.4,28.6 -240.2,120.8 -20.9,92 52.8,187.1 164.6,212.5 v 0"
         style="fill:#ffffff;fill-opacity:1;fill-rule:evenodd;stroke:none"
         id="path90" /><path
         d="m 32461.9,33131.3 c 0,0 1480.7,-563.8 1428,-858.8 -52.6,-295.1 -1842.6,-286.2 -2233.7,111.5 -391.1,397.3 155.5,869.6 805.7,747.3 v 0"
         style="fill:#5c291a;fill-opacity:1;fill-rule:evenodd;stroke:none"
         id="path92" /><path
         d="m 30591.4,20248.3 1626,-5243.6 -1611.8,-2496.2 -1910.8,2224.1 1182.9,5697.7 713.7,-182 v 0"
         style="fill:#333333;fill-opacity:1;fill-rule:evenodd;stroke:none"
         id="path94" /><path
         d="m 31326.4,13624.8 -720.8,-1116.3 -1910.8,2224.1 1004.3,4837.8 c 43.8,-12.9 67.4,-21 67.4,-21 l -211.9,-4358.3 c 0,0 714.4,-1512.6 1771.8,-1566.3 v 0"
         style="fill:#212121;fill-opacity:1;fill-rule:evenodd;stroke:none"
         id="path96" /></g></g></svg>
