<?xml version="1.0" standalone="no"?>
<!DOCTYPE svg PUBLIC "-//W3C//DTD SVG 20010904//EN"
 "http://www.w3.org/TR/2001/REC-SVG-20010904/DTD/svg10.dtd">
<svg version="1.0" xmlns="http://www.w3.org/2000/svg"
 width="565.000000pt" height="424.000000pt" viewBox="0 0 565.000000 424.000000"
 preserveAspectRatio="xMidYMid meet">
<metadata>
Created by potrace 1.16, written by Peter Selinger 2001-2019
</metadata>
<g transform="translate(0.000000,424.000000) scale(0.100000,-0.100000)"
fill="#000000" stroke="none">
<path d="M2135 4213 c-86 -19 -151 -66 -185 -133 -93 -183 1 -536 211 -790
l37 -46 -19 -24 c-72 -91 -127 -298 -163 -610 -16 -145 -23 -132 91 -187 241
-116 569 -60 758 131 115 117 155 215 155 387 0 193 -71 406 -173 516 l-41 45
-60 -7 c-146 -17 -322 -77 -422 -145 -25 -16 -46 -30 -48 -30 -9 0 -68 146
-87 214 -35 129 -25 232 39 426 70 212 71 234 15 249 -39 11 -72 12 -108 4z"/>
<path d="M3338 4167 c-177 -67 -346 -287 -423 -552 -33 -116 -34 -115 19 -115
24 0 50 -2 58 -5 8 -3 31 27 62 81 96 164 181 227 439 324 142 54 173 75 163
114 -9 37 -81 113 -130 138 -50 26 -139 33 -188 15z"/>
<path d="M3306 3168 c-31 -44 -7 -142 44 -178 52 -37 90 -15 90 51 0 107 -89
191 -134 127z"/>
<path d="M3854 2610 c-98 -20 -154 -57 -154 -100 0 -37 119 -150 183 -175 62
-24 88 -15 160 53 171 162 158 223 -48 228 -55 2 -118 -1 -141 -6z"/>
<path d="M3633 2107 c42 -65 165 -125 225 -111 59 14 130 63 153 105 7 15 2
14 -44 -3 -68 -26 -204 -21 -290 10 l-59 21 15 -22z"/>
<path d="M1902 1993 l-51 -118 72 -70 c247 -242 704 -392 1126 -372 186 10
171 2 226 125 26 59 49 112 52 118 3 7 -46 13 -154 18 -345 15 -666 88 -909
206 -96 46 -237 142 -278 188 -11 12 -22 22 -26 22 -4 0 -30 -53 -58 -117z"/>
<path d="M1906 1529 c-161 -38 -350 -206 -363 -322 -10 -86 57 -149 156 -149
94 1 189 50 291 151 122 120 158 216 104 280 -38 46 -103 60 -188 40z"/>
<path d="M1435 1475 c-28 -13 -112 -36 -179 -50 -28 -6 -28 -8 -24 -56 8 -82
62 -120 140 -99 64 18 118 103 118 186 0 37 -8 40 -55 19z"/>
</g>
</svg>
