<?xml version="1.0" encoding="UTF-8" standalone="no"?>
<svg
   xmlns:dc="http://purl.org/dc/elements/1.1/"
   xmlns:cc="http://creativecommons.org/ns#"
   xmlns:rdf="http://www.w3.org/1999/02/22-rdf-syntax-ns#"
   xmlns:svg="http://www.w3.org/2000/svg"
   xmlns="http://www.w3.org/2000/svg"
   xmlns:sodipodi="http://sodipodi.sourceforge.net/DTD/sodipodi-0.dtd"
   xmlns:inkscape="http://www.inkscape.org/namespaces/inkscape"
   version="1.1"
   id="svg2"
   xml:space="preserve"
   width="251.45332"
   height="181.74667"
   viewBox="0 0 251.45332 181.74667"
   sodipodi:docname="24303.eps"><metadata
     id="metadata8"><rdf:RDF><cc:Work
         rdf:about=""><dc:format>image/svg+xml</dc:format><dc:type
           rdf:resource="http://purl.org/dc/dcmitype/StillImage" /></cc:Work></rdf:RDF></metadata><defs
     id="defs6" /><sodipodi:namedview
     pagecolor="#ffffff"
     bordercolor="#666666"
     borderopacity="1"
     objecttolerance="10"
     gridtolerance="10"
     guidetolerance="10"
     inkscape:pageopacity="0"
     inkscape:pageshadow="2"
     inkscape:window-width="640"
     inkscape:window-height="480"
     id="namedview4" /><g
     id="g10"
     inkscape:groupmode="layer"
     inkscape:label="ink_ext_XXXXXX"
     transform="matrix(1.3333333,0,0,-1.3333333,0,181.74667)"><g
       id="g12"
       transform="scale(0.1)"><path
         d="m 940.469,31.3984 c -92.942,0 -167.207,8.211 -210.852,16.5704 -130.293,24.871 -110.699,3.75 -430.703,130.9922 -319.9999,127.051 -344.4296,287.906 -6.016,416.344 64.934,24.675 131.625,41.66 196.989,52.988 1.418,-5.676 2.972,-11.32 4.676,-16.914 -32.985,-6.727 -66.196,-15.152 -99.129,-25.598 C 373.965,599.527 352.59,592.488 331.395,584.57 18.6016,467.891 41.1406,321.75 336.848,206.449 632.605,90.9883 614.504,110.129 734.949,87.6211 c 40.254,-7.582 108.75,-15.0195 194.453,-15.0195 170.998,0 410.628,29.5584 632.028,146.5004 261.29,138.007 238.08,294.601 -111.59,373.097 -17.48,4.356 -35.87,8.492 -55.19,12.399 2.21,6.125 4.23,12.34 6.07,18.617 C 1875.02,545.848 1930.15,357.07 1623.83,192.5 1384.51,63.9102 1125.46,31.3984 940.469,31.3984"
         style="fill:#bae8e7;fill-opacity:1;fill-rule:nonzero;stroke:none"
         id="path14" /><path
         d="m 929.402,72.6016 c -85.703,0 -154.199,7.4375 -194.453,15.0195 C 614.504,110.129 632.605,90.9883 336.848,206.449 41.1406,321.75 18.6016,467.891 331.395,584.57 c 21.195,7.918 42.57,14.957 64.039,21.211 -14.766,-4.683 -29.473,-9.769 -44.09,-15.297 v 0 c -73.52,-27.914 -127.832,-57.527 -163.848,-88.086 -36,-30.543 -53.766,-62.136 -53.766,-93.89 0.11,-59.278 61.485,-117.668 177.579,-170.547 l 1.55,0.437 1.633,1.114 c 57.789,7.226 115.528,14.789 173.063,24.129 h -0.008 l 0.34,0.019 1.738,-0.75 0.723,-1.512 -0.985,-1.308 -0.008,-0.012 c -32.367,-16.859 -64.234,-34.75 -95.164,-54.058 l -0.582,-1.168 0.789,-1.051 C 639.453,107.59 629.059,123.82 739.539,102.672 778.391,95.2695 844.426,88 927.113,88 c 164.497,0 394.897,28.801 607.797,142.949 26.45,14.289 49.85,28.653 70.18,43.172 l 0.5,1.238 -0.91,0.993 c -40.58,10.628 -82.8,16.07 -122.2,30.48 -1.11,0.418 -1.53,1.199 -1.54,1.977 0.01,0.761 0.4,1.511 1.49,1.953 v 0 0 c 33,12.988 70.89,7.797 106.24,11.578 27.72,2.988 55.2,7.808 82.68,12.121 l 0.78,0.449 c 21.52,26.77 32.53,53.445 32.53,79.328 -0.06,55.633 -50.61,106.532 -153.51,146.485 -29.44,11.429 -63.19,21.972 -101.31,31.476 349.67,-78.496 372.88,-235.09 111.59,-373.097 C 1340.03,102.16 1100.4,72.6016 929.402,72.6016"
         style="fill:#8fdadb;fill-opacity:1;fill-rule:nonzero;stroke:none"
         id="path16" /><path
         d="m 1481.98,311.922 c 33.42,13.129 71.42,7.879 106.56,11.656 27.66,2.981 55.12,7.813 82.62,12.113 113.26,140.872 -69.08,275.735 -590.08,304.622 -57.62,-96.25 -108.412,-147.012 -108.412,-147.012 l 22.355,138.652 c 0,0 -342.511,71.067 -643.238,-42.637 C 67.9219,481.543 71.457,348.488 311.824,239.102 c 0.547,0.796 1.328,1.468 2.485,1.636 57.789,7.242 115.527,14.801 173.046,24.133 3.36,0.527 6.153,-4.082 2.575,-5.902 -32.34,-16.848 -64.176,-34.719 -95.075,-54.008 245.094,-96.199 234.278,-79.871 344.918,-101.063 115.84,-22.0464 475.017,-43.1792 794.547,128.153 26.41,14.269 49.77,28.597 70.04,43.09 -40.47,10.609 -82.73,16.05 -122.3,30.507 -3.11,1.133 -3.19,5.071 -0.08,6.274"
         style="fill:#bfe02b;fill-opacity:1;fill-rule:nonzero;stroke:none"
         id="path18" /><path
         d="m 1481.98,311.922 0.45,-1.16 c 33,12.988 70.89,7.797 106.24,11.578 27.72,2.988 55.2,7.808 82.68,12.121 l 0.78,0.449 c 21.52,26.77 32.53,53.445 32.53,79.328 -0.06,55.633 -50.61,106.532 -153.51,146.485 -102.97,39.976 -258.65,69.117 -470,80.84 l -1.14,-0.61 c -28.78,-48.066 -55.85,-84.773 -75.72,-109.457 -9.935,-12.34 -18.067,-21.676 -23.716,-27.922 -5.644,-6.246 -8.785,-9.379 -8.793,-9.39 l 0.887,-0.883 1.23,-0.199 22.36,138.652 -0.981,1.422 c -0.054,0.012 -105.843,21.961 -251.504,21.961 -116.523,0 -258.574,-14.043 -392.429,-64.653 v 0 c -73.52,-27.914 -127.832,-57.527 -163.848,-88.086 -36,-30.543 -53.766,-62.136 -53.766,-93.89 0.11,-59.278 61.485,-117.668 177.579,-170.547 l 1.55,0.437 1.637,1.114 -0.187,1.226 0.152,-1.238 c 57.801,7.238 115.547,14.801 173.094,24.141 h -0.008 l 0.34,0.019 1.738,-0.75 0.723,-1.512 -0.985,-1.308 -0.008,-0.012 c -32.367,-16.859 -64.234,-34.75 -95.164,-54.058 l -0.582,-1.168 0.789,-1.051 C 639.453,107.59 629.059,123.82 739.539,102.672 778.391,95.2695 844.426,88 927.113,88 c 164.497,0 394.897,28.801 607.797,142.949 26.45,14.289 49.85,28.653 70.18,43.172 l 0.5,1.238 -0.91,0.993 c -40.58,10.628 -82.8,16.07 -122.2,30.48 -1.11,0.418 -1.53,1.199 -1.54,1.977 0.01,0.761 0.4,1.511 1.49,1.953 v 0 l -0.45,1.16 -0.45,1.168 c -1.98,-0.75 -3.11,-2.52 -3.09,-4.281 -0.02,-1.809 1.16,-3.61 3.19,-4.329 39.74,-14.519 82.05,-19.96 122.41,-30.55 l 0.32,1.211 -0.73,1.007 c -20.22,-14.437 -43.53,-28.75 -69.9,-43 C 1321.34,119.27 1091.33,90.5 927.113,90.5 c -82.535,0 -148.457,7.2695 -187.105,14.621 -110.809,21.231 -99.559,4.809 -344.699,101 l -0.454,-1.16 0.661,-1.063 c 30.867,19.274 62.672,37.122 94.992,53.973 l -0.578,1.098 0.566,-1.11 c 1.524,0.743 2.383,2.172 2.352,3.539 -0.063,2.524 -2.196,4.711 -4.961,4.774 l -0.727,-0.063 h -0.008 c -57.492,-9.328 -115.214,-16.89 -173,-24.129 h -0.035 c -1.551,-0.23 -2.664,-1.191 -3.324,-2.171 l 1.031,-0.707 0.52,1.136 c -115.91,52.711 -176.223,110.922 -176.114,168.27 -0.003,30.762 17.2,61.691 52.883,91.984 35.676,30.278 89.766,59.809 163.117,87.656 v 0 c 133.45,50.457 275.219,64.493 391.543,64.489 72.704,0 135.469,-5.481 180.047,-10.957 22.293,-2.739 40.035,-5.481 52.203,-7.532 12.168,-2.054 18.731,-3.418 18.747,-3.418 l 0.253,1.223 -1.234,0.199 -22.355,-138.652 0.664,-1.312 1.453,0.23 c 0.054,0.055 50.919,50.891 108.599,147.254 l -1.07,0.641 -0.07,-1.247 c 211.19,-11.707 366.67,-40.847 469.23,-80.675 102.63,-39.848 151.98,-90.274 151.92,-144.153 0,-25.152 -10.69,-51.289 -31.98,-77.758 l 0.98,-0.789 -0.2,1.239 c -27.51,-4.309 -54.95,-9.129 -82.55,-12.102 -34.92,-3.797 -73.05,1.524 -106.89,-11.738 h 0.01 l 0.45,-1.168"
         style="fill:#27813a;fill-opacity:1;fill-rule:nonzero;stroke:none"
         id="path20" /><path
         d="m 927.137,90.5 c -0.008,0 -0.012,0 -0.024,0 -82.535,0 -148.457,7.2695 -187.105,14.621 -110.453,21.168 -99.637,4.91 -342.379,100.098 30.199,18.761 61.289,36.179 92.867,52.64 v 0 c 1.524,0.743 2.383,2.172 2.352,3.539 -0.063,2.524 -2.196,4.711 -4.961,4.774 l -0.727,-0.063 h -0.008 c -57.492,-9.328 -115.214,-16.89 -173,-24.129 h -0.035 c -1.105,-0.16 -1.988,-0.699 -2.64,-1.351 -115.344,52.609 -175.356,110.672 -175.247,167.879 -0.003,30.762 17.2,61.691 52.883,91.984 35.676,30.278 89.766,59.809 163.117,87.656 v 0 c 47.141,17.825 95.34,31.106 143.075,40.829 2.648,-8.477 5.64,-16.832 8.988,-24.981 -7.957,-1.535 -15.883,-3.09 -23.797,-4.66 -74.078,-14.766 -147.242,-38.32 -208.238,-84.168 -2.621,-1.953 -1.723,-5.996 1.695,-6.035 40.856,-1.02 82.195,-0.328 123.301,-1.996 -4.188,-2.965 -7.867,-6.617 -10.863,-10.805 -41.047,-0.078 -82.914,-1.894 -122.375,-12.434 -29.106,-7.753 -60.278,-25.48 -52.539,-60.207 7.031,-31.699 30.054,-61.3 52.324,-84 23.808,-24.222 56.465,-45.902 91.054,-49.41 5.086,-0.511 10.231,-0.742 15.422,-0.742 29.145,0 59.606,7.223 87.836,11.211 37.617,5.262 75.18,10.93 112.715,16.449 3.582,0.52 7.16,1.039 10.742,1.551 -0.679,-2.23 -1.156,-4.559 -1.402,-6.961 -0.797,-7.5 0.738,-14.898 4.352,-21.379 -59.973,-28.531 -138.657,-67.558 -142.989,-74.488 -6.793,-11.024 2.211,-13.402 12.985,-13.402 8.175,0 17.371,1.371 21.453,1.378 0.164,0 0.32,0 0.484,0 39.289,0 67.11,-35.367 103.949,-46.437 14.325,-4.313 29.996,-6.18 46.016,-6.18 26.191,0 53.293,5 76.852,12.5 38.734,12.399 64.671,43.438 91.679,71.778 23.047,24.132 46.875,47.39 71.235,70.171 -6.836,-10.351 -14.106,-20.441 -20.024,-31.23 -0.523,-0.891 -0.976,-1.82 -1.504,-2.75 -8.238,-13.219 -15.879,-26.75 -21.191,-41.27 -11.695,-24.261 -22.125,-48.941 -30.742,-74.878 -10.352,-31.141 23.007,-38.801 47.461,-40.391 3.16,-0.223 6.312,-0.332 9.464,-0.332 37.817,0 75.247,14.949 111.575,23.383 24.367,5.597 49.447,7.429 74.627,7.429 28.1,0 56.34,-2.281 83.88,-4.16 12.24,-0.84 24.27,-1.332 36.17,-1.332 32.96,0 64.91,3.742 97.54,13.93 41.25,12.91 77.25,37.75 118.6,49.902 36.44,10.778 75.31,15.75 107.4,37.641 14.08,9.59 28.96,28.156 9.94,41.137 -19.32,13.089 -45.57,15.941 -68.16,19.05 -37.07,5.141 -73.54,13.661 -109.72,23.192 -5.98,11.187 -17.61,18.738 -30.75,19.258 27.7,0.722 55.42,1.742 83.09,3.32 7.37,-11.117 20.01,-18.309 34.07,-18.309 1.37,0 2.77,0.071 4.17,0.211 10.82,1.149 20.56,6.41 27.42,14.86 2.23,2.75 4.07,5.73 5.5,8.859 23.02,2.379 45.98,5.23 68.93,8.121 19.22,2.438 38.46,4.879 57.72,7.254 14.19,1.68 28.57,1.785 42.53,5.242 19.75,4.883 32.86,24.582 33.31,44.336 0.44,20.86 -23.89,26.809 -39.73,29.238 -27.63,4.391 -55.37,8.375 -83.2,11.563 0.5,3.047 0.7,6.18 0.57,9.367 28.17,1.621 56.35,2.805 84.59,2.805 0.92,0 1.84,0 2.77,-0.004 2.65,0.051 3.8,2.832 2.77,4.922 -10.33,21.25 -32.23,32.265 -52.93,41.465 -29.63,13 -60.16,23.554 -91.09,33.125 -26.61,8.191 -53.45,15.445 -80.52,21.632 4.92,9.606 9.26,19.629 13.06,29.907 61.53,-12.418 113.61,-27.192 156.46,-43.832 102.63,-39.848 151.98,-90.274 151.92,-144.153 0,-25.035 -10.59,-51.039 -31.67,-77.386 -27.36,-4.293 -54.64,-9.071 -82.08,-12.024 -34.92,-3.797 -73.05,1.524 -106.89,-11.738 -1.97,-0.75 -3.1,-2.52 -3.08,-4.281 -0.02,-1.809 1.16,-3.61 3.19,-4.329 38.89,-14.21 80.24,-19.718 119.82,-29.878 -19.71,-13.922 -42.3,-27.711 -67.72,-41.454 C 1321.36,119.281 1091.35,90.5 927.137,90.5 m -336.59,202.77 c -3.109,5.371 -4.449,11.531 -3.777,17.851 0.312,3.078 1.085,5.988 2.242,8.699 9.445,1.34 18.894,2.66 28.343,3.95 -3.562,-8.34 -6.406,-15.75 -8.222,-21.75 -5.84,-2.731 -12.078,-5.668 -18.586,-8.75 m 65.711,29.832 c 1.531,2.089 3.082,4.238 4.644,6.437 5.594,0.723 11.188,1.422 16.786,2.121 -7.137,-2.808 -14.297,-5.64 -21.43,-8.558 m 645.542,4.527 c -6.64,1.781 -13.26,3.582 -19.88,5.402 -2.91,0.778 -5.81,1.61 -8.7,2.469 -0.2,0.449 -0.41,0.891 -0.61,1.34 1.21,0.301 2.45,0.629 3.76,0.719 1.17,0.14 2.32,0.203 3.46,0.203 8.7,0 16.58,-3.91 21.97,-10.133 m 95.92,8.312 c -10.37,0 -19.76,4.68 -26.03,12.161 1.16,0.07 2.33,0.136 3.5,0.207 1.7,-2.27 3.97,-3.649 7.72,-3.649 0.58,0 1.19,0.031 1.84,0.102 4.69,0.508 9.34,1.976 13.58,4.629 0.3,0.187 0.61,0.39 0.91,0.589 9.29,0.719 18.58,1.551 27.85,2.469 -0.81,-1.347 -1.72,-2.66 -2.73,-3.91 -5.76,-7.07 -13.91,-11.48 -22.99,-12.41 -1.23,-0.129 -2.44,-0.188 -3.65,-0.188 m -124.73,7.797 c -0.05,0.121 -0.11,0.242 -0.17,0.371 1.05,0.02 2.09,0.051 3.13,0.071 -0.09,0 -0.17,-0.008 -0.26,-0.02 -0.92,-0.082 -1.78,-0.23 -2.7,-0.422 m 234.98,116.004 c -6.76,0.742 -13.53,1.438 -20.31,2.074 -0.25,1.625 -0.62,3.227 -1.1,4.786 7.31,0.476 14.63,0.941 21.94,1.378 0.11,-2.804 -0.07,-5.562 -0.53,-8.238 M 453.66,495.555 c -14.453,0.293 -28.898,0.578 -43.355,0.675 -5.067,0.043 -10.149,0.079 -15.25,0.094 4.207,4.504 9.429,8.024 15.254,10.199 10.968,-0.589 21.914,-1.378 32.828,-2.449 3.926,-2.187 7.484,-5.058 10.523,-8.519 m 8.344,0.011 c -1.801,2.594 -3.824,4.977 -6.035,7.122 9.117,-1.086 18.211,-2.387 27.261,-3.954 l -21.226,-3.168"
         style="fill:#8ec025;fill-opacity:1;fill-rule:nonzero;stroke:none"
         id="path22" /><path
         d="m 927.113,89.25 c -82.601,0 -148.593,7.2695 -187.34,14.648 -110.64,21.192 -99.824,4.864 -344.918,101.063 30.899,19.289 62.735,37.16 95.075,54.008 3.383,1.722 1.062,5.941 -2.043,5.941 -0.176,0 -0.356,-0.012 -0.532,-0.039 -57.519,-9.332 -115.257,-16.891 -173.046,-24.133 -1.157,-0.168 -1.938,-0.84 -2.485,-1.636 -240.367,109.386 -243.9021,242.441 39.961,350.214 47.192,17.844 95.383,31.129 143.145,40.86 0.125,-0.403 0.246,-0.797 0.375,-1.199 -47.735,-9.723 -95.934,-23.004 -143.075,-40.829 v 0 C 278.879,560.301 224.789,530.77 189.113,500.492 153.43,470.199 136.227,439.27 136.23,408.508 c -0.109,-57.207 59.903,-115.27 175.247,-167.879 0.652,0.652 1.535,1.191 2.64,1.351 h 0.035 c 57.786,7.239 115.508,14.801 173,24.129 h 0.008 l 0.727,0.063 c 2.765,-0.063 4.898,-2.25 4.961,-4.774 0.031,-1.367 -0.828,-2.796 -2.352,-3.539 v 0 C 458.918,241.398 427.828,223.98 397.629,205.219 640.371,110.031 629.555,126.289 740.008,105.121 778.656,97.7695 844.578,90.5 927.113,90.5 c 0.012,0 0.016,0 0.024,0 164.213,0 394.223,28.781 606.593,142.648 25.42,13.743 48.01,27.532 67.72,41.454 -39.58,10.16 -80.93,15.668 -119.82,29.878 -2.03,0.719 -3.21,2.52 -3.19,4.329 -0.02,1.761 1.11,3.531 3.08,4.281 33.84,13.262 71.97,7.941 106.89,11.738 27.44,2.953 54.72,7.731 82.08,12.024 21.08,26.347 31.67,52.351 31.67,77.386 0.06,53.879 -49.29,104.305 -151.92,144.153 -42.85,16.64 -94.93,31.414 -156.46,43.832 0.15,0.39 0.3,0.789 0.44,1.183 277.52,-56.043 363.44,-160.125 276.94,-267.715 -27.5,-4.3 -54.96,-9.132 -82.62,-12.113 -35.14,-3.777 -73.14,1.473 -106.56,-11.656 -3.11,-1.203 -3.03,-5.141 0.08,-6.274 39.57,-14.457 81.83,-19.898 122.3,-30.507 -20.27,-14.493 -43.63,-28.821 -70.04,-43.09 C 1321.66,118.031 1091.47,89.25 927.113,89.25 m 744.047,246.441 v 0"
         style="fill:#216a32;fill-opacity:1;fill-rule:nonzero;stroke:none"
         id="path24" /><path
         d="m 909.82,168.488 c -12.304,0 -39.132,1.563 -43.05,17.172 -4.75,18.942 -0.293,39.442 5.293,57.75 7.378,24.34 15.195,48.621 22.363,73.059 5.308,18.16 9.586,36.66 17.418,53.941 1.937,4.274 1.39,5.938 -0.332,5.938 -1.391,0 -3.547,-1.082 -5.782,-2.754 -4.199,-3.133 -8.101,-6.59 -12.242,-9.785 -10.961,-8.559 -22.304,-16.918 -32.148,-26.77 -16.449,-16.359 -33.164,-32.43 -49.731,-48.668 -29.8,-29.359 -62.929,-62.66 -102.144,-79.34 -15.488,-6.551 -32.016,-9.109 -48.832,-9.109 -28.32,0 -57.445,7.258 -83.707,14.93 -8.93,2.57 -40.473,10.148 -37.383,23.539 2.73,11.98 20.684,18.187 29.059,23.91 8.558,5.758 17.406,11.179 26.461,16.308 5.07,-3.64 11.023,-5.918 17.41,-6.597 1.25,-0.133 2.515,-0.172 3.804,-0.172 18.633,0 34.203,13.961 36.133,32.449 0.086,0.77 0.141,1.539 0.172,2.32 10.461,4.411 20.973,8.551 31.449,12.45 24.922,9.269 49.043,20.3 73.989,29.531 15.957,5.859 33.574,9.531 49.648,15.824 -5.273,-0.184 -11.059,-1.047 -14.809,-1.094 -12.246,-0.136 -24.492,-0.39 -36.718,-0.492 -1.379,-0.008 -2.762,-0.008 -4.145,-0.008 -8.683,0 -17.359,0.192 -26.035,0.383 -8.668,0.195 -17.336,0.391 -26,0.391 -4.039,0 -8.078,-0.043 -12.117,-0.149 -1.457,-0.035 -2.914,-0.074 -4.367,-0.117 26.996,42.418 54.777,92.274 71.882,123.824 42.02,-28.382 90.289,-46.199 140.293,-54.132 0.055,-11.954 0.411,-23.868 2.481,-35.579 0.414,-2.253 -0.567,-4.543 -0.235,-6.757 0.379,-2.598 1.516,-3.555 3,-3.555 3.817,0 9.942,6.332 11.415,7.414 8.988,6.523 17.23,14.234 26.195,20.887 5.726,4.261 11.328,8.5 16.808,12.777 0.625,-0.004 1.258,-0.004 1.879,-0.004 65.775,0 131.765,16.207 188.015,50.094 14.5,-26.52 34.66,-62.438 55.35,-96.176 -10.53,-0.305 -21.02,-0.941 -31.57,-2.18 -5.74,-0.632 -11.5,-1.269 -17.31,-1.503 7.52,-3.602 15.04,-7.352 22.37,-11.68 22.46,-13.457 43.42,-28.52 64.78,-43.617 0.46,-0.321 0.91,-0.641 1.36,-0.961 1.36,-1.84 2.71,-3.629 4.03,-5.371 -1.07,-4.11 -1.32,-8.25 -0.89,-12.52 1.95,-18.488 17.48,-32.449 36.15,-32.449 1.23,0 2.54,0.039 3.77,0.172 8.85,0.937 16.89,4.949 22.84,11.367 11.16,-4.91 30.87,-12.039 32.63,-24.809 0.33,-1.808 -1.86,-4.101 -3.29,-4.832 -29.68,-15.347 -54.18,-46.867 -87.65,-54.988 -10.56,-2.57 -21.06,-3.559 -31.54,-3.559 -27.53,0 -54.83,6.848 -82.31,9.911 -3.89,0.418 -7.75,0.617 -11.59,0.617 -35.15,0 -68.54,-16.309 -102.98,-22.848 -34.942,-6.543 -73.239,-14.34 -108.938,-14.383 -0.199,0 -0.395,0 -0.602,0 m 369.43,109.903 c -15.08,0 -27.78,11.55 -29.34,26.609 -0.33,3.09 -0.14,6.16 0.49,9.16 13.82,-17.488 25.69,-28.691 33.44,-28.691 1.26,0 2.41,0.301 3.45,0.922 1.29,0.757 1.75,2.699 1.53,5.609 3.6,-1.922 7.24,-3.801 10.93,-5.621 -4.69,-4.359 -10.66,-7.09 -17.17,-7.809 -1.12,-0.121 -2.23,-0.179 -3.33,-0.179 m -662.879,0.007 c -1.062,0 -2.137,0.063 -3.219,0.172 -4.117,0.461 -8.019,1.719 -11.511,3.692 2.414,1.316 4.839,2.609 7.281,3.886 0.918,-0.457 1.926,-0.679 3.012,-0.679 4.644,0 10.765,4.031 17.91,11.031 5.242,2.461 10.515,4.828 15.812,7.141 -2.191,-14.43 -14.672,-25.243 -29.285,-25.243 m -185.812,52.411 c -3.18,0 -6.313,0.16 -9.36,0.519 -36.289,4.231 -69.586,10.242 -93.765,40.149 -13.735,16.953 -32.012,45.156 -17.09,66.101 13.125,18.41 43.75,22.024 64.004,25.93 1.215,0.23 2.429,0.457 3.648,0.683 2.32,-21.211 19.231,-38.714 41.289,-41.046 1.625,-0.168 3.242,-0.254 4.848,-0.254 15.09,0 29.105,7.394 37.808,19.902 l 119.004,29.742 c 1.508,-0.219 3.012,-0.453 4.516,-0.699 5.598,-0.887 11.137,-1.813 16.648,-2.906 l -93.371,-57.758 c -3.394,1.262 -6.441,2.043 -9.511,2.336 -1.547,0.172 -3.079,0.258 -4.598,0.258 -20.672,0 -38.078,-15.789 -40.227,-36.559 -1.726,-17.078 7.364,-32.828 21.692,-40.355 -0.739,-0.141 -1.477,-0.274 -2.215,-0.403 -13.5,-2.418 -28.945,-5.64 -43.32,-5.64 m 58.855,8.48 c -17.648,2.902 -30.234,19.16 -28.387,37.246 1.762,17.34 15.871,30.586 33.532,30.586 1.316,0 2.656,-0.074 4.004,-0.226 2.21,-0.227 4.48,-0.731 6.996,-1.61 l -18.672,-11.543 c -9.36,-15.129 -4.59,-34.98 10.484,-44.351 4.34,-2.653 8.969,-4.121 13.637,-4.629 0.648,-0.071 1.258,-0.102 1.836,-0.102 0.445,0 0.871,0.02 1.273,0.051 -0.613,-0.422 -1.238,-0.82 -1.879,-1.199 -7.609,-1.391 -15.215,-2.813 -22.824,-4.223 m 35.813,6.551 c 4.625,5.199 7.961,11.64 9.453,18.859 l 149.961,96.59 C 673.25,441.066 649.43,398.098 630.645,360.121 c -29.266,-2.621 -58.411,-6.531 -87.493,-11.25 -5.984,-0.973 -11.957,-1.98 -17.925,-3.031 m -0.848,10.082 c 0.773,1.867 1.617,3.887 2.68,5.957 -0.711,-2.09 -1.614,-4.09 -2.68,-5.957 m 888.771,15.262 c 1.35,7.523 0.03,15.546 -4.32,22.558 l -16.11,9.965 c 0.52,0.09 1.04,0.156 1.58,0.191 1.3,0.145 2.59,0.215 3.87,0.215 16.4,0 30.25,-11.773 33.25,-27.781 -3.83,-1.258 -7.7,-2.437 -11.59,-3.519 -2.22,-0.622 -4.45,-1.165 -6.68,-1.629 m -63.75,1.062 c -6.96,1.07 -13.92,2.258 -20.86,3.359 -24.58,3.879 -49.5,5.524 -74.43,6.254 -16.28,31.582 -33.73,63 -42.99,79.43 l 138.28,-89.043 m 88.31,6.238 c -3.98,18.735 -20.75,32.282 -39.94,32.282 -1.37,0 -2.75,-0.071 -4.13,-0.207 -1.41,-0.188 -2.76,-0.43 -4.32,-0.813 l -55.33,34.227 c 1.69,0.004 3.38,0.007 5.07,0.007 30.11,0 60.12,-1.132 90.22,-1.785 8.41,-13.793 23.18,-22.203 39.44,-22.203 1.62,0 3.2,0.098 4.82,0.274 13.37,1.367 24.85,8.339 32.34,18.351 6.82,-0.855 13.27,-2.375 17.33,-5.512 11.79,-9.199 -21.62,-26.21 -26.04,-28.359 -19.39,-9.613 -39.03,-19.023 -59.46,-26.262 m 31.01,48.118 c -12.27,0 -23.87,5.906 -31.3,15.488 4.27,-0.031 8.54,-0.035 12.8,-0.063 3.95,-1.105 12.09,-2.824 19.69,-2.824 3.77,0 7.41,0.422 10.33,1.555 1.09,-0.11 2.19,-0.227 3.28,-0.356 3.89,-0.468 9.03,-0.66 14.42,-1.039 -6.33,-6.859 -15.08,-11.519 -25.06,-12.535 -1.41,-0.176 -2.78,-0.226 -4.16,-0.226 m -1044.407,2.882 c -1.43,0 -2.872,0.082 -4.325,0.243 -19.09,1.964 -33.636,17.253 -35.453,35.636 8.531,1.489 17.09,2.809 25.672,3.965 -2.922,-7.066 -3.336,-15.199 -0.59,-22.988 1.914,-5.488 8.813,-7.137 16.238,-7.137 9.043,0 18.875,2.442 21.461,3.375 l 7.664,1.914 c -7.472,-9.398 -18.632,-15.008 -30.667,-15.008 m 899.587,20.723 -48.6,30.059 c 1.34,0.363 2.67,0.746 4,1.144 l 89.13,-22.277 c -12.73,-2.789 -25.51,-5.367 -38.27,-7.695 -2.07,-0.383 -4.16,-0.801 -6.26,-1.231 m -714.607,23.168 c -2.645,1.473 -5.316,2.879 -7.961,4.258 l 24.906,6.226 -16.945,-10.484 m 859.037,13.27 c -0.6,0.253 -1.21,0.488 -1.84,0.707 l -28.25,4.211 c 6.7,8.136 16.01,13.156 26.39,14.199 1.51,0.172 3,0.254 4.48,0.254 11.03,0 21.1,-4.618 28.3,-12.102 -7.41,-1.055 -14.61,-2.965 -21.88,-5.074 -2.4,-0.723 -4.8,-1.453 -7.2,-2.195 m 37.11,8.089 c -8.54,10.985 -21.87,17.918 -36.72,17.918 -1.58,0 -3.18,-0.078 -4.79,-0.242 -12.17,-1.277 -23.07,-7.176 -30.88,-16.707 l -99.97,14.91 c 11.45,9.61 21.91,21.098 31.27,34.407 7.73,-0.997 15.45,-2.145 23.12,-3.641 23.28,-4.504 45.68,-10.051 68.37,-17.016 17.8,-5.457 38.62,-7.957 55.28,-16.472 4.28,-2.129 9.39,-6.094 3.81,-10.243 -2.74,-2.085 -6.13,-2.613 -9.49,-2.914 m -962.631,12.899 c -3.563,1.406 -7.2,2.711 -10.922,3.89 -20.664,6.575 -42.129,8.653 -63.11,13.985 -14.019,3.515 -33.218,4.785 -45.562,12.324 -1.195,0.793 0.332,3.223 0.855,3.879 11.758,14.473 38.36,19.715 55.489,24.07 12.777,3.188 25.531,6.614 38.324,9.949 2.316,-4.144 4.754,-8.207 7.301,-12.164 13.796,-21.425 30.242,-38.586 48.937,-51.257 l -31.312,-4.676"
         style="fill:#cee63c;fill-opacity:1;fill-rule:nonzero;stroke:none"
         id="path26" /><path
         d="m 354.262,86.7891 c -0.082,0 -0.168,0.0117 -0.246,0.0312 C 256.824,107.48 144.402,145.371 69.3438,213.34 35.6563,243.809 11.3203,280.078 1.67188,324.871 c -7.58204,35.43 12.16402,69.758 27.85152,99.942 0.1836,0.285 1.5625,1.542 2.2344,1.542 0.25,0 0.4024,-0.171 0.3633,-0.632 -0.1172,-1.203 -0.1758,-2.403 -0.293,-3.692 -0.0312,-0.582 -1.2929,-2.23 -1.9609,-2.23 -0.1914,0 -0.3359,0.137 -0.3867,0.48 0.8398,-6.804 -7.1094,-18.484 -9.2735,-24.715 -6.8359,-19.246 -11.62497,-38.316 -6.4297,-58.804 3.2813,-12.953 7.2266,-28.672 14.2969,-40.192 23.8321,-38.859 50.6289,-69.5 88.9648,-94.629 75.625,-49.632 156.25,-78 240.606,-108.9097 2.523,-0.9102 -1.153,-6.2422 -3.383,-6.2422"
         style="fill:#ffffff;fill-opacity:1;fill-rule:nonzero;stroke:none"
         id="path28" /><path
         d="m 1599.2,80.3789 c -1.93,0 0.9,5.3594 2.5,6.2617 77.21,44.2814 168.13,85.3904 225.67,155.7814 36.29,44.308 52.91,92.699 40.33,149.441 -9.34,42.289 -26.88,63.567 -61,89.446 -1.18,0.906 1.12,4.027 2.61,4.027 0.15,0 0.29,-0.031 0.42,-0.102 48.58,-23.906 76.51,-62.214 76.15,-118.386 -0.33,-41.047 -12.89,-79.668 -37.81,-112.508 -62.03,-81.801 -158.51,-127.789 -247.73,-173.6017 -0.49,-0.25 -0.87,-0.3594 -1.14,-0.3594"
         style="fill:#ffffff;fill-opacity:1;fill-rule:nonzero;stroke:none"
         id="path30" /><path
         d="m 1165.87,0 c -2.25,0 1.07,5.37891 2.87,5.87891 191.15,49.58199 393.32,100.72309 564.37,203.10909 0.38,0.242 0.66,0.352 0.87,0.352 1.22,0 -0.41,-3.738 -1.4,-4.418 C 1648.79,144.602 1554.01,109.43 1458.29,73.4219 1407.9,54.3594 1353.93,30.9883 1300.4,23.1992 1255.14,16.7109 1211.12,9.16016 1166.31,0.0585938 1166.14,0.0195313 1166,0 1165.87,0"
         style="fill:#ffffff;fill-opacity:1;fill-rule:nonzero;stroke:none"
         id="path32" /><path
         d="M 769.227,520.145 650.066,699.453 c 1.821,17.891 -11.035,33.633 -28.804,35.508 -17.676,1.809 -33.535,-11.016 -35.395,-28.699 L 637.043,518.313 429.266,487.352 c -16.817,-5.887 -25.567,-24.247 -19.649,-41.012 4.242,-12.168 32.988,-5.461 37.699,-3.762 l 198.805,49.621 -159.234,-98.457 c -9.36,-15.129 -4.59,-34.98 10.484,-44.351 4.34,-2.653 8.969,-4.121 13.637,-4.629 11.914,-1.231 10.996,9.117 17.672,20.023 l 165.468,106.61 c 0,0 -100.996,-175.946 -85.664,-185.004 30.063,-17.922 160.743,233.754 160.743,233.754"
         style="fill:#2b9041;fill-opacity:1;fill-rule:nonzero;stroke:none"
         id="path34" /><path
         d="m 466.863,464.785 c -2.398,-23.672 -23.609,-40.84 -47.246,-38.379 -23.648,2.5 -40.816,23.703 -38.355,47.293 2.476,23.684 23.609,40.754 47.301,38.403 23.632,-2.551 40.863,-23.723 38.3,-47.317"
         style="fill:#30ad4f;fill-opacity:1;fill-rule:nonzero;stroke:none"
         id="path36" /><path
         d="m 532.18,369.102 c -2.114,-20.563 -20.532,-35.493 -41.157,-33.34 -20.449,2.109 -35.425,20.578 -33.32,41.113 2.133,20.488 20.59,35.559 41.152,33.301 20.571,-2.012 35.469,-20.586 33.325,-41.074"
         style="fill:#30ad4f;fill-opacity:1;fill-rule:nonzero;stroke:none"
         id="path38" /><path
         d="m 649.109,304.648 c -1.914,-18.117 -18.125,-31.218 -36.289,-29.32 -18.101,1.852 -31.25,18.024 -29.375,36.133 1.875,18.199 18.149,31.309 36.289,29.418 18.047,-1.859 31.274,-18.141 29.375,-36.231"
         style="fill:#30ad4f;fill-opacity:1;fill-rule:nonzero;stroke:none"
         id="path40" /><path
         d="m 616.277,337.75 c -15.254,0 -27.949,-11.43 -29.507,-26.629 -0.84,-7.902 1.464,-15.551 6.445,-21.73 4.961,-6.11 12.051,-9.95 19.937,-10.821 16.426,-1.769 30.981,10.27 32.676,26.43 0.371,3.859 0.039,7.789 -1.07,11.57 -0.332,1.008 -0.102,2.071 0.523,2.93 45.688,59.387 111.621,184.289 120.078,200.449 l -118.062,177.668 -0.512,2.188 c 1.602,15.898 -9.976,30.175 -25.855,31.886 -15.742,1.61 -29.77,-9.738 -31.664,-25.187 l 50.961,-187.266 c 0.25,-0.965 0.132,-1.941 -0.411,-2.722 -0.531,-0.774 -1.332,-1.313 -2.265,-1.489 L 460.906,488.738 c -1.328,-0.183 -2.597,0.422 -3.277,1.504 -6.645,10.539 -17.348,17.285 -29.438,18.559 -21.773,2.285 -41.367,-13.77 -43.628,-35.41 -2.266,-21.782 13.613,-41.418 35.425,-43.664 14.907,-1.661 29.004,5.371 37.168,17.773 l 1.953,1.406 186.211,46.485 c 1.528,0.468 3.207,-0.403 3.828,-1.883 0.649,-1.485 0.082,-3.266 -1.304,-4.153 L 510.813,404.629 c -0.879,-0.488 -1.997,-0.645 -2.993,-0.203 -3.457,1.426 -6.402,2.176 -9.257,2.469 -19.493,2.175 -35.641,-11.727 -37.536,-30.36 -1.918,-18.765 11.696,-35.555 30.391,-37.515 18.125,-2 34.02,10.64 37.012,28.285 l 1.465,2.226 162.476,104.61 c 1.25,0.851 2.934,0.675 4.047,-0.391 1.09,-1.074 1.363,-2.734 0.586,-4.043 -0.434,-0.754 -44.262,-77.246 -69.399,-131.219 -0.679,-1.468 -2.285,-2.179 -3.843,-1.84 -1.567,0.411 -2.934,0.813 -4.36,0.911 -1.074,0.16 -2.105,0.191 -3.125,0.191 m 0,-65.91 c -1.289,0 -2.554,0.039 -3.804,0.172 -9.653,1.027 -18.301,5.707 -24.438,13.199 -6.094,7.551 -8.883,16.98 -7.867,26.578 2.051,19.832 19.566,34.512 39.883,32.371 0.918,-0.082 1.812,-0.23 2.676,-0.422 19.414,41.203 48.843,94.348 61.914,117.551 L 534.68,364.699 c -4.184,-20.23 -22.832,-34.371 -43.95,-32.289 -22.3,2.36 -38.589,22.43 -36.328,44.797 2.309,22.297 22.192,38.848 44.825,36.301 3.07,-0.293 6.117,-1.074 9.511,-2.336 l 117.5,72.687 -164.297,-41.066 c -9.625,-13.84 -25.757,-21.414 -42.656,-19.648 -25.406,2.683 -43.98,25.5 -41.308,50.918 2.621,25.273 24.945,43.898 50.902,41.367 13.418,-1.438 25.348,-8.653 33.125,-19.864 l 170.879,25.52 -50.215,184.285 -0.098,1.211 c 2.008,19.363 19.254,33.606 39.024,31.641 19.121,-1.942 33.179,-18.868 31.89,-37.91 L 771.98,521.992 c 0.665,-1.035 0.747,-2.304 0.176,-3.367 -0.738,-1.379 -71.621,-137.609 -120.601,-201.816 0.996,-4.11 1.304,-8.321 0.855,-12.52 -1.93,-18.488 -17.5,-32.449 -36.133,-32.449"
         style="fill:#337c3c;fill-opacity:1;fill-rule:nonzero;stroke:none"
         id="path42" /><path
         d="m 626.301,746.211 c 0,0 -90.473,176.152 -129.028,91.047 -38.574,-84.992 -14.8,-350.293 167.54,-347.863 49.906,0.734 54.765,108.214 -38.512,256.816"
         style="fill:#58ae3e;fill-opacity:1;fill-rule:nonzero;stroke:none"
         id="path44" /><path
         d="m 626.301,746.211 c 0,0 -90.473,176.152 -129.028,91.047 -38.574,-84.992 -14.8,-350.293 167.54,-347.863 49.906,0.734 54.765,108.214 -38.512,256.816"
         style="fill:#58ae3e;fill-opacity:1;fill-rule:nonzero;stroke:none"
         id="path46" /><path
         d="m 524.656,857.168 c -9.922,0 -17.871,-6.965 -24.375,-21.258 -24.043,-53.027 -24.121,-183.996 30.473,-268.75 31.812,-49.387 76.07,-74.426 131.582,-74.426 h 2.422 c 10.508,0.176 18.648,5.418 24.219,15.664 18.472,34.043 5.859,122.422 -65.469,236.114 -0.742,1.386 -58.379,112.656 -98.852,112.656 m 137.68,-371.094 c -57.07,0 -104.516,26.809 -137.152,77.492 -55.782,86.59 -55.567,220.743 -30.914,275.067 7.539,16.699 17.789,25.144 30.386,25.144 44.477,0 102.153,-111.238 104.59,-116.011 73.012,-116.321 85.567,-205.637 65.551,-242.493 -6.699,-12.363 -17.055,-18.984 -29.942,-19.199 h -2.519"
         style="fill:#337c3c;fill-opacity:1;fill-rule:nonzero;stroke:none"
         id="path48" /><path
         d="m 694.34,523.426 c -35.051,32.672 -63.332,71.387 -81.93,119.105 -18.379,47.235 -30.508,104.871 -29.644,155.504 0.05,3.781 0.218,7.567 0.441,11.367 13.262,-17.976 24.801,-37.148 32.098,-49.953 3.945,-94.375 34.695,-167.265 81.093,-220.344 -0.32,-5.722 -1.011,-10.957 -2.058,-15.679"
         style="fill:#387f34;fill-opacity:1;fill-rule:nonzero;stroke:none"
         id="path50" /><path
         d="m 697.102,520.879 c -0.926,0.844 -1.844,1.691 -2.762,2.547 1.047,4.722 1.738,9.957 2.058,15.679 1.02,-1.164 2.059,-2.335 3.09,-3.48 -0.461,-5.34 -1.265,-10.266 -2.386,-14.746 m -81.797,238.57 c -7.297,12.805 -18.836,31.977 -32.098,49.953 0.098,1.664 0.207,3.328 0.316,4.993 12.614,-16.692 23.782,-34.665 31.54,-47.965 0.066,-2.34 0.144,-4.668 0.242,-6.981"
         style="fill:#245929;fill-opacity:1;fill-rule:nonzero;stroke:none"
         id="path52" /><path
         d="m 1126.55,520.145 119.24,179.308 c -1.98,17.891 10.93,33.633 28.67,35.508 17.75,1.809 33.59,-11.016 35.45,-28.699 l -51.23,-187.949 207.81,-30.961 c 16.82,-5.887 25.59,-24.247 19.71,-41.012 -4.28,-12.168 -33.07,-5.461 -37.76,-3.762 l -198.77,49.621 159.16,-98.457 c 9.38,-15.129 4.67,-34.98 -10.5,-44.351 -4.24,-2.653 -8.89,-4.121 -13.58,-4.629 -11.91,-1.231 -10.94,9.117 -17.64,20.023 l -165.48,106.61 c 0,0 100.99,-175.946 85.66,-185.004 -30.12,-17.922 -160.74,233.754 -160.74,233.754"
         style="fill:#2b9041;fill-opacity:1;fill-rule:nonzero;stroke:none"
         id="path54" /><path
         d="m 1425.94,461.816 c 2.46,-23.593 23.64,-40.75 47.29,-38.269 23.67,2.422 40.8,23.582 38.42,47.254 -2.54,23.613 -23.73,40.781 -47.39,38.293 -23.63,-2.453 -40.78,-23.574 -38.32,-47.278"
         style="fill:#30ad4f;fill-opacity:1;fill-rule:nonzero;stroke:none"
         id="path56" /><path
         d="m 1360.61,366.211 c 2.17,-20.621 20.59,-35.531 41.11,-33.359 20.57,2.128 35.49,20.527 33.36,41.015 -2.15,20.676 -20.52,35.625 -41.09,33.36 -20.59,-2.039 -35.49,-20.45 -33.38,-41.016"
         style="fill:#30ad4f;fill-opacity:1;fill-rule:nonzero;stroke:none"
         id="path58" /><path
         d="m 1246.65,304.648 c 1.87,-18.117 18.16,-31.218 36.25,-29.32 18.12,1.852 31.3,18.024 29.35,36.133 -1.91,18.199 -18.07,31.309 -36.23,29.418 -18.1,-1.859 -31.27,-18.141 -29.37,-36.231"
         style="fill:#30ad4f;fill-opacity:1;fill-rule:nonzero;stroke:none"
         id="path60" /><path
         d="m 1130.38,519.949 c 8.51,-16.16 74.41,-141.043 120.09,-200.449 0.65,-0.859 0.86,-1.941 0.53,-2.969 -1.09,-3.742 -1.5,-7.609 -1.09,-11.531 1.68,-16.16 16.17,-28.281 32.67,-26.43 7.89,0.871 15,4.711 19.98,10.821 4.98,6.179 7.23,13.828 6.39,21.73 -1.72,16.188 -16.11,28.391 -32.58,26.438 -1.46,-0.098 -2.83,-0.5 -4.18,-0.821 -1.62,-0.429 -3.36,0.282 -4.02,1.75 -25.14,53.973 -69,130.465 -69.42,131.219 -0.78,1.309 -0.56,2.969 0.57,4.043 1.09,1.066 2.81,1.242 4.08,0.391 l 158.99,-102.356 c 0.9,-0.613 1.48,-1.637 1.52,-2.722 v -1.329 -1.242 c 1.93,-18.613 18.52,-32.351 37.46,-30.363 9.08,0.93 17.23,5.34 22.99,12.41 5.72,7.109 8.38,15.953 7.46,25.008 -1.95,18.687 -18.51,32.476 -37.52,30.351 -1.48,-0.089 -2.87,-0.441 -4.26,-0.839 l -3,0.3 -139.12,85.996 c -1.37,0.887 -1.92,2.668 -1.33,4.153 0.64,1.48 2.28,2.351 3.88,1.883 l 180.71,-45.125 c 0.91,-0.207 1.72,-0.821 2.16,-1.711 6.68,-13.321 20.55,-21.953 35.38,-21.953 1.38,0 2.75,0.05 4.16,0.226 21.77,2.215 37.67,21.766 35.45,43.66 -2.29,21.614 -21.65,37.754 -43.7,35.274 -10.97,-1.106 -20.76,-6.653 -27.52,-15.633 -0.74,-0.969 -1.93,-1.445 -3.12,-1.289 l -175.74,26.187 c -1,0.176 -1.84,0.715 -2.33,1.489 -0.51,0.781 -0.66,1.757 -0.41,2.722 l 51.02,187.266 c -1.94,15.449 -15.74,26.894 -31.76,25.187 -7.68,-0.863 -14.63,-4.601 -19.51,-10.617 -4.83,-5.996 -7.05,-13.523 -6.23,-21.269 l -0.53,-2.188 -118.12,-177.668 m 149.1,-248.109 c -18.67,0 -34.2,13.961 -36.15,32.449 -0.43,4.27 -0.18,8.41 0.89,12.52 -49,64.207 -119.9,200.437 -120.62,201.816 -0.53,1.063 -0.47,2.332 0.21,3.367 l 118.56,178.321 c -0.7,9.089 2.05,17.871 7.75,24.921 6,7.371 14.51,12.043 23.99,12.989 20.13,1.965 37.05,-12.278 39.08,-31.641 l -0.1,-1.211 -50.21,-184.285 170.17,-25.383 c 7.81,9.531 18.71,15.43 30.88,16.707 25.84,2.582 48.28,-15.957 51,-41.238 2.57,-25.469 -15.98,-48.313 -41.39,-50.906 -1.62,-0.176 -3.2,-0.274 -4.82,-0.274 -17.04,0 -32.45,9.235 -40.61,24.227 l -158.61,39.64 119.82,-74.113 c 1.56,0.383 2.91,0.625 4.32,0.813 22.32,2.254 42.42,-14.043 44.74,-36.332 1.16,-10.797 -2.01,-21.368 -8.88,-29.836 -6.86,-8.45 -16.6,-13.711 -27.42,-14.86 -22.51,-2.261 -42.43,14.071 -44.77,36.27 l -0.04,1.379 -146.15,94.109 c 13.08,-23.203 42.5,-76.309 61.87,-117.551 0.92,0.192 1.78,0.34 2.7,0.422 19.98,1.949 37.79,-12.539 39.86,-32.371 1.02,-9.598 -1.78,-19.027 -7.87,-26.578 -6.07,-7.492 -14.76,-12.172 -24.43,-13.199 -1.23,-0.133 -2.54,-0.172 -3.77,-0.172"
         style="fill:#337c3c;fill-opacity:1;fill-rule:nonzero;stroke:none"
         id="path62" /><path
         d="m 1268.11,734.766 c 0,0 90.35,176.027 128.89,91.054 38.57,-84.953 14.8,-350.332 -167.46,-347.82 -49.93,0.633 -54.85,108.074 38.57,256.766"
         style="fill:#58ae3e;fill-opacity:1;fill-rule:nonzero;stroke:none"
         id="path64" /><path
         d="m 1369.73,845.684 c -40.53,0 -98.12,-111.356 -98.73,-112.461 -71.52,-113.926 -84.14,-202.317 -65.62,-236.289 5.58,-10.235 13.71,-15.469 24.21,-15.606 l 2.49,-0.051 c 55.46,0 99.66,25.043 131.46,74.375 54.59,84.77 54.53,215.793 30.47,268.793 -6.51,14.317 -14.42,21.239 -24.28,21.239 M 1232.08,474.68 h -2.58 c -12.85,0.175 -23.25,6.785 -29.94,19.109 -20.08,36.77 -7.52,126.121 65.72,242.715 2.28,4.453 59.94,115.84 104.45,115.84 12.54,0 22.74,-8.504 30.29,-25.117 24.67,-54.383 24.87,-188.555 -30.91,-275.137 -32.64,-50.652 -80,-77.41 -137.03,-77.41"
         style="fill:#337c3c;fill-opacity:1;fill-rule:nonzero;stroke:none"
         id="path66" /><path
         d="m 1200.74,508.871 c -0.83,3.121 -1.5,6.492 -1.99,10.106 60.72,57.664 100.86,143.816 100.86,261.336 0,0.359 0,0.707 0,1.066 3.89,5.844 8.04,11.805 12.36,17.625 13.7,-73.621 0.46,-150.691 -41.26,-214.348 -16.43,-25.105 -40.59,-46.297 -61.82,-67.41 -2.39,-2.402 -5.13,-5.273 -8.15,-8.375"
         style="fill:#387f34;fill-opacity:1;fill-rule:nonzero;stroke:none"
         id="path68" /><path
         d="m 1198.23,506.301 c -0.94,3.105 -1.71,6.453 -2.3,10.027 0.94,0.875 1.88,1.758 2.82,2.649 0.49,-3.614 1.16,-6.985 1.99,-10.106 -0.81,-0.84 -1.65,-1.699 -2.51,-2.57 m 101.38,275.078 c 0,1.941 -0.02,3.898 -0.04,5.848 3.66,5.375 7.54,10.808 11.57,16.101 0.29,-1.437 0.57,-2.879 0.83,-4.324 -4.32,-5.82 -8.47,-11.781 -12.36,-17.625"
         style="fill:#245929;fill-opacity:1;fill-rule:nonzero;stroke:none"
         id="path70" /><path
         d="m 1296.33,780.313 c 0,-223.926 -151.85,-348.79 -339.135,-348.79 -187.222,0 -339.019,124.864 -339.019,348.79 0,224.067 147.515,494.197 334.707,494.197 187.257,0 343.447,-270.13 343.447,-494.197"
         style="fill:#80cc29;fill-opacity:1;fill-rule:nonzero;stroke:none"
         id="path72" /><path
         d="m 952.883,1271.26 c -183.559,0 -331.367,-268.58 -331.367,-490.947 0,-206.661 134.902,-345.547 335.679,-345.547 200.835,0 335.815,138.886 335.815,345.547 0,109.511 -37.75,232.607 -100.94,329.327 -67.12,102.72 -154.27,161.62 -239.187,161.62 m 4.312,-843.057 c -170.386,0 -342.324,108.875 -342.324,352.11 0,225.327 150.781,497.557 338.012,497.557 87.177,0 176.357,-59.98 244.737,-164.62 63.89,-97.71 101.99,-222.195 101.99,-332.937 0,-243.235 -171.97,-352.11 -342.415,-352.11"
         style="fill:#337c3c;fill-opacity:1;fill-rule:nonzero;stroke:none"
         id="path74" /><path
         d="m 952.969,876.969 c -13.934,0 -27.864,0.679 -41.653,1.879 -46.074,3.867 -84.238,22.297 -124.628,43.515 -29.204,15.391 -62.387,32.805 -96.329,32.805 -1.468,0 -2.941,-0.031 -4.414,-0.102 -15.113,-0.73 -28.906,-5.832 -41.215,-13.765 48.528,173.169 167.907,329.959 308.153,329.959 84.917,0 172.067,-58.9 239.187,-161.62 33.16,-50.75 59.31,-108.77 76.68,-168.273 -3.96,2.41 -8.02,4.699 -12.2,6.809 -12.58,6.109 -26.02,8.734 -39.55,8.734 -18.09,0 -36.34,-4.691 -52.93,-12.027 -40.12,-17.539 -75.22,-43.192 -117.76,-55.606 -30.19,-8.824 -61.794,-12.308 -93.341,-12.308"
         style="fill:#4e9934;fill-opacity:1;fill-rule:nonzero;stroke:none"
         id="path76" /><path
         d="m 640.305,938.281 c 47.808,176.059 168.418,336.229 312.578,336.229 144.117,0 269.697,-160 320.027,-335.74 -1.37,0.878 -2.76,1.746 -4.16,2.597 -17.37,59.503 -43.52,117.523 -76.68,168.273 -67.12,102.72 -154.27,161.62 -239.187,161.62 -140.246,0 -259.625,-156.79 -308.153,-329.959 -1.5,-0.965 -2.972,-1.973 -4.425,-3.02"
         style="fill:#245929;fill-opacity:1;fill-rule:nonzero;stroke:none"
         id="path78" /><path
         d="m 1161.82,616.25 c 0,-108.602 -91.58,-169.16 -204.625,-169.16 -112.984,0 -204.59,60.558 -204.59,169.16 0,108.723 89.043,239.68 202.036,239.68 112.999,0 207.179,-130.957 207.179,-239.68"
         style="fill:#f9f589;fill-opacity:1;fill-rule:nonzero;stroke:none"
         id="path80" /><path
         d="m 712.355,291.648 c 4.958,-7.089 11.856,-13.328 19.43,-18.488 L 811.77,390.109 769.465,257.16 c 11.773,-2.219 23.941,-2.441 36.031,-1.949 l -0.254,1.348 39.903,133.55 c 0,0 17.851,-105.55 31.875,-127.531 8.402,1.801 16.566,4.152 24.32,7.352 -11.035,61.511 -44.945,175.121 -44.945,175.121 l -54.747,-5.293 -92.046,-143.797 c 0.894,-1.473 1.777,-2.859 2.753,-4.313"
         style="fill:#58ae3e;fill-opacity:1;fill-rule:nonzero;stroke:none"
         id="path82" /><path
         d="m 742.219,312.559 c 11.929,-13.059 10.996,-33.25 -2.031,-45.118 -13.047,-11.882 -33.223,-10.98 -45.122,2.039 -11.89,13.04 -10.918,33.231 2.09,45.149 13.047,11.883 33.164,10.91 45.063,-2.07"
         style="fill:#80cc29;fill-opacity:1;fill-rule:nonzero;stroke:none"
         id="path84" /><path
         d="m 804.543,272.699 c 10.312,-11.328 9.512,-28.988 -1.801,-39.179 -11.304,-10.391 -28.887,-9.571 -39.234,1.769 -10.317,11.223 -9.555,28.832 1.773,39.152 11.313,10.379 28.93,9.539 39.262,-1.742"
         style="fill:#80cc29;fill-opacity:1;fill-rule:nonzero;stroke:none"
         id="path86" /><path
         d="m 898.938,283.012 c 9.097,-9.973 8.417,-25.434 -1.567,-34.532 -9.976,-9.121 -25.43,-8.39 -34.566,1.54 -9.106,10.039 -8.379,25.449 1.597,34.589 9.961,9.129 25.469,8.379 34.536,-1.597"
         style="fill:#80cc29;fill-opacity:1;fill-rule:nonzero;stroke:none"
         id="path88" /><path
         d="m 725.754,929.141 c 0,0 -36.914,-0.489 -38.945,-84.032 -2.012,-83.468 59.683,-367.421 140.195,-434.203 0,0 26.797,-17.476 29.336,23.266 2.598,40.547 -69.746,179.355 -84.809,399.48 0,0 2.832,93.965 -45.777,95.489"
         style="fill:#58ae3e;fill-opacity:1;fill-rule:nonzero;stroke:none"
         id="path90" /><path
         d="m 811.77,392.902 1.226,-0.265 c 1.25,-0.645 1.859,-2.063 1.445,-3.399 L 779.563,279.621 c -0.293,-0.91 -1.016,-1.621 -1.958,-1.851 -4.351,-1.192 -7.75,-2.95 -10.425,-5.36 -4.922,-4.5 -7.793,-10.64 -8.086,-17.332 -0.317,-6.656 1.992,-13.027 6.504,-17.879 8.906,-9.847 25.465,-10.558 35.254,-1.64 8.242,7.453 10.195,19.382 4.878,29.66 l -0.195,2.133 36.938,123.546 c 0.371,1.25 1.445,1.934 2.847,2.004 1.313,-0.089 2.407,-1.039 2.618,-2.355 0.097,-0.613 11.093,-65.195 22.421,-103.176 0.356,-1.18 -0.117,-2.449 -1.129,-3.121 l -1.625,-0.93 -1.304,-0.8 c -8.828,-8.02 -9.453,-21.782 -1.43,-30.61 4.121,-4.469 9.942,-7.039 16.02,-7.039 5.41,0 10.586,2 14.589,5.68 4.254,3.89 6.754,9.219 7.008,14.988 0.278,5.621 -1.66,11.121 -5.425,15.371 l -0.293,0.231 -0.762,1.429 c -11.836,57.852 -37.895,146.739 -41.82,160.008 l -1.329,2.012 c -2.105,14.805 -9.199,37.383 -18.14,65.984 -22.364,71.223 -56.133,178.879 -65.981,322.864 0.024,1.203 2.168,91.496 -43.062,92.921 -0.215,0 -34.121,-1.984 -36.059,-81.32 -1.89,-78.379 48.789,-309.695 114.555,-403.672 0.586,-0.793 0.683,-1.855 0.269,-2.781 l -0.894,-1.074 -75.195,-117.524 c -0.649,-0.968 -1.973,-1.566 -3.032,-1.218 -9.668,2.308 -19.39,0.07 -26.25,-6.25 -11.875,-10.84 -12.73,-29.321 -1.914,-41.149 5.512,-6.012 13.34,-9.473 21.504,-9.473 7.285,0 14.238,2.711 19.61,7.633 7.816,7.09 10.863,17.739 8.207,28.43 l 0.425,2.25 62.539,91.469 z M 784.031,223.41 c -8.57,0 -16.797,3.629 -22.613,9.969 -5.488,6.012 -8.305,13.793 -7.934,21.949 0.356,8.203 3.887,15.711 9.907,21.203 3.027,2.778 6.714,4.84 11.289,6.231 l 28.633,90.004 -51.094,-74.707 c 2.617,-12.309 -1.133,-24.481 -10.141,-32.7 -6.426,-5.847 -14.742,-9.089 -23.418,-9.089 -9.742,0 -19.082,4.128 -25.664,11.308 -12.891,14.141 -11.891,36.141 2.27,49.094 7.769,7.098 18.496,9.969 29.39,7.988 l 73.75,115.203 c -65.761,95.879 -116.304,326.797 -114.414,405.305 2.094,85.262 40.078,86.766 41.723,86.785 50.957,-1.562 48.75,-94.426 48.609,-98.398 9.809,-143.055 43.457,-250.332 65.727,-321.336 8.687,-27.649 15.601,-49.739 18.062,-64.953 l 0.957,-1.407 c 0.317,-0.984 29.399,-98.711 42.27,-161.347 4.723,-5.403 7.09,-12.192 6.773,-19.25 -0.332,-7.274 -3.457,-13.961 -8.867,-18.864 -5,-4.609 -11.543,-7.136 -18.355,-7.136 -7.621,0 -14.985,3.218 -20.176,8.847 -10.117,11.153 -9.297,28.422 1.773,38.532 l 1.836,1.328 c -8.261,28.441 -16.211,69.941 -19.859,89.972 l -33.227,-111.16 c 5.742,-12.222 3.11,-26.609 -6.621,-35.371 -5.64,-5.172 -12.929,-8 -20.586,-8"
         style="fill:#337c3c;fill-opacity:1;fill-rule:nonzero;stroke:none"
         id="path92" /><path
         d="m 1176.82,291.648 c -4.96,-7.089 -11.87,-13.328 -19.45,-18.488 l -79.98,116.949 42.28,-132.949 c -11.81,-2.219 -23.84,-2.441 -35.99,-1.949 l 0.27,1.348 -39.96,133.55 c 0,0 -17.81,-105.55 -31.82,-127.531 -8.36,1.801 -16.6,4.152 -24.315,7.352 10.997,61.511 44.925,175.121 44.925,175.121 l 54.71,-5.293 92.03,-143.797 c -0.8,-1.473 -1.68,-2.859 -2.7,-4.313"
         style="fill:#58ae3e;fill-opacity:1;fill-rule:nonzero;stroke:none"
         id="path94" /><path
         d="m 1146.98,312.559 c -11.94,-13.059 -11.02,-33.25 1.99,-45.118 13.05,-11.882 33.3,-10.98 45.16,2.039 11.87,13.04 10.91,33.231 -2.09,45.149 -13.01,11.883 -33.25,10.91 -45.06,-2.07"
         style="fill:#80cc29;fill-opacity:1;fill-rule:nonzero;stroke:none"
         id="path96" /><path
         d="m 1084.67,272.699 c -10.39,-11.328 -9.57,-28.988 1.76,-39.179 11.31,-10.391 28.91,-9.571 39.26,1.769 10.27,11.223 9.45,28.832 -1.82,39.152 -11.37,10.379 -28.92,9.539 -39.2,-1.742"
         style="fill:#80cc29;fill-opacity:1;fill-rule:nonzero;stroke:none"
         id="path98" /><path
         d="m 990.238,283.012 c -9.175,-9.973 -8.429,-25.434 1.563,-34.532 9.999,-9.121 25.449,-8.39 34.549,1.54 9.08,10.039 8.42,25.449 -1.56,34.589 -10,9.129 -25.45,8.379 -34.552,-1.597"
         style="fill:#80cc29;fill-opacity:1;fill-rule:nonzero;stroke:none"
         id="path100" /><path
         d="m 1163.46,929.141 c 0,0 36.86,-0.489 38.91,-84.032 2.07,-83.468 -59.69,-367.421 -140.2,-434.203 0,0 -26.75,-17.476 -29.31,23.266 -2.64,40.547 69.7,179.355 84.8,399.48 0,0 -2.91,93.965 45.8,95.489"
         style="fill:#58ae3e;fill-opacity:1;fill-rule:nonzero;stroke:none"
         id="path102" /><path
         d="m 1043.99,393.391 c 1.46,0 2.75,-0.93 3.2,-2.356 l 36.76,-122.965 -0.25,-2.531 c -5.37,-9.91 -3.3,-22.09 4.96,-29.598 9.63,-8.793 25.84,-8.062 34.59,1.571 4.33,4.738 6.6,10.968 6.34,17.429 -0.29,6.649 -3.14,12.637 -7.94,17.11 -2.84,2.527 -6.29,4.398 -10.34,5.48 -1.09,0.289 -1.95,1.078 -2.3,2.16 l -34.81,109.352 c -0.48,1.594 0.24,3.32 1.72,4.031 1.47,0.735 3.28,0.278 4.22,-1.133 l 62.35,-91.152 c 0.5,-0.769 0.68,-1.75 0.44,-2.668 -2.63,-10.351 0.51,-21.152 8.27,-28.25 11.27,-10.242 30.29,-9.289 40.47,1.879 10.6,11.66 9.78,29.75 -1.9,40.441 -6.95,6.321 -16.95,8.848 -26.13,6.579 -1.35,-0.348 -2.83,0.289 -3.56,1.441 l -75.37,117.738 c -0.74,1.114 -0.72,2.578 0.04,3.692 65.68,94.011 116.21,325.144 114.28,403.379 -1.9,79.472 -35.29,80.839 -35.61,80.839 -44.7,-1.418 -42.48,-91.218 -42.46,-92.148 -9.86,-144.238 -43.63,-251.895 -65.94,-323.137 -8.98,-28.672 -16.13,-51.289 -18.18,-66.101 -0.14,-0.965 -0.7,-1.778 -1.44,-2.285 -4.13,-14.036 -29.98,-102.176 -41.744,-159.719 l -0.742,-1.52 c -4.043,-4.328 -6.016,-9.789 -5.762,-15.41 0.254,-5.617 2.676,-10.867 6.875,-14.629 8.283,-7.64 22.343,-6.949 29.863,1.352 7.87,8.617 7.29,22.008 -1.31,29.91 -0.9,0.75 -1.81,1.406 -2.75,1.988 -1.25,0.801 -1.78,2.32 -1.37,3.731 11.25,38.05 22.17,102.129 22.27,102.746 0.25,1.551 1.54,2.656 3.04,2.754 z m 61.17,-170.469 c -7.79,0 -15.21,2.828 -20.96,8.117 -10.17,9.172 -12.93,23.981 -6.97,36.402 l -32.42,108.36 c -3.79,-20.621 -11.41,-59.981 -19.34,-87.473 l 1.53,-1.289 c 11.33,-10.277 12.13,-27.93 1.79,-39.269 -9.94,-10.891 -28.32,-11.7 -39.216,-1.739 -5.488,5 -8.707,11.809 -9.039,19.188 -0.332,7.211 2.11,14.09 6.832,19.531 12.913,62.648 41.933,160.262 42.213,161.234 l 1.03,1.555 c 2.48,15.274 9.41,37.383 18.05,65.012 22.26,70.906 55.88,178.14 65.7,321.297 -0.14,3.679 -2.42,97.004 48.97,98.625 1.77,-0.051 40.27,-1.535 42.36,-87.325 1.93,-78.449 -48.48,-309.335 -114.24,-405.48 l 72.97,-113.957 c 10.7,1.898 21.83,-1.332 29.86,-8.641 14.34,-13.129 15.35,-35.449 2.31,-49.8 -6.7,-7.301 -16.16,-11.5 -26.06,-11.5 -8.79,0 -17.26,3.289 -23.79,9.281 -9.18,8.328 -13.14,20.929 -10.54,33.211 l -48.83,71.355 27.42,-86.207 c 4.34,-1.422 8.13,-3.601 11.33,-6.48 6.15,-5.668 9.74,-13.352 10.08,-21.641 0.35,-8.301 -2.48,-16.187 -8.07,-22.219 -5.86,-6.468 -14.28,-10.148 -22.97,-10.148"
         style="fill:#337c3c;fill-opacity:1;fill-rule:nonzero;stroke:none"
         id="path104" /><path
         d="m 1270.28,1145.42 c -10.1,87.46 -155.2,120.14 -327.221,100.27 C 770.945,1225.82 637.078,1160.97 647.18,1073.55 657.273,985.969 810.129,886.152 982.219,905.996 1154.28,925.82 1280.38,1057.86 1270.28,1145.42"
         style="fill:#f9f589;fill-opacity:1;fill-rule:nonzero;stroke:none"
         id="path106" /><path
         d="m 1265.38,1182.57 c -11.49,99.32 -157.82,138.5 -330.567,118.56 -172.633,-19.89 -306.208,-91.35 -294.747,-190.64 11.465,-99.31 166.543,-214.689 339.204,-194.775 172.73,19.883 297.55,167.605 286.11,266.855"
         style="fill:#80cc29;fill-opacity:1;fill-rule:nonzero;stroke:none"
         id="path108" /><path
         d="m 937.313,1245.03 c 6.425,-55.55 -33.375,-105.86 -89.02,-112.3 -55.648,-6.42 -105.898,33.49 -112.309,89.09 -6.406,55.67 33.442,105.84 89.121,112.26 55.61,6.45 105.84,-33.4 112.208,-89.05"
         style="fill:#58ae3e;fill-opacity:1;fill-rule:nonzero;stroke:none"
         id="path110" /><path
         d="m 927.234,1232.21 c 5.704,-49.25 -29.644,-93.81 -78.941,-99.48 -49.316,-5.71 -93.852,29.63 -99.516,78.86 -5.664,49.41 29.629,93.93 78.95,99.61 49.253,5.71 93.828,-29.63 99.507,-78.99"
         style="fill:#fbfcf1;fill-opacity:1;fill-rule:nonzero;stroke:none"
         id="path112" /><path
         d="m 882.883,1226.29 c 2.847,-24.68 -14.848,-47.09 -39.613,-49.95 -24.723,-2.84 -47.11,14.89 -49.957,39.6 -2.852,24.74 14.917,47.12 39.625,49.97 24.765,2.89 47.074,-14.93 49.945,-39.62"
         style="fill:#1f1f16;fill-opacity:1;fill-rule:nonzero;stroke:none"
         id="path114" /><path
         d="m 833.328,1234.66 c 0.883,-7.68 -4.629,-14.64 -12.398,-15.49 -7.676,-0.89 -14.629,4.61 -15.547,12.29 -0.863,7.67 4.644,14.72 12.359,15.54 7.719,0.91 14.731,-4.68 15.586,-12.34"
         style="fill:#ffffff;fill-opacity:1;fill-rule:nonzero;stroke:none"
         id="path116" /><path
         d="m 820.984,1203.53 c 0.356,-3.42 -2.046,-6.39 -5.371,-6.75 -3.457,-0.39 -6.425,1.92 -6.812,5.37 -0.371,3.28 1.969,6.33 5.429,6.7 3.297,0.44 6.329,-2 6.754,-5.32"
         style="fill:#ffffff;fill-opacity:1;fill-rule:nonzero;stroke:none"
         id="path118" /><path
         d="m 760.09,1272.57 c 0,0 68.301,91.38 150.015,4.32 0,0 -55.332,61.86 -150.015,-4.32"
         style="fill:#204520;fill-opacity:1;fill-rule:nonzero;stroke:none"
         id="path120" /><path
         d="m 1159.03,1270.62 c 6.39,-55.62 -33.48,-105.93 -89.18,-112.33 -55.53,-6.43 -105.819,33.48 -112.245,89.05 -6.421,55.7 33.493,105.87 89.045,112.28 55.68,6.43 105.95,-33.39 112.38,-89"
         style="fill:#58ae3e;fill-opacity:1;fill-rule:nonzero;stroke:none"
         id="path122" /><path
         d="m 1148.91,1257.75 c 5.68,-49.21 -29.71,-93.79 -79.06,-99.46 -49.26,-5.67 -93.787,29.62 -99.491,78.9 -5.703,49.35 29.661,93.88 78.901,99.55 49.36,5.71 93.99,-29.63 99.65,-78.99"
         style="fill:#fbfcf1;fill-opacity:1;fill-rule:nonzero;stroke:none"
         id="path124" /><path
         d="m 1104.54,1251.86 c 2.85,-24.7 -14.91,-47.13 -39.71,-49.97 -24.67,-2.85 -47.05,14.93 -49.9,39.63 -2.85,24.71 14.9,47.09 39.57,49.96 24.78,2.87 47.18,-14.92 50.04,-39.62"
         style="fill:#1f1f16;fill-opacity:1;fill-rule:nonzero;stroke:none"
         id="path126" /><path
         d="m 1055,1260.23 c 0.84,-7.67 -4.72,-14.59 -12.42,-15.5 -7.67,-0.89 -14.68,4.63 -15.54,12.29 -0.9,7.7 4.68,14.71 12.3,15.6 7.72,0.89 14.75,-4.71 15.66,-12.39"
         style="fill:#ffffff;fill-opacity:1;fill-rule:nonzero;stroke:none"
         id="path128" /><path
         d="m 1042.62,1229.06 c 0.41,-3.37 -1.99,-6.32 -5.39,-6.68 -3.4,-0.44 -6.42,1.9 -6.81,5.3 -0.4,3.34 2.05,6.34 5.42,6.77 3.36,0.43 6.41,-2.01 6.78,-5.39"
         style="fill:#ffffff;fill-opacity:1;fill-rule:nonzero;stroke:none"
         id="path130" /><path
         d="m 981.809,1298.11 c 0,0 68.211,91.35 149.991,4.35 0,0 -55.39,61.82 -149.991,-4.35"
         style="fill:#204520;fill-opacity:1;fill-rule:nonzero;stroke:none"
         id="path132" /><path
         d="m 968.328,952.207 c 0.942,-8.484 -2.422,-15.879 -7.574,-16.434 -5.117,-0.597 -10.078,5.829 -11.059,14.254 -0.972,8.469 2.422,15.746 7.563,16.321 5.137,0.578 10.078,-5.672 11.07,-14.141"
         style="fill:#484c1b;fill-opacity:1;fill-rule:nonzero;stroke:none"
         id="path134" /><path
         d="m 1008.13,956.777 c 0.96,-8.449 -2.4,-15.879 -7.48,-16.418 -5.236,-0.574 -10.138,5.813 -11.154,14.282 -0.957,8.425 2.402,15.703 7.617,16.297 5.057,0.605 10.017,-5.696 11.017,-14.161"
         style="fill:#484c1b;fill-opacity:1;fill-rule:nonzero;stroke:none"
         id="path136" /><path
         d="m 811.316,1328.63 c -39.019,-10.39 -67.363,-43.1 -72.222,-83.38 -0.117,-0.93 -0.688,-1.7 -1.489,-2.18 -47.324,-24.85 -102.167,-68 -94.761,-132.26 0.933,-7.91 3.101,-16.41 6.836,-26.76 l 0.175,-0.98 -0.058,-2.44 c -0.024,-2.34 -0.078,-4.52 0.176,-6.76 4.882,-42.28 45.23,-88.987 105.332,-121.929 67.363,-36.921 147.847,-52.285 226.597,-43.152 18.378,2.078 36.778,5.586 54.728,10.383 h 0.02 c 142.67,37.82 239.55,150.498 230.85,225.928 -0.62,5.43 -1.99,11.06 -4.23,17.2 l -0.16,1.08 c 0.33,6.52 0.16,12.87 -0.53,18.85 -5.45,47.25 -42.89,82.93 -108.2,103.2 -0.9,0.29 -1.6,0.98 -1.88,1.91 -13.69,45.72 -58.08,74.98 -105.54,69.51 -32.89,-3.88 -61.897,-24.25 -76.718,-53.88 -0.406,-0.91 -1.324,-1.45 -2.304,-1.57 -11.266,-0.8 -22.325,-1.85 -32.809,-3.07 -5.527,-0.62 -10.918,-1.42 -16.289,-2.17 l -4.067,-0.58 c -0.957,-0.12 -1.929,0.23 -2.554,0.98 -21.391,25.54 -53.828,38.54 -86.797,34.68 -4.746,-0.52 -9.492,-1.42 -14.106,-2.61 z M 1038.09,913.711 v 0 c -18.24,-4.832 -36.91,-8.379 -55.5,-10.559 -79.945,-9.175 -161.606,6.391 -229.985,43.871 -62.593,34.317 -103.062,81.487 -108.218,126.207 -0.293,2.61 -0.215,5.1 -0.176,7.51 l 0.019,1.89 c -3.792,10.55 -6,19.33 -6.933,27.49 -6.176,53.08 27.183,100.54 96.402,137.26 5.649,41.91 35.395,75.83 76.196,86.66 4.824,1.29 9.839,2.24 14.863,2.84 34.336,3.94 68.14,-9.32 90.762,-35.53 l 2.5,0.36 c 5.464,0.79 10.898,1.56 16.46,2.22 10.098,1.17 20.649,2.16 31.465,2.96 15.879,30.53 46.145,51.54 80.345,55.55 49.67,5.7 96.2,-24.55 111.18,-72.09 66.73,-21.06 105,-58.2 110.7,-107.45 0.7,-6.17 0.88,-12.62 0.58,-19.25 2.25,-6.35 3.68,-12.23 4.32,-17.92 4.55,-39.55 -17.4,-87.58 -60.19,-131.75 -45.39,-46.785 -107.46,-82.398 -174.79,-100.269"
         style="fill:#337c3c;fill-opacity:1;fill-rule:nonzero;stroke:none"
         id="path138" /></g></g></svg>
