<?xml version="1.0" encoding="UTF-8" standalone="no"?>
<svg
   xmlns:dc="http://purl.org/dc/elements/1.1/"
   xmlns:cc="http://creativecommons.org/ns#"
   xmlns:rdf="http://www.w3.org/1999/02/22-rdf-syntax-ns#"
   xmlns:svg="http://www.w3.org/2000/svg"
   xmlns="http://www.w3.org/2000/svg"
   xmlns:sodipodi="http://sodipodi.sourceforge.net/DTD/sodipodi-0.dtd"
   xmlns:inkscape="http://www.inkscape.org/namespaces/inkscape"
   version="1.1"
   id="svg2"
   xml:space="preserve"
   width="6066.1465"
   height="6066.1465"
   viewBox="0 0 6066.1465 6066.1465"
   sodipodi:docname="20932090.eps"><metadata
     id="metadata8"><rdf:RDF><cc:Work
         rdf:about=""><dc:format>image/svg+xml</dc:format><dc:type
           rdf:resource="http://purl.org/dc/dcmitype/StillImage" /></cc:Work></rdf:RDF></metadata><defs
     id="defs6"><clipPath
       clipPathUnits="userSpaceOnUse"
       id="clipPath122"><path
         d="m 18737.9,21863.9 c 1102.8,-688 2645.5,-931 3637,-1000.5 480.3,-33.5 568.6,-109.7 270.7,-632.1 -1273,-2233.3 -4987.4,-1142.1 -4474.6,1491.2 98.9,507.4 237.2,347.2 566.9,141.4 z"
         clip-rule="evenodd"
         id="path120" /></clipPath></defs><sodipodi:namedview
     pagecolor="#ffffff"
     bordercolor="#666666"
     borderopacity="1"
     objecttolerance="10"
     gridtolerance="10"
     guidetolerance="10"
     inkscape:pageopacity="0"
     inkscape:pageshadow="2"
     inkscape:window-width="640"
     inkscape:window-height="480"
     id="namedview4" /><g
     id="g10"
     inkscape:groupmode="layer"
     inkscape:label="ink_ext_XXXXXX"
     transform="matrix(1.3333333,0,0,-1.3333333,0,6066.1467)"><g
       id="g12"
       transform="scale(0.1)"><path
         d="M 0,45496.1 H 45496.1 V 0 H 0 v 45496.1 0"
         style="fill:#ffffff;fill-opacity:1;fill-rule:evenodd;stroke:none"
         id="path14" /><path
         d="m 18820.7,19585.9 c -741.7,905.3 -2081,2416.3 -2751.6,2778 -1217.8,657 -2309.8,-397.5 -1609.8,-1585.3 740.8,-1257.3 3242.1,-3416.8 4643.2,-2987.8 978.2,299.5 288.3,1099.3 -281.8,1795.1 v 0"
         style="fill:#ff8454;fill-opacity:1;fill-rule:evenodd;stroke:none"
         id="path16" /><path
         d="m 18820.7,19585.9 c -123.2,150.1 -262.6,317 -412.7,492.6 0,0 -172.3,-957.4 -1496.2,-669.9 -1040.7,226 -2617.1,2097.1 -1847,3129.9 -702.7,-153.1 -1098.4,-923.3 -605.5,-1759.9 740.8,-1257.3 3242.1,-3416.8 4643.2,-2987.8 978.2,299.5 288.3,1099.3 -281.8,1795.1 v 0"
         style="fill:#f77745;fill-opacity:1;fill-rule:evenodd;stroke:none"
         id="path18" /><path
         d="m 16401.4,22137.5 c -122.4,96.3 -234.5,173.7 -332.3,226.4 -1217.8,657 -2309.8,-397.5 -1609.8,-1585.3 47.2,-80 101.6,-163.7 162.3,-250.2 497.6,-62.8 1102.7,277.1 1456.7,723.3 165.4,193.4 281.6,423.8 318.1,647.7 13.9,83.3 15,162.9 5,238.1 v 0"
         style="fill:#963910;fill-opacity:1;fill-rule:evenodd;stroke:none"
         id="path20" /><path
         d="m 15064.8,22538.5 c -702.7,-153.1 -1098.4,-923.3 -605.5,-1759.9 47.2,-80 101.6,-163.7 162.3,-250.2 221.4,-27.9 464.1,23.9 696.6,129.4 -434.2,628.1 -641.3,1360.5 -253.4,1880.7 v 0"
         style="fill:#802f0d;fill-opacity:1;fill-rule:evenodd;stroke:none"
         id="path22" /><path
         d="m 17772.4,20678.9 c -282.8,455.1 -554,202 -174.4,-122.5 93.1,-79.7 242.6,13 174.4,122.5 v 0"
         style="fill:#f77745;fill-opacity:1;fill-rule:evenodd;stroke:none"
         id="path24" /><path
         d="m 18199.7,20091.7 c -72.7,102.8 -269.1,342.9 -426.3,232.2 -59.5,-41.8 -68.6,-112.9 -35.7,-176.4 60.7,-117.4 182,-195.7 305.3,-245.1 113.5,-45.3 223.1,95.3 156.7,189.3 v 0"
         style="fill:#f77745;fill-opacity:1;fill-rule:evenodd;stroke:none"
         id="path26" /><path
         d="m 17592.5,20275.3 c 26.2,27.3 18,68.5 -2.9,98 -40.5,57.5 -205.5,150.5 -237.5,53.4 -24.2,-73.6 78.1,-128.8 136.6,-155.8 35.6,-16.3 74.9,-25.3 103.8,4.4 v 0"
         style="fill:#f77745;fill-opacity:1;fill-rule:evenodd;stroke:none"
         id="path28" /><path
         d="m 30657.5,11599.2 c -487.5,-54.5 -648.9,173.2 -408.1,315.4 230.2,135.8 477.6,-57.5 408.1,-315.4 z m 819.6,621.7 c 2.8,77.4 -110.9,118.3 -140.2,35.9 -68.7,-193 -173,-373.7 -324.3,-498.5 -75.8,210.2 -267.4,381.9 -588.5,455.1 -565.4,129 -828.7,-527 -313.9,-806.6 164.4,-89.1 338.3,-116.6 505.2,-98.3 -30.9,-44.3 -79.8,-84.6 -156.5,-138.5 -102.6,-72.7 -223.1,-122.9 -342,-160.1 -309.6,-97 -576.7,-78.1 -780.5,195.1 -159.1,213.3 -482,10.3 -392,-228.8 277.9,-740.3 1300.9,-583.9 1768.3,-135.5 199.3,191.2 312.4,415.6 333.4,628.8 244.3,165.9 419.1,439.2 431,751.4 v 0"
         style="fill:#f06d39;fill-opacity:1;fill-rule:evenodd;stroke:none"
         id="path30" /><path
         d="m 29052,19260.5 c 1067.7,-3676.7 681.8,-8951.3 -382.9,-12649.8 -337.7,-1172.3 -371.4,-1310 -1504.9,-1483.2 -1580.7,-241.4 -4182.8,-76 -4224.2,1006.3 -34.1,895.9 -169.7,2591.3 -169.7,2591.3 -593.1,83.4 -2241.1,543.4 -2616.5,794.2 0,0 -948,-1946.91 -1635.8,-2558.9 -687.8,-612 -1393.1,-403.6 -2023.5,-174 -630.3,229.5 -3393,1549.6 -2906.4,2769.4 554.8,3653 4169.6,11419.5 8076.7,11152.3 3299.6,-225.7 7387.2,-1447.6 7387.2,-1447.6 v 0"
         style="fill:#ff966c;fill-opacity:1;fill-rule:evenodd;stroke:none"
         id="path32" /><path
         d="m 29052,19260.5 c 1067.7,-3676.7 681.8,-8951.3 -382.9,-12649.8 -337.7,-1172.3 -371.4,-1310 -1504.9,-1483.2 -531.3,-81.1 -1177.4,-116.1 -1803.3,-86.2 1283.5,717.8 2389.8,2744.1 2501.9,5600.3 152,3878.5 -2011.8,4442.5 -4847,5208.2 -2835.1,766 -5063.1,2891.9 -5063.1,2891.9 3886.8,5197.1 11718.1,1440.9 11099.3,518.8 v 0"
         style="fill:#ff8454;fill-opacity:1;fill-rule:evenodd;stroke:none"
         id="path34" /><path
         d="m 30071.9,17381.3 c 1219.5,198.6 3330.6,448.2 4096.7,225 1391.3,-405.6 1427.7,-2218.4 31,-2699.9 -1478.3,-509.5 -4932.9,-391.5 -5660.4,1119.7 -508,1055.2 595.2,1202.8 1532.7,1355.2 v 0"
         style="fill:#ff8454;fill-opacity:1;fill-rule:evenodd;stroke:none"
         id="path36" /><path
         d="m 30071.9,17381.3 9.1,1.6 9.2,1.5 18.5,3 9.6,1.5 9.2,1.6 2.1,0.3 7.4,1.1 9.4,1.5 9.4,1.6 9.5,1.4 9.5,1.6 9.5,1.4 4.3,0.7 5.4,0.9 9.8,1.5 9.5,1.6 9.7,1.4 9.6,1.7 9.7,1.4 6.7,1 3.2,0.6 9.9,1.4 9.8,1.6 9.8,1.4 9.9,1.7 10.1,1.4 8.7,1.4 1.1,0.2 10,1.4 10.1,1.6 10,1.7 10.1,1.4 10,1.4 10.2,1.6 1,0.2 9,1.5 10.2,1.4 10.2,1.6 10.3,1.4 10.3,1.6 10.3,1.4 3.3,0.6 7,1.1 10.3,1.6 10.2,1.5 10.5,1.5 10.5,1.5 10.2,1.6 5.8,0.9 4.8,0.5 10.5,1.7 10.5,1.4 10.6,1.6 10.5,1.4 10.5,1.7 8.2,1.2 2.5,0.3 10.6,1.5 10.7,1.6 10.5,1.4 10.8,1.6 10.7,1.4 10.7,1.6 h 0.1 l 10.8,1.5 10.7,1.6 10.7,1.5 11,1.6 10.7,1.4 10.9,1.6 2.2,0.3 8.8,1.1 10.6,1.6 c 0,0 -449.1,-1062.2 471,-1783.3 877.9,-688 3578.5,-449.7 3659.1,1510.4 11.1,-11.5 22,-22.9 32.5,-34.8 5.3,-5.7 10.3,-11.6 15.3,-17.5 6.1,-7 12.3,-14 17.9,-21 l 14.6,-17.7 c 6.1,-7.5 12.2,-15.5 18.3,-23.1 l 12.4,-16.3 c 7.4,-9.7 14.3,-19.6 21.3,-29.4 l 9.8,-14.2 c 8.4,-11.7 16.4,-23.9 24.1,-36 3.9,-5.9 7.5,-11.9 11.3,-17.9 5,-8.2 10,-16.2 14.8,-24.5 l 10.9,-19 c 4.5,-8.1 9.2,-16.1 13.4,-24.3 l 10.3,-19.1 c 5.9,-11.3 11.7,-22.7 17.2,-34.2 l 6.2,-12.3 c 6,-12.9 11.9,-26 17.4,-39 2.6,-6 5.2,-12.1 7.7,-18.2 3.6,-8.9 7.4,-18 11,-27 l 7.3,-19.2 c 3.4,-9.1 6.9,-18.2 9.9,-27.5 l 6.4,-18.5 c 4.1,-12.4 8.1,-24.9 11.9,-37.4 l 5.4,-18.5 c 3.3,-11.5 6.4,-22.7 9.4,-34 l 5,-20.8 c 2.1,-8.8 4.1,-17.6 6.1,-26.3 1.6,-7 3.1,-14 4.4,-21 2.1,-9.5 3.9,-19.2 5.6,-28.7 1.1,-6 2.3,-12.3 3.2,-18.4 2.7,-15.2 5.1,-30.6 7.1,-45.8 l 1.4,-11.8 c 1.4,-11.9 2.8,-23.5 3.9,-35.4 l 1.6,-19.7 c 0.8,-9.8 1.6,-19.5 2.2,-29.2 l 1.1,-19.8 c 0.5,-10.3 0.9,-20.5 1,-30.7 l 0.6,-17.1 c 0.1,-15.8 0.1,-31.4 -0.2,-47.1 l -0.5,-11.2 c -0.4,-12.1 -0.9,-24.3 -1.7,-36.5 l -1.2,-19.5 c -0.8,-9.7 -1.5,-19.6 -2.5,-29.2 l -1.8,-19.4 c -1.1,-10.4 -2.3,-20.8 -3.8,-31.2 l -2.3,-17.3 c -2.2,-15.2 -4.4,-30.4 -7.3,-45.5 l -3,-15.2 c -2,-10.9 -4,-21.9 -6.6,-32.8 l -3.9,-17.8 c -2.3,-10.2 -4.8,-20.6 -7.4,-30.8 l -4.8,-18.2 c -2.9,-10.8 -5.9,-21.5 -9.1,-32.3 l -4.1,-14.1 c -4.9,-15.6 -9.9,-31.2 -15,-46.4 l -3.7,-10.2 c -4.3,-11.9 -8.8,-23.7 -13.2,-35.5 l -6.7,-16.7 c -4.1,-10.1 -8.3,-20.6 -12.8,-30.8 l -6.6,-15.5 c -5.1,-11.5 -10.4,-22.8 -15.8,-34 l -5.2,-11.4 c -7.4,-14.9 -15,-29.9 -23,-44.6 l -4.8,-8.7 c -6.4,-11.9 -12.9,-23.5 -19.7,-35.1 l -8.6,-14.5 c -5.9,-9.9 -11.8,-19.4 -17.9,-29 l -9.7,-15.1 c -7,-11.1 -14.4,-21.9 -21.8,-32.8 l -6.6,-9.5 c -9.6,-13.9 -20,-27.7 -30.1,-41.4 l -8.1,-10 c -7.9,-10.2 -15.8,-20.4 -24,-30.5 l -11.7,-13.7 c -7.4,-9.2 -15.3,-18.1 -23.3,-27.1 l -11.4,-12.9 c -10.4,-11.5 -21,-22.7 -32.1,-34 l -3.7,-4.1 c -12.4,-12.5 -25.1,-25.1 -38,-37.5 l -11.8,-10.9 c -9.2,-8.6 -18.4,-17 -28,-25.4 l -15,-13.1 c -9.1,-7.9 -18.5,-15.6 -27.7,-23.5 l -14.4,-11.4 c -12.7,-10.2 -25.8,-20.4 -39.1,-30.3 l -4.2,-3.2 c -15.1,-11.1 -30.3,-22.1 -45.8,-32.8 l -13.2,-8.6 c -11.1,-7.5 -22.3,-14.8 -33.9,-22.2 l -17.7,-11.3 c -10.9,-6.6 -21.8,-13 -32.9,-19.5 l -17.1,-10.1 c -15.8,-8.9 -31.5,-17.5 -47.4,-25.9 l -3.1,-1.6 -1,-0.6 c -17,-9 -34.4,-17.6 -52,-26 l -18.1,-8.4 c -12.3,-5.7 -24.7,-11.3 -37.2,-16.8 l -20.6,-8.7 c -12.5,-5.4 -25.4,-10.6 -38.4,-15.9 l -19.5,-7.7 c -19.1,-7.3 -38.5,-14.5 -58.2,-21.3 -1478.3,-509.5 -5859.3,-700.7 -6068.3,919.8 -158.3,1228.1 1003.1,1403.2 1940.6,1555.1 v 0"
         style="fill:#f77745;fill-opacity:1;fill-rule:evenodd;stroke:none"
         id="path38" /><path
         d="m 34849.7,17206 c 11.1,-11.5 22,-23.2 32.5,-34.8 5.3,-5.7 10.3,-11.6 15.3,-17.5 6.1,-7 12.3,-14 17.9,-21 l 14.6,-17.7 c 6.1,-7.5 12.2,-15.5 18.3,-23.1 l 12.4,-16.3 c 7.4,-9.7 14.3,-19.6 21.3,-29.4 l 9.8,-14.2 c 8.4,-11.7 16.4,-23.9 24.1,-36 3.7,-5.9 7.5,-11.9 11.3,-17.9 5,-8.2 10,-16.2 14.8,-24.5 l 10.9,-19 c 4.8,-8.1 9.2,-16.1 13.4,-24.3 l 10.3,-19.1 c 5.9,-11.3 11.7,-22.7 17.2,-34.2 l 6.2,-12.3 c 6,-12.9 11.9,-26 17.4,-39 2.6,-6 5.2,-12.1 7.7,-18.2 3.8,-8.9 7.4,-18 11,-27 l 7.3,-19.2 c 3.4,-9.1 6.9,-18.2 9.9,-27.5 l 6.4,-18.5 c 4.1,-12.4 8.1,-24.9 11.9,-37.3 l 5.4,-18.8 c 3.3,-11.3 6.4,-22.5 9.4,-33.8 l 5,-20.8 c 2.1,-8.8 4.1,-17.6 6.1,-26.3 1.6,-7 3.1,-14 4.4,-21 2.1,-9.5 3.9,-19.2 5.6,-28.7 1.1,-6 2.3,-12.3 3.2,-18.4 2.7,-15.2 5.1,-30.6 7.1,-45.8 l 1.4,-11.8 c 1.4,-11.9 2.8,-23.5 3.9,-35.4 l 1.6,-19.7 c 0.8,-9.8 1.6,-19.5 2.2,-29.2 l 1.1,-19.8 c 0.5,-10.3 0.9,-20.5 1,-30.7 l 0.6,-17.1 c 0.1,-15.8 0.1,-31.4 -0.2,-47.1 l -0.5,-11.2 c -0.4,-12.1 -0.9,-24.3 -1.7,-36.5 l -1.2,-19.5 c -0.8,-9.7 -1.5,-19.6 -2.5,-29.2 l -1.8,-19.4 c -1.1,-10.4 -2.3,-20.8 -3.8,-31.2 l -2.3,-17.3 c -2.2,-15.2 -4.4,-30.4 -7.3,-45.5 l -3,-15.2 c -2,-10.9 -4,-21.9 -6.6,-32.8 l -3.9,-17.8 c -2.3,-10.3 -4.8,-20.6 -7.4,-30.8 l -4.8,-18.2 c -2.9,-10.8 -5.9,-21.5 -9.1,-32.3 l -4.1,-14.1 c -4.9,-15.6 -9.9,-31.2 -15,-46.4 l -3.8,-10.1 c -4.2,-12 -8.7,-23.8 -13.1,-35.6 l -6.7,-16.7 c -4.1,-10.1 -8.3,-20.6 -12.8,-30.8 l -6.6,-15.5 c -5.1,-11.5 -10.4,-22.8 -15.8,-34 l -5.2,-11.4 c -7.4,-14.9 -15,-29.9 -23,-44.6 l -4.8,-8.7 c -6.4,-11.9 -12.9,-23.5 -19.7,-35.1 l -8.6,-14.5 c -5.9,-9.9 -11.8,-19.4 -17.9,-29 l -9.5,-15.1 c -7.2,-11.1 -14.6,-21.9 -22,-32.8 l -6.6,-9.5 c -9.6,-13.9 -20,-27.7 -30.1,-41.4 l -8.1,-10 c -7.9,-10.2 -15.8,-20.4 -24,-30.5 l -11.7,-13.7 c -7.4,-9.2 -15.3,-18.1 -23.3,-27.1 l -11.4,-12.9 c -10.4,-11.5 -21,-22.7 -32.1,-34 l -3.7,-4.1 c -12.4,-12.5 -25.1,-25.1 -38,-37.5 l -11.8,-10.9 c -9.2,-8.6 -18.4,-17 -28,-25.6 l -15,-12.9 c -9.1,-7.9 -18.5,-15.6 -27.7,-23.5 l -14.4,-11.4 c -12.7,-10.2 -25.8,-20.4 -39.1,-30.3 l -4.2,-3.2 c -15.1,-11.1 -30.3,-22.1 -45.8,-32.8 l -13.2,-8.6 c -11.1,-7.5 -22.3,-14.8 -33.9,-22.2 l -17.7,-11.3 c -10.9,-6.6 -21.8,-13 -32.9,-19.5 l -17.1,-10.1 c -15.8,-8.7 -31.5,-17.5 -47.4,-25.9 l -3.1,-1.6 -1,-0.6 c -17,-9 -34.4,-17.6 -52,-26 l -18.1,-8.4 c -12.3,-5.7 -24.7,-11.3 -37.2,-16.8 l -20.6,-8.7 c -12.5,-5.4 -25.4,-10.6 -38.4,-15.9 l -19.5,-7.7 c -19.1,-7.3 -38.5,-14.5 -58.2,-21.3 -22,-7.4 -44.6,-15 -67.5,-22.2 l -3.3,-1 -1.3,-0.6 -0.6,-0.2 c -22.2,-7 -45,-13.9 -67.9,-20.7 l -7.5,-2.2 c -22.2,-6.4 -44.8,-12.8 -67.7,-19.2 l -8.5,-2.3 h -0.4 l -5.1,-1.4 c -20.2,-5.4 -40.8,-10.8 -61.6,-16 l -13.8,-3.6 c -187.3,156 -331.3,401.3 -426.5,685.9 731,244.3 1344.1,784.7 1381.8,1703.1 v 0"
         style="fill:#4e565a;fill-opacity:1;fill-rule:evenodd;stroke:none"
         id="path40" /><path
         d="m 33754.1,17675.2 c 162.2,-13.9 302.8,-36.5 414.5,-68.9 1391.3,-405.6 1427.7,-2218.4 31,-2699.9 -94.2,-32.4 -196.3,-62.1 -305.2,-89.4 -417,347 -617.3,1136.2 -552.3,1816 19.4,304.3 102.7,601.3 240.3,828.4 50.9,84.5 108.9,155.6 171.7,213.8 v 0"
         style="fill:#963910;fill-opacity:1;fill-rule:evenodd;stroke:none"
         id="path42" /><path
         d="m 34849.7,17206 c 665.4,-689.1 461.8,-1916.2 -650.1,-2299.6 -94.2,-32.4 -196.3,-62.1 -305.2,-89.4 -187.6,156 -331.3,401.5 -426.7,686.1 731.2,244.3 1344.3,784.3 1382,1702.9 v 0"
         style="fill:#802f0d;fill-opacity:1;fill-rule:evenodd;stroke:none"
         id="path44" /><path
         d="m 31818.3,17422.7 c 67.3,24.5 132.4,52.5 201.5,72.6 175,51.3 440.5,-318.4 -153.2,-319.8 -128,-0.7 -178.3,200.1 -48.3,247.2 v 0"
         style="fill:#f77745;fill-opacity:1;fill-rule:evenodd;stroke:none"
         id="path46" /><path
         d="m 30946.3,17396.4 c 128.6,37.4 449.5,104 492.9,-119.2 16.5,-84.3 -26.3,-156.3 -96.7,-188.8 -129.5,-59.9 -278.4,-37.2 -408.4,13.5 -119.6,46.8 -105.4,260.3 12.2,294.5 v 0"
         style="fill:#f77745;fill-opacity:1;fill-rule:evenodd;stroke:none"
         id="path48" /><path
         d="m 29052,19260.5 c 223,-767.9 382.3,-1605.9 485.7,-2484.3 -2336.7,-763.4 -4745.1,-647.1 -7094.2,6.7 -2270.8,632.1 -3828.3,1589.3 -4345.8,2146.5 3804.3,7611.5 11545.1,1263.3 10954.3,331.1 v 0"
         style="fill:#f77745;fill-opacity:1;fill-rule:evenodd;stroke:none"
         id="path50" /><path
         d="m 18657.7,30968.7 c 0,0 -1315.3,1983.6 -872.7,3745.4 442.6,1761.6 2304.6,4320.8 2910,4387 605.4,66 3415.5,-2861.3 3874.3,-6294.2 458.9,-3433.1 -5911.6,-1838.2 -5911.6,-1838.2 v 0"
         style="fill:#ff966c;fill-opacity:1;fill-rule:evenodd;stroke:none"
         id="path52" /><path
         d="m 18657.7,30968.7 c 0,0 -1315.3,1983.6 -872.7,3745.4 351.4,1399.1 1598.4,3301.3 2399.8,4057.9 -6.6,-12.4 -2483.4,-4639.5 -129.7,-7232.6 259.2,-285.4 369.8,-580.7 364.2,-871.3 -988.1,107.1 -1761.6,300.6 -1761.6,300.6 v 0"
         style="fill:#ff8454;fill-opacity:1;fill-rule:evenodd;stroke:none"
         id="path54" /><path
         d="m 18714.2,31060.6 c 0,0 -1050.1,1703.6 -657.4,3242.6 392.7,1539.1 1966.5,3794.6 2465.9,3862 499.2,67.1 2764.4,-2432.9 3086.5,-5410.5 321.9,-2977.6 -4895,-1694.1 -4895,-1694.1 v 0"
         style="fill:#fa6544;fill-opacity:1;fill-rule:evenodd;stroke:none"
         id="path56" /><path
         d="m 18714.2,31060.6 c 0,0 -1050.1,1703.6 -657.4,3242.6 232.6,911.7 879.8,2074.8 1472.5,2885.6 -524.6,-1586.1 -953.8,-4019.4 525.8,-5649.4 217.8,-240 330.4,-487.1 357.6,-732.5 -929.2,64.7 -1698.5,253.7 -1698.5,253.7 v 0"
         style="fill:#f55b39;fill-opacity:1;fill-rule:evenodd;stroke:none"
         id="path58" /><path
         d="m 31392.5,39448 c -179.1,383.6 -731,406.2 -1090.5,339.4 -546.1,-101.7 -102.8,649 -883.5,677.3 -420.5,15.4 -703.5,-358.3 -826.3,-714.2 -121.2,-351.8 -151.8,-749.6 -181.5,-1118.2 -22.6,-279.8 -99.2,-681.7 -11.9,-951.7 138.5,-429.5 582.4,-295.2 929,-207.2 641.6,163 2502.3,1037.4 2064.7,1974.6 v 0"
         style="fill:#f0413e;fill-opacity:1;fill-rule:evenodd;stroke:none"
         id="path60" /><path
         d="m 31392.5,39448 c -46.8,100.6 -119.7,176.4 -207.7,232.3 76.7,-413.2 -140.7,-924.6 -976.3,-1400 -1556.2,-885.5 -1815.1,179.7 -1815.1,179.7 -28.5,-256.6 -65.3,-561.2 5.4,-779.4 138.5,-429.5 582.4,-295.2 929,-207.2 641.6,163 2502.3,1037.4 2064.7,1974.6 v 0"
         style="fill:#e02d2a;fill-opacity:1;fill-rule:evenodd;stroke:none"
         id="path62" /><path
         d="m 29271.2,39728.1 c 54.4,91.9 126.3,168.2 188.7,253.8 106.3,146 -58.4,323.9 -212.9,230.8 -222.1,-133.9 -392.3,-460.4 -329.5,-717.4 21.4,-89 157.5,-106.3 208.5,-36 59.7,82.6 92.9,181.1 145.2,268.8 v 0"
         style="fill:#fefefe;fill-opacity:1;fill-rule:nonzero;stroke:none"
         id="path64" /><path
         d="m 29381,39659.3 c -131.6,-42.4 -188.6,-268.1 -56.6,-225.8 131.8,42.4 188.8,268.1 56.6,225.8 v 0"
         style="fill:#fefefe;fill-opacity:1;fill-rule:nonzero;stroke:none"
         id="path66" /><path
         d="m 30295.4,38127.9 c -224.8,-225.5 -968.4,-757.7 -1558.4,-620.8 -13,3.2 -21,16.5 -17.7,29.4 3.3,13 16.4,20.9 29.4,17.7 463.9,-114.5 1194.2,406 1468.2,619.4 192.7,149.7 195.1,71.1 78.5,-45.7 v 0"
         style="fill:#eb403d;fill-opacity:1;fill-rule:evenodd;stroke:none"
         id="path68" /><path
         d="m 27601.4,39303.2 c -223.9,239.4 -565.4,140.1 -763.1,-82.1 -341.7,-384.6 -752.6,431.2 -1241.4,-304 -223.3,-290.2 -143.7,-733.9 23.9,-1030.8 157.4,-278.4 573.3,-914.1 982.6,-991.8 21.1,-12.8 45,-22.8 72.2,-29.6 396.4,-98.7 637.3,302.4 782.9,797.4 91.8,171.3 152.7,364.2 202.4,550.3 86.7,325.8 204.1,809.1 -59.5,1090.6 v 0"
         style="fill:#f0413e;fill-opacity:1;fill-rule:evenodd;stroke:none"
         id="path70" /><path
         d="m 27601.4,39303.2 c -91,97.3 -201.3,138.7 -313.5,138.5 235.6,-293.2 308.3,-759.2 2.9,-1403.6 -597.5,-1261 -1256.2,-740.8 -1260.7,-737.2 175,-200.8 383.1,-371 645.5,-435.8 566.7,-141.3 867.8,907 985.3,1347.5 86.7,325.8 204.4,809.1 -59.5,1090.6 v 0"
         style="fill:#e02d2a;fill-opacity:1;fill-rule:evenodd;stroke:none"
         id="path72" /><path
         d="m 26163.3,38135.6 c -38.6,104.4 -100.5,195 -131.9,303.8 -30.7,107.4 -23.3,219.4 -18.9,329.7 5.8,151.7 -249.9,203.7 -299.9,58.4 -95.3,-277.4 -18.1,-708.1 274.3,-847.2 98.1,-46.6 215.2,49.6 176.4,155.3 v 0"
         style="fill:#fefefe;fill-opacity:1;fill-rule:nonzero;stroke:none"
         id="path74" /><path
         d="m 26189.8,38400.7 c -59.5,-125.1 66.1,-321.2 125.7,-195.9 59.6,125 -66,321.1 -125.7,195.9 v 0"
         style="fill:#fefefe;fill-opacity:1;fill-rule:nonzero;stroke:none"
         id="path76" /><path
         d="m 27507.4,38000.2 c -29,-235 -222.4,-887.4 -631.6,-1076.7 -9.1,-4 -19.9,0.2 -23.8,9.3 -4.1,9 0,19.7 9.1,23.8 324.8,144.6 516,784.2 579.3,1034.7 44.8,176 82,130.7 67,8.9 v 0"
         style="fill:#eb403d;fill-opacity:1;fill-rule:evenodd;stroke:none"
         id="path78" /><path
         d="m 19869.4,32270 c -3290.6,-2221.1 -4948.6,-4478.8 -5174.3,-7880.1 -225.3,-3401.1 3793.7,-6086.1 7243.9,-7204 3450.3,-1118 9308.4,-1199.9 10928.5,3152.7 1620.2,4352.7 563.3,6694 -248.8,8300.7 -729.2,1442.8 -3119.9,3789.4 -5080.5,4426.1 -2517.3,817.6 -5428.1,716.7 -7668.8,-795.4 v 0"
         style="fill:#ff966c;fill-opacity:1;fill-rule:evenodd;stroke:none"
         id="path80" /><path
         d="m 17583.5,19408.7 c 1305.9,-982.4 2882.4,-1745.5 4355.5,-2222.8 3450.3,-1118 9308.4,-1199.9 10928.5,3152.7 538.9,1447.6 781.4,2672.6 835.4,3722.2 l 0.2,3.4 c 3,60.2 5.6,119.5 7.4,178.4 l 0.6,19.9 c 2.8,93.7 4,185.8 3.8,276.6 v 3.7 c -0.3,92.3 -2,182.9 -4.9,272.3 l -0.3,4.7 c -3.2,88.6 -7.4,175.7 -13.4,261.7 l -0.3,6.9 c -6,85.9 -13.1,170.2 -21.3,253.1 l -0.6,5.9 c -8.4,84.2 -18.1,167.2 -29.1,248.9 l -0.1,0.8 c -10.6,81.9 -22.8,162.3 -35.9,241.5 l -0.3,2.1 c -12.7,76.8 -26.4,152.4 -41,226.9 l -2.3,11.5 c -4.9,24.6 -9.9,48.9 -14.9,73.1 v 0.5 c -10.2,48.8 -20.8,96.8 -31.5,144.6 l -2.1,9.3 c -5.4,23.7 -11,47.5 -16.7,71 l -0.4,1.4 c -11.5,47.8 -23.2,95.1 -35.5,142 l -1.1,4.7 c -6.2,23.4 -12.2,46.7 -18.5,70 l -0.6,2.2 c -12.4,45.6 -25.1,90.8 -38,135.5 l -1.7,6.1 c -6.7,22.8 -13.4,45.3 -20.1,67.8 l -0.3,1.4 c -12.8,42.2 -25.7,83.8 -38.7,125.2 l -4.9,15.2 c -6.8,20.8 -13.5,41.4 -20.2,62 l -1.7,5 c -13.1,39.6 -26.3,78.8 -39.7,117.7 l -5.4,15.6 c -6.6,18.8 -13.1,37.6 -19.9,56.2 l -7.5,21 c -11.5,32 -23,63.7 -34.8,95.3 l -9.1,24.1 -18.8,49.8 -12,31.4 c -10.4,26.6 -20.7,53.3 -31.3,79.7 l -10.6,26.5 -18.3,45.7 -17.7,43.1 c -8.4,20.5 -17.1,40.7 -25.5,60.9 l -14.1,33.7 -17.8,41.9 -16.4,37.9 -25.8,59 -18.6,41.9 -15.3,33.9 -21.5,47.5 -20,44 -20.8,45 -14,30.1 -23.1,49.1 -19,40.6 -24.9,51.6 -8.8,18.2 -26.3,54.5 -18.3,37.3 -23.9,48.3 -11.5,23.9 -32.1,64.8 v 0.2 l -25.8,51.2 -12.9,25.8 -12.8,25.3 -25.5,50.5 c -11.3,22.4 -22.9,45.1 -35.1,67.8 l -0.2,0.4 -0.8,1.6 c -11.4,21.3 -23.1,43 -35.2,64.7 l -3.5,6.6 -2.6,4.5 c -10,17.9 -20.4,36 -30.8,54.2 l -2.7,4.5 -6.5,11.7 c -11.3,19.4 -23,38.9 -34.9,58.6 -868.1,1449 -3087.6,3553.7 -4928.2,4151.5 -247.4,80.5 -498.4,151.8 -752.3,213.8 19.5,-11.3 4401,-2555.7 5536.2,-6425.9 95,-350.1 169.5,-699.1 219.2,-1049.3 3.3,-26.3 6.8,-52.3 10.4,-77.9 226,-1721.5 -155.2,-3479.4 -1680.1,-5577.8 -2188,-3011.1 -8119.5,-3896.7 -13288.1,-739.6 v 0"
         style="fill:#ff8454;fill-opacity:1;fill-rule:evenodd;stroke:none"
         id="path82" /><path
         d="m 30023.6,26450.6 c 60,-132 1.5,-287.7 -130.5,-347.5 -131.9,-60 -287.6,-1.6 -347.7,130.4 -144.4,317.2 -319.6,568.4 -528.8,778 -210.2,210.6 -460.4,383.4 -752.8,542 -127.9,69.3 -175.3,229.1 -106,356.9 69.3,127.9 229,175.4 356.8,106.3 331.9,-180.1 621.1,-381.4 873.2,-633.8 253.2,-253.6 463.8,-554.7 635.8,-932.3 v 0"
         style="fill:#6a270a;fill-opacity:1;fill-rule:evenodd;stroke:none"
         id="path84" /><path
         d="m 19575.2,30367.6 c 135.6,-29.8 219.3,-168.5 187.4,-309.9 -32.3,-141.3 -168.3,-231.8 -303.6,-202 -326.3,71.1 -620,78.6 -902.2,34.2 -283.8,-44.6 -562.3,-143.5 -854.6,-284.6 -127.8,-61.8 -277.2,-5.8 -333.6,125.3 -56.4,131.1 1.4,287.5 129.3,349.3 332,160.1 655,273.5 995.1,327.1 341.5,53.7 694.2,45.2 1082.2,-39.4 v 0"
         style="fill:#6a270a;fill-opacity:1;fill-rule:evenodd;stroke:none"
         id="path86" /><path
         d="m 18067.3,25869.9 c -383.3,-905.4 -543.6,-2081.4 1379.1,-2939.1 1922.8,-857.7 3917.3,-1969.8 4798.4,-476.5 880.8,1493.5 970.9,2290.2 -30.1,2893.5 -656.5,395.5 -3026.3,1526.9 -4536.9,1665.4 -831.3,76.2 -1227.3,-237.6 -1610.5,-1143.3 v 0"
         style="fill:#fa6544;fill-opacity:1;fill-rule:evenodd;stroke:none"
         id="path88" /><path
         d="m 24439.3,22797 c 11,19.8 21.4,39.8 32,59.4 l -32,-59.4 z m -38.7,-70.6 c 12,21.7 23.8,43.3 35.6,64.8 l -35.6,-64.8 z m -72.8,-129.3 c 11.9,20.9 23.9,41.9 35.5,62.6 l -35.5,-62.6 z m -42.3,-73.3 c 13.3,23.1 26.5,45.8 39.5,68.6 l -39.5,-68.6 z m -1132.5,-790.6 21.9,2.7 c 14.5,1.7 28.9,3.7 43,5.9 l 24.7,3.9 c 13.3,2.2 26.4,4.5 39.4,7 8.8,1.6 17.6,3.4 26.3,5.4 12.8,2.5 25.5,5.3 38,8.4 9.1,1.9 17.9,4.3 26.8,6.7 12.7,3 25,6.4 37.3,9.9 10.1,2.9 20,5.8 30,8.9 9.7,3 19.1,5.8 28.7,9.1 12,3.9 24.1,8.2 36.1,12.5 8.9,3.2 17.9,6.5 26.7,9.8 12.5,4.9 25.1,10.1 37.5,15.3 l 21,8.9 c 13.5,5.9 26.6,12 39.6,18.3 l 18.4,9 c 13.7,6.8 27.3,14 41,21.4 l 15.5,8.7 c 14.3,8 28.5,16.3 42.4,24.9 l 14,8.7 c 14.6,9.2 28.7,18.6 42.9,28.3 l 11.9,8.4 c 15.2,10.8 30.3,21.9 45.3,33.3 l 7.4,5.8 c 15.2,12 30.2,24.3 45.3,37.1 l 7.2,6.2 c 15,13.1 30,26.8 44.8,40.7 l 5.3,5.2 c 15,14.3 29.8,29.2 44.4,44.4 l 5.3,5.6 c 14.8,15.7 29.5,31.8 44.1,48.7 l 2.9,3.6 c 15.1,17.5 29.8,35.4 44.3,54.1 l 1.8,2.3 c 14.9,18.8 29.4,38.1 43.6,58.2 l 1.9,2.6 c 14.4,20 28.3,40.8 42.2,61.9 l 1.1,2 c 14.1,21.8 28.2,44.2 41.8,67.3 12.9,22 25.6,43.7 38.4,65.4 l 2.3,4.1 c 13.3,23.1 26.5,45.8 39.5,68.6 l 2.8,4.7 c 11.9,20.9 23.9,41.9 35.5,62.6 l 0.4,0.8 c 11.9,20.9 23.5,41.9 35,62.5 l 1.9,3.4 c 12,21.7 24,43.3 35.6,64.8 l 0.5,0.6 2.6,5.2 c 11,19.8 21.4,39.8 32,59.4 l 0.9,1.1 c 10.6,20.2 21,40.1 31.4,59.9 l 1.4,2.6 v 0.2 c 21.8,41.8 43.1,82.9 63.3,123.4 l 0.3,0.9 0.9,1.6 c 9.3,18.8 18.4,37.6 27.6,56.2 l 0.5,1 0.9,2 1.5,3 c 9.2,18.6 17.8,37 26.7,55.4 l 0.7,1.5 2.7,5.8 c 8.4,17.7 16.6,35.4 24.6,53.1 l 0.3,0.2 0.8,2 c 465.2,1014.4 371.7,1631.8 -441.1,2121.5 -413.8,249.3 -1508,790.8 -2638.8,1191.8 41.8,-16.9 1722.3,-741.8 2323.5,-1387 492.8,-528.7 517.7,-983.2 366.5,-1547.6 -11.1,-41.5 -22.6,-83.5 -34.2,-125.6 -429.5,-1379.2 -1062.7,-1601.6 -2045.2,-1408 -890.1,175.5 -2153.3,675 -2740.1,859.4 1332.8,-594.4 2699.6,-1310.8 3706.6,-1197.6 v 0"
         style="fill:#e6502e;fill-opacity:1;fill-rule:evenodd;stroke:none"
         id="path90" /><path
         d="m 29223,31640 c 390.4,307.8 2483,1909.4 4715.5,2725.4 2476.3,904.8 3204.4,895.9 3344.9,-171.5 105.9,-804.9 0,-3414.2 -306,-4837.3 -84.7,-393.7 -565.4,-1066.6 -886.1,-1323.7 -575.3,-460.7 -1788.1,-1423.9 -3006.7,-1540 l -292,202.2 c -777.7,2143.2 -2726.1,4127.6 -3569.6,4944.9 v 0"
         style="fill:#ff966c;fill-opacity:1;fill-rule:evenodd;stroke:none"
         id="path92" /><path
         d="m 37283.4,34193.9 c 105.9,-804.9 0,-3414.2 -306,-4837.3 -84.7,-393.7 -565.4,-1066.6 -886.1,-1323.7 -575.3,-460.7 -1788.1,-1423.9 -3006.7,-1540 l -292,202.2 c -190.6,525.6 -451.7,1041.4 -749.7,1532.9 4055.6,-624.1 5240.5,5965.9 5240.5,5965.9 v 0"
         style="fill:#ff8454;fill-opacity:1;fill-rule:evenodd;stroke:none"
         id="path94" /><path
         d="m 29558.5,31309.2 c 699.5,505.2 2227.1,1530.1 3843.6,2111.3 2204.1,792.4 2855.4,790.4 2993.7,-120.2 104.2,-686.9 40.1,-2916.6 -216.7,-4134.8 -71.1,-336.9 -493,-915.5 -776.7,-1137.5 -499.6,-390.7 -1542.8,-1199.8 -2610.1,-1332.7 -687.3,1894 -2288.6,3663.9 -3233.8,4613.9 v 0"
         style="fill:#fa6544;fill-opacity:1;fill-rule:evenodd;stroke:none"
         id="path96" /><path
         d="m 36425,31482.8 c -33.9,-809.4 -114.9,-1695.2 -245.9,-2317.3 -71.1,-336.9 -493,-915.5 -776.7,-1137.5 -499.6,-390.7 -1542.8,-1199.8 -2610.1,-1332.7 -190.8,525.5 -451.8,1041.2 -749.7,1532.7 h 0.3 c 2245.4,-345.5 3610.6,1520.4 4382.1,3254.8 v 0"
         style="fill:#f55b39;fill-opacity:1;fill-rule:evenodd;stroke:none"
         id="path98" /><path
         d="m 28163.7,32146.6 c -91.9,27.6 -205,-9 -192.9,-124 5.1,-49 32.2,-104.3 66.8,-155.1 32.9,-60.5 91.4,-114.2 135.6,-152.2 69.5,-60.2 197.2,-164.4 279.4,-65.4 64.4,77.5 13.2,212.2 -30.8,288.4 -56.2,96.9 -150.3,176 -258.1,208.3 v 0"
         style="fill:#ff8454;fill-opacity:1;fill-rule:evenodd;stroke:none"
         id="path100" /><path
         d="m 27790,31863 c -60,-4.4 -108.6,-51.3 -108.3,-112.3 0.7,-66.6 56.4,-143.5 123.5,-177.1 10.5,-8.1 20.9,-15.9 31.7,-23.1 47.9,-31.7 110.3,-71.8 167.9,-40.9 123.9,66.3 -2.8,230.6 -68.6,288.1 -39.2,34.2 -91.5,69.5 -146.2,65.3 v 0"
         style="fill:#ff8454;fill-opacity:1;fill-rule:evenodd;stroke:none"
         id="path102" /><path
         d="m 27700,32093.4 c 60.7,12.7 110.5,81.6 107.1,143 -5,91.1 -209,313.7 -316,182.6 -57.6,-70.6 -65.4,-153.1 -15.4,-230.7 49.3,-76.3 135.7,-113.5 224.3,-94.9 v 0"
         style="fill:#ff8454;fill-opacity:1;fill-rule:evenodd;stroke:none"
         id="path104" /><path
         d="m 30238.8,30091.8 c -48.8,79.7 -198.7,282.1 -294.7,131.6 -75.3,-118.4 112.8,-509 272.6,-483.8 67.9,10.8 108.9,71.3 110,137.6 1.5,77.5 -49.1,150.8 -87.9,214.6 v 0"
         style="fill:#ff8454;fill-opacity:1;fill-rule:evenodd;stroke:none"
         id="path106" /><path
         d="m 29715.4,29953.6 c 87.9,-61.8 203.3,24.9 146.5,125.6 -25.5,45.3 -46.5,95.5 -91.6,125.7 -42.5,28.9 -74.1,64.9 -129.1,65.2 -32.8,0 -61,-27.1 -68.2,-57.6 -11.6,-49.8 15.8,-90.9 37.7,-133.7 20.4,-51 57.7,-92.2 104.7,-125.2 v 0"
         style="fill:#ff8454;fill-opacity:1;fill-rule:evenodd;stroke:none"
         id="path108" /><path
         d="m 31764.9,18926 c 54.8,105.4 176.5,401.4 -50.2,407 -178.4,4.7 -479.8,-456.7 -347.4,-614 56,-66.8 149,-71.9 221.9,-29.6 85.4,49.5 131.8,152.5 175.7,236.6 v 0"
         style="fill:#ff966c;fill-opacity:1;fill-rule:evenodd;stroke:none"
         id="path110" /><path
         d="m 18695.5,21635.2 c 1089.3,-679.6 2612.6,-919.6 3591.6,-988.2 474.7,-33.1 561.8,-108.2 267.6,-624.2 -1257.3,-2205.7 -4925.5,-1127.9 -4419,1472.5 97.5,501.2 234.2,343 559.8,139.9 v 0"
         style="fill:#ffad8c;fill-opacity:1;fill-rule:evenodd;stroke:none"
         id="path112" /><path
         d="m 18737.9,21863.9 c 1102.8,-688 2645.5,-931 3637,-1000.5 480.3,-33.5 568.6,-109.7 270.7,-632.1 -1273,-2233.3 -4987.4,-1142.1 -4474.6,1491.2 98.9,507.4 237.2,347.2 566.9,141.4 v 0"
         style="fill:#a82103;fill-opacity:1;fill-rule:evenodd;stroke:none"
         id="path114" /><g
         id="g116"><g
           id="g118"
           clip-path="url(#clipPath122)"><path
             d="m 21258.4,20807.1 c 95.4,237.7 47.1,523.2 -224,680.8 -257.5,149.8 -550.4,82.3 -693,-123.5 -299,-309.9 -268.4,-927 314.9,-954 128.6,-6.1 243,28.6 339.5,87 134.9,57.5 221.6,175.6 262.6,309.7 v 0"
             style="fill:#fefefe;fill-opacity:1;fill-rule:nonzero;stroke:none"
             id="path124" /><path
             d="m 20033.2,21199.4 c 95.6,237.5 47.2,523.1 -223.9,680.7 -257.4,149.7 -550.2,82.2 -693.1,-123.6 -298.9,-309.9 -268.1,-927 315.2,-954 128.5,-6.1 242.7,28.7 339.3,87.2 134.8,57.3 221.6,175.4 262.5,309.7 v 0"
             style="fill:#fefefe;fill-opacity:1;fill-rule:nonzero;stroke:none"
             id="path126" /><path
             d="m 22371.4,19104.4 c 31.8,378.5 -523.2,655.4 -866.6,806.3 -1117.2,491.1 -2306,415.3 -3004.6,-456.7 -40.7,-51 32.5,-128.7 102,-120.1 -11,-791.7 2118,-911 2687.1,-842.8 409.5,49.1 1046.2,191 1082.1,613.3 v 0"
             style="fill:#e63f29;fill-opacity:1;fill-rule:evenodd;stroke:none"
             id="path128" /><path
             d="m 22371.4,19104.4 c 31.8,378.5 -523.2,655.4 -866.6,806.3 -267.4,117.4 -538.4,202.4 -806.2,251.8 205.6,-110 385.8,-290.2 326.2,-577.3 -123.1,-592.7 -1446.1,-881.9 -2392.5,-412.9 11.2,-28.1 25.6,-55.1 42.6,-81.1 124.4,-88.7 310.6,-214.1 541.1,-361.3 671.9,-248.1 1702.9,-283.2 2073.3,-238.8 409.5,49.1 1046.2,191 1082.1,613.3 v 0"
             style="fill:#d4331e;fill-opacity:1;fill-rule:evenodd;stroke:none"
             id="path130" /></g></g><path
         d="m 28721.1,11575.4 c -46.2,115.5 -174.4,201.5 -281.9,96.4 -45.8,-44.8 -80.4,-117.2 -104.1,-193.3 -35.2,-82.2 -42.8,-185.2 -45.8,-260.8 -5.1,-119.5 -8.5,-333.7 158.9,-337.5 130.9,-2.9 226.7,157.8 268.9,264.1 53.2,135.3 58.1,295.2 4,431.1 v 0"
         style="fill:#ff966c;fill-opacity:1;fill-rule:evenodd;stroke:none"
         id="path132" /><path
         d="m 28929.1,10960.8 c -41.7,66.1 -125.5,93.3 -194.9,55.7 -76.2,-41.2 -130.2,-152.2 -128.1,-249.7 -2.8,-16.8 -5.4,-33.8 -7.1,-50.3 -7.2,-74.4 -15.1,-170.1 55.5,-217.5 151.6,-101.9 262.8,143.6 288.6,254.2 15.3,65.9 24,147.4 -14,207.6 v 0"
         style="fill:#ff966c;fill-opacity:1;fill-rule:evenodd;stroke:none"
         id="path134" /><path
         d="m 29170.8,12616.8 c -26.7,137 -212.9,159.9 -250.3,14.7 -17.1,-65.4 -42.4,-131.5 -27.6,-200.6 13.8,-65.2 11,-127.4 62,-177 30.6,-29.8 81.6,-29.8 115.7,-7.7 55.9,36.1 67.3,99.2 85.2,159.2 26.9,66.1 29,138.3 15,211.4 v 0"
         style="fill:#ff966c;fill-opacity:1;fill-rule:evenodd;stroke:none"
         id="path136" /><path
         d="m 28837.4,13375.5 c 1.7,12.9 3,26 4.9,38.7 6.3,45.2 -3.5,-29.7 5.1,32.1 9,63.9 -1.1,147.9 -23.6,208.6 l -2,-2.1 c -15.3,55 -53.1,104.2 -107.5,127.5 -131.8,56.2 -245.9,-40.8 -261.8,-170.5 -7.3,-59.5 -3.7,-126.8 3.5,-185.6 -4.1,33 2.3,-38.6 2.7,-45.8 2.1,-47.1 10.1,-83.1 30.5,-126.1 26.6,-56.6 93.9,-91.4 154.5,-91.9 66.3,-0.6 117.3,34.6 154.3,87 28.1,39.8 33.1,81.4 39.4,128.1 v 0"
         style="fill:#ff966c;fill-opacity:1;fill-rule:evenodd;stroke:none"
         id="path138" /><path
         d="m 28624.5,12997.4 c -63,32 -145.7,19.9 -182.8,-46.6 -71.1,-126.6 60.5,-479.7 183.3,-373.3 117,101.4 148.8,344 -0.5,419.9 v 0"
         style="fill:#ff966c;fill-opacity:1;fill-rule:evenodd;stroke:none"
         id="path140" /><path
         d="m 18011.8,17492.2 c -12.6,47.8 -57.5,80.1 -106.1,70.7 -53.9,-10.2 -107.4,-66.4 -124.8,-125.4 -4.8,-9.4 -9.7,-19.1 -13.8,-28.8 -18.3,-43.1 -41.6,-99.2 -8.2,-141.1 71.5,-89.9 185,36 221.7,97.6 21.8,36.6 42.5,83.8 31.2,127 v 0"
         style="fill:#ff966c;fill-opacity:1;fill-rule:evenodd;stroke:none"
         id="path142" /><path
         d="m 16837,15759.4 c 76.1,154.2 -89.8,315.6 -234.8,201 -65.6,-51.6 -139.8,-97.6 -176.7,-176.5 -35.1,-74.3 -84.1,-133.1 -71,-220.1 7.8,-52 58,-90.1 107.9,-93.8 81.9,-6.1 140.1,47.3 202.2,92.7 75.8,45.2 131.9,114.1 172.4,196.7 v 0"
         style="fill:#ff966c;fill-opacity:1;fill-rule:evenodd;stroke:none"
         id="path144" /><path
         d="m 17500.8,17013.2 c 9,9.5 17.8,19.2 26.7,28.3 31.8,32.7 -20.3,-21.8 23.2,22.9 44.8,46.3 86.5,120.1 104.3,182.2 l -2.8,-0.3 c 20.2,53.1 18.8,115.3 -11.3,166.4 -73.3,123 -222.7,112.4 -312.1,17.1 -41,-43.7 -77.9,-100.1 -106.9,-151.8 16.1,29 -20.9,-32.5 -24.8,-38.5 -26.2,-39.3 -41,-72.9 -50,-119.9 -12.1,-61.2 21.8,-129.1 70.4,-165.3 53.2,-39.7 114.9,-41.6 175.8,-21.1 46.3,15.5 74.8,46.2 107.5,80 v 0"
         style="fill:#ff966c;fill-opacity:1;fill-rule:evenodd;stroke:none"
         id="path146" /><path
         d="m 17056.7,16470.1 c -25.6,66 -95.3,112 -167.2,87.1 -137.6,-47.3 -274.3,-398.4 -111.9,-400.7 155,-2.3 340.2,157.7 279.1,313.6 v 0"
         style="fill:#ff966c;fill-opacity:1;fill-rule:evenodd;stroke:none"
         id="path148" /><path
         d="m 17159.5,15826.2 c -12.4,47.6 -57.4,79.9 -106.3,70.6 -53.6,-10.2 -107.3,-66.3 -124.5,-125.2 -5,-9.7 -9.6,-19.4 -14,-29.1 -18.4,-43.1 -41.6,-99 -8.3,-140.9 71.6,-89.9 185.2,36 221.9,97.4 21.7,36.6 42.4,83.8 31.2,127.2 v 0"
         style="fill:#ff966c;fill-opacity:1;fill-rule:evenodd;stroke:none"
         id="path150" /><path
         d="m 20513,9348.4 c -158.2,62.3 -284.2,120.7 -359.2,170.9 0,0 -948,-1946.91 -1635.8,-2558.9 -687.8,-612 -1393.1,-403.6 -2023.5,-174 -60,21.9 -139.6,53.6 -233.7,94.3 1936.6,578.2 2428.8,3456.2 2428.8,3456.2 -12.4,369.8 1819.7,-985.6 1823.4,-988.5 v 0"
         style="fill:#ff8454;fill-opacity:1;fill-rule:evenodd;stroke:none"
         id="path152" /><path
         d="m 18383.3,6850.9 c -644.7,-475.1 -1299.6,-279 -1888.8,-64.5 -630.3,229.5 -3393,1549.6 -2906.4,2769.4 10.7,27.8 22.8,58.8 35.3,91.9 1228.2,-1009.3 3211.8,-2218 4759.9,-2796.8 v 0"
         style="fill:#963910;fill-opacity:1;fill-rule:evenodd;stroke:none"
         id="path154" /><path
         d="m 18383.3,6850.9 c -644.7,-475.1 -1299.6,-279 -1888.8,-64.5 -60,21.9 -139.6,53.6 -233.7,94.3 347.8,103.9 649.4,281.8 909.3,504 419.1,-208.1 829.5,-390.3 1213.2,-533.8 v 0"
         style="fill:#802f0d;fill-opacity:1;fill-rule:evenodd;stroke:none"
         id="path156" /><path
         d="m 28508.5,6073.6 c -224.6,-685.7 -414.3,-803.9 -1344.3,-946.1 -1580.7,-241.4 -4182.8,-76 -4224.2,1006.3 l -1.7,45.7 c 1416.6,-287 3790.7,-357.4 5570.2,-105.9 v 0"
         style="fill:#963910;fill-opacity:1;fill-rule:evenodd;stroke:none"
         id="path158" /><path
         d="m 28508.5,6073.6 c -17.5,-53.4 -34.7,-103.2 -52.2,-149.9 l -0.3,-0.9 -9.8,-26 -1.7,-4.5 c -16.9,-43.7 -34,-84.3 -51.6,-122.5 l -2.3,-4.91 -9.5,-20.19 -1.4,-2.7 c -10.7,-22.4 -21.8,-43.7 -33,-64.3 l -0.4,-0.31 c -3.7,-6.49 -7.4,-12.89 -11.1,-19.39 l -1.2,-2.3 -10.3,-17.4 -3.1,-4.8 c -3.4,-5.6 -6.8,-11.3 -10.4,-16.7 l -0.7,-0.9 c -11.4,-17.9 -23.3,-35.1 -35.7,-51.4 l -3.4,-4.4 -10.9,-14.2 -3.1,-4 c -3.9,-4.6 -7.6,-9.4 -11.6,-13.9 l -2.8,-3.4 c -12.8,-14.9 -25.9,-29.2 -39.6,-42.8 l -2.7,-2.9 -11.1,-10.8 -5.9,-5.5 -11.3,-10.4 -5.7,-4.81 -11.9,-10.39 -5.5,-4.5 c -4.1,-3.4 -8.3,-6.6 -12.5,-10 -5.6,-4.3 -11.3,-8.8 -17.3,-13.1 l -12.7,-9.1 -6.4,-4.5 -13.2,-9 -6,-3.9 -14.3,-9 -5.9,-3.7 c -5,-3.1 -10.1,-5.9 -15.3,-9 l -2.4,-1.4 c -17.6,-10 -35.8,-19.7 -54.8,-29.1 l -6.9,-3.1 -14.8,-7 -9.3,-4.4 -15.1,-6.6 -10,-4.2 -14.9,-6.1 -8.1,-3.3 c -10.9,-4.3 -22,-8.61 -33.4,-12.7 l -8.7,-3.2 -17.3,-6.1 -10.2,-3.6 -17.9,-5.7 -10.4,-3.5 -18.8,-5.8 -7.2,-2.2 c -16,-4.8 -32.3,-9.5 -48.9,-14.2 l -0.7,-0.1 -18.3,-4.9 -15.2,-4.11 -16.5,-4.09 -16.6,-4.1 -18,-4.31 -17.8,-4.29 -15.7,-3.6 -2.5,-0.7 -32.2,-7.2 -1.1,-0.2 -36.6,-7.6 -14.1,-2.9 -24,-4.9 -18.2,-3.5 -24.2,-4.5 -12.6,-2.5 -29.5,-5.4 -11.4,-2.1 -3.5,-0.5 -38,-6.7 -4.8,-0.91 -34.1,-5.79 -13.6,-2.2 -11.2,-2.01 -27.6,-4.49 -22.7,-3.6 -5.7,-0.9 -32.7,-5.2 -9.3,-1.4 -43,-6.8 c -23.2,-3.4 -46.9,-7 -70.5,-10.4 l -4.4,-0.6 -0.6,-0.1 -3.5,-0.4 c -23.5,-3.4 -47.1,-6.6 -70.9,-9.6 l -1.2,-0.3 -1.4,-0.1 c -24.8,-3.3 -49.9,-6.5 -75.2,-9.5 l -1,-0.2 -1.8,-0.2 c -22.9,-2.6 -45.8,-5.3 -69,-8 l -15,-1.6 c -21.8,-2.6 -43.9,-4.9 -66.1,-7.2 l -7,-0.7 -3.2,-0.2 -1.1,-0.2 c -22.7,-2.3 -45.5,-4.5 -68.4,-6.6 l -8.2,-0.9 -3.9,-0.2 -1.5,-0.2 c -22.6,-2.1 -45.4,-4.1 -68.1,-5.9 l -16.2,-1.4 c -21.3,-1.8 -42.6,-3.4 -63.9,-5 l -23.6,-1.8 -56.1,-4 -31.2,-1.9 -54,-3.3 -29.4,-1.6 -50.2,-2.7 -45.2,-2.1 -46.9,-2 -22.8,-0.9 -29.1,-1.1 -29,-0.9 -55.9,-1.5 -2.3,-0.2 -29.2,-0.8 -52.9,-1 -12.6,-0.2 c -26.4,-0.4 -52.9,-0.7 -79.3,-0.9 h -4 c -175.6,-1.4 -352.4,2 -527.5,10.2 353,197.6 692.8,494.4 1002.1,880 744.2,10.1 1485.7,59.2 2145.5,152.3 v 0"
         style="fill:#802f0d;fill-opacity:1;fill-rule:evenodd;stroke:none"
         id="path160" /><path
         d="m 28432.1,7463.2 c 7.3,191.8 -136.1,609.19 -386.7,391 -184.9,-161.6 -264.7,-733.1 -53,-868.2 257.4,-164.4 432.6,295.6 439.7,477.2 v 0"
         style="fill:#ff966c;fill-opacity:1;fill-rule:evenodd;stroke:none"
         id="path162" /><path
         d="m 28712.9,8835.4 c 21.8,116.5 52.3,434 -165.5,373.8 -171.4,-47.2 -325.7,-574.4 -153.9,-686.1 72.9,-47.6 162.8,-25.5 220.2,35.9 67.1,71.9 81.6,183.39 99.2,276.4 v 0"
         style="fill:#ff966c;fill-opacity:1;fill-rule:evenodd;stroke:none"
         id="path164" /><path
         d="m 27806.6,6930.3 c -12.8,94.4 -90.9,170.2 -189.8,162.7 -96.5,-7.4 -168.7,-94.1 -162.8,-189.8 2.5,-37.7 -1.3,-76.3 1.4,-113.7 2.7,-37.2 16.4,-74 22.1,-110.9 12.3,-82 34.2,-182.8 138.6,-179.8 85.9,2.6 127.4,84.7 156.8,154 18.9,45.2 37.6,91.2 41.5,139.9 3.6,45.9 -1.6,92.3 -7.8,137.6 v 0"
         style="fill:#ff966c;fill-opacity:1;fill-rule:evenodd;stroke:none"
         id="path166" /><path
         d="m 18928.2,7879.3 c 8.1,124.1 -70.9,256.8 -213.4,208.09 -60.5,-20.79 -122.9,-71.09 -176.8,-129.79 -67.1,-59.3 -118.2,-148.9 -153.5,-215.9 -56,-105.7 -150.9,-297.7 -1.4,-372.9 117,-58.8 272.6,44.9 356.3,123 106.2,99.3 179.2,241.5 188.8,387.5 v 0"
         style="fill:#ff966c;fill-opacity:1;fill-rule:evenodd;stroke:none"
         id="path168" /><path
         d="m 19630.2,9090.6 c -21.4,67.4 -88,117.9 -161.5,97.7 -140.1,-38.2 -299.4,-379.6 -137.3,-392.5 154.2,-12.3 349.4,135.2 298.8,294.8 v 0"
         style="fill:#ff966c;fill-opacity:1;fill-rule:evenodd;stroke:none"
         id="path170" /><path
         d="m 18839.3,8486.5 c -20.8,67.5 -87.2,118.39 -160.8,98.7 -140.5,-37.3 -302,-377.4 -140.2,-391.6 154.3,-13.4 350.7,132.9 301,292.9 v 0"
         style="fill:#ff966c;fill-opacity:1;fill-rule:evenodd;stroke:none"
         id="path172" /><path
         d="m 27316.3,34675.9 c -716.3,-21.8 -1502.3,-365.2 -2007.7,-901.5 100.1,189 219.5,366.7 358.8,535.2 50.5,61.1 -26.6,158.6 -94.5,107.7 -331.3,-248.8 -550.8,-587.7 -664.3,-985.4 -34.3,-119.8 151.5,-188.6 210.6,-87.6 53.6,-66.8 158.6,-91 243.9,-10 603.2,571.8 1186.3,937.9 1990.1,1165.7 102.1,29.2 62.1,179.2 -36.9,175.9 v 0"
         style="fill:#6a270a;fill-opacity:1;fill-rule:evenodd;stroke:none"
         id="path174" /><path
         d="m 28123.6,34014.8 c -441.2,68.4 -898.5,35.3 -1329.6,-79.3 -291.3,-77.5 -870.5,-217.5 -938.6,-562 -5.9,-29.5 14.6,-59.3 43.9,-65.1 310.2,-62.2 633,253 918.7,362.7 422.1,162.4 850.1,219.2 1299.4,236.2 60.6,2.2 67,98.2 6.2,107.5 v 0"
         style="fill:#6a270a;fill-opacity:1;fill-rule:evenodd;stroke:none"
         id="path176" /><path
         d="m 17712.8,28645.2 c -600,116.9 -1181.5,-274.8 -1298.4,-874.8 -116.9,-600.3 274.8,-1181.5 874.8,-1298.6 600.3,-117 1181.5,274.7 1298.6,874.7 117,600.3 -274.7,1181.7 -875,1298.7 v 0"
         style="fill:#f77745;fill-opacity:1;fill-rule:evenodd;stroke:none"
         id="path178" /><path
         d="m 17639.4,28644.3 c 551.8,-28.7 969,-518.9 932.2,-1094.8 -37,-576 -514.3,-1019.5 -1066,-990.7 -551.9,28.7 -969.2,518.9 -932.3,1094.8 36.9,575.8 514.3,1019.5 1066.1,990.7 v 0"
         style="fill:#fefefe;fill-opacity:1;fill-rule:evenodd;stroke:none"
         id="path180" /><path
         d="m 18369.7,28247.2 c 141.3,-191.1 218.6,-435.6 201.9,-697.9 -66,-1024.7 -1454.4,-747.6 -1402.3,143.5 23.9,413.2 378.6,728.9 792,704.8 153.9,-8.9 294.1,-63.7 408.4,-150.4 v 0"
         style="fill:#3b1200;fill-opacity:1;fill-rule:evenodd;stroke:none"
         id="path182" /><path
         d="m 17802.9,28293.4 c -170.3,33.1 -335.5,-78.1 -368.6,-248.4 -33.1,-170.4 78,-335.3 248.3,-368.5 170.3,-33.3 335.4,77.9 368.6,248.2 33.1,170.4 -77.9,335.4 -248.3,368.7 v 0"
         style="fill:#fefefe;fill-opacity:1;fill-rule:evenodd;stroke:none"
         id="path184" /><path
         d="m 28365.2,21782.4 c -349.5,1409.3 -3130.5,1379.6 -3357.2,172.7 -407.5,-2173.3 3860.5,-2201.5 3357.2,-172.7 v 0"
         style="fill:#f76954;fill-opacity:1;fill-rule:evenodd;stroke:none"
         id="path186" /><path
         d="m 21622.1,24267.5 c 0,0 -195.2,-378.7 -218.1,-652.1 -43.2,-517.7 762.3,-426.6 967.5,445.6 173.5,736.2 -749.4,206.5 -749.4,206.5 v 0"
         style="fill:#ff7759;fill-opacity:1;fill-rule:evenodd;stroke:none"
         id="path188" /><path
         d="m 22472.8,24206.6 c 65.9,551.2 -580,761.1 -887.8,59.1 -85.6,-195.6 -215.4,-534.1 -79.1,-731.3 158.1,-229.5 454.9,-85.6 624.7,51 189,152.2 313.1,380.5 342.2,621.2 v 0"
         style="fill:#d13917;fill-opacity:1;fill-rule:evenodd;stroke:none"
         id="path190" /><path
         d="m 32294.9,19614.8 c -5.1,80.2 -121,127.7 -180.1,71.6 -70.1,-66.7 -146.3,-249.1 -137.9,-344.8 7.6,-83.3 110.6,-113 171.7,-68.2 111.7,81.4 155.1,207.4 146.3,341.4 v 0"
         style="fill:#ff966c;fill-opacity:1;fill-rule:evenodd;stroke:none"
         id="path192" /><path
         d="m 32149.4,20019.2 c -3.5,53.4 -80.4,84.7 -119.8,47.7 -46.6,-44.5 -97.1,-165.7 -91.5,-229.1 5,-55.4 73.4,-75.1 114,-45.5 74.2,54.2 103.1,137.9 97.3,226.9 v 0"
         style="fill:#ff966c;fill-opacity:1;fill-rule:evenodd;stroke:none"
         id="path194" /><path
         d="m 33507,23512.7 c -15.8,51.3 -97.8,64.1 -127.6,19 -35.1,-53.7 -56.5,-183.4 -36.7,-243.9 17.6,-52.7 88.7,-56.3 121.5,-18.2 59.8,69.8 68.5,157.9 42.8,243.1 v 0"
         style="fill:#ff966c;fill-opacity:1;fill-rule:evenodd;stroke:none"
         id="path196" /><path
         d="m 33270.5,23191 c -13.4,43.9 -83.6,55 -109.2,16.3 -30.1,-46 -48.6,-157.3 -31.6,-209.2 15.4,-45.1 76.1,-48.2 104.4,-15.4 51.1,59.6 58.6,135.2 36.4,208.3 v 0"
         style="fill:#ff966c;fill-opacity:1;fill-rule:evenodd;stroke:none"
         id="path198" /><path
         d="m 28692.4,25197.3 c 1.3,-0.3 2,1.8 0.7,2.2"
         style="fill:none;stroke:#000000;stroke-width:0.0510522;stroke-linecap:round;stroke-linejoin:round;stroke-miterlimit:4;stroke-dasharray:none;stroke-opacity:1"
         id="path200" /><path
         d="m 27775.2,25225.3 c 639.1,-194.4 999.5,-870.2 805,-1509.1 -194.4,-639.1 -870.1,-999.5 -1509.1,-805 -639.1,194.4 -999.5,870.2 -804.9,1509.1 194.5,639.1 870.1,999.5 1509,805 v 0"
         style="fill:#f77745;fill-opacity:1;fill-rule:evenodd;stroke:none"
         id="path202" /><path
         d="m 27803.9,25199.5 c -573.4,262.9 -1251.6,11.1 -1514.4,-562.6 -262.9,-573.5 -10.8,-1251.5 562.7,-1514.5 573.5,-262.8 1251.6,-10.9 1514.4,562.6 263,573.6 11,1251.7 -562.7,1514.5 v 0"
         style="fill:#fefefe;fill-opacity:1;fill-rule:evenodd;stroke:none"
         id="path204" /><path
         d="m 27408.9,25113.5 c -411.3,188.4 -897.3,7.9 -1085.7,-403.2 -188.5,-411.2 -7.8,-897.4 403.1,-1085.8 411.5,-188.5 897.5,-7.9 1086,403.3 188.5,411.1 7.8,897.2 -403.4,1085.7 v 0"
         style="fill:#3b1200;fill-opacity:1;fill-rule:evenodd;stroke:none"
         id="path206" /><path
         d="m 26958.2,25028.9 c 181.4,-55.1 283.7,-246.9 228.6,-428.2 -55.2,-181.5 -246.9,-283.7 -428.2,-228.6 -181.4,55.2 -283.7,247 -228.6,428.5 55.1,181.3 247,283.6 428.2,228.3 v 0"
         style="fill:#fefefe;fill-opacity:1;fill-rule:evenodd;stroke:none"
         id="path208" /><path
         d="m 17441.3,25909.9 c -436.1,642.5 -1885.4,1347.5 -2349,377 -381.6,-798.5 327.8,-1627.3 1070.1,-1835.9 367.3,-103.2 814.6,-112.4 1131.1,134.3 413.8,322.4 427.5,912.4 147.8,1324.6 v 0"
         style="fill:#f76954;fill-opacity:1;fill-rule:evenodd;stroke:none"
         id="path210" /><path
         d="m 18877.4,25380.6 c 0,0 -116.2,-403.6 -88.4,-692.9 52.5,-547.7 796,-437 832.6,487.8 30.8,781.1 -744.2,205.1 -744.2,205.1 v 0"
         style="fill:#ff7759;fill-opacity:1;fill-rule:evenodd;stroke:none"
         id="path212" /><path
         d="m 19592.1,25035 c 287,1164.1 -757.8,1083.9 -752.6,8.1 0.7,-209.7 46.5,-530.2 321.6,-537 250.1,-6.1 382,329.8 431,528.9 v 0"
         style="fill:#d13917;fill-opacity:1;fill-rule:evenodd;stroke:none"
         id="path214" /><path
         d="M 16730.7,12618.9 C 18565.6,9787 23470,7827.3 26530.3,9670.7 25339.2,8491.9 23123.7,8435.6 21577.7,8836.8 c -2021.2,524.5 -3781.7,1753.8 -4847,3782.1 v 0"
         style="fill:#f77745;fill-opacity:1;fill-rule:evenodd;stroke:none"
         id="path216" /></g></g></svg>
