<?xml version="1.0" encoding="UTF-8" standalone="no"?>
<svg
   xmlns:dc="http://purl.org/dc/elements/1.1/"
   xmlns:cc="http://creativecommons.org/ns#"
   xmlns:rdf="http://www.w3.org/1999/02/22-rdf-syntax-ns#"
   xmlns:svg="http://www.w3.org/2000/svg"
   xmlns="http://www.w3.org/2000/svg"
   xmlns:sodipodi="http://sodipodi.sourceforge.net/DTD/sodipodi-0.dtd"
   xmlns:inkscape="http://www.inkscape.org/namespaces/inkscape"
   version="1.1"
   id="svg2"
   xml:space="preserve"
   width="5847.9067"
   height="5847.9067"
   viewBox="0 0 5847.9067 5847.9067"
   sodipodi:docname="20932092.eps"><metadata
     id="metadata8"><rdf:RDF><cc:Work
         rdf:about=""><dc:format>image/svg+xml</dc:format><dc:type
           rdf:resource="http://purl.org/dc/dcmitype/StillImage" /></cc:Work></rdf:RDF></metadata><defs
     id="defs6"><clipPath
       clipPathUnits="userSpaceOnUse"
       id="clipPath192"><path
         d="m 14769,19997.4 c -387.6,-78 -655.3,-602.5 -346.2,-1398.7 415,-1116.8 1909.4,-678.7 1279.7,694.3 -192.5,419.1 -541.5,783.5 -933.5,704.4 z"
         clip-rule="evenodd"
         id="path190" /></clipPath></defs><sodipodi:namedview
     pagecolor="#ffffff"
     bordercolor="#666666"
     borderopacity="1"
     objecttolerance="10"
     gridtolerance="10"
     guidetolerance="10"
     inkscape:pageopacity="0"
     inkscape:pageshadow="2"
     inkscape:window-width="640"
     inkscape:window-height="480"
     id="namedview4" /><g
     id="g10"
     inkscape:groupmode="layer"
     inkscape:label="ink_ext_XXXXXX"
     transform="matrix(1.3333333,0,0,-1.3333333,0,5847.9067)"><g
       id="g12"
       transform="scale(0.1)"><path
         d="M 0,43859.3 H 43859.3 V 0 H 0 v 43859.3 0"
         style="fill:#ffffff;fill-opacity:1;fill-rule:evenodd;stroke:none"
         id="path14" /><path
         d="m 29870.3,14752.8 c -496,-155.6 -710.1,48.7 -488.4,245.4 211.9,188 508.5,37.1 488.4,-245.4 z m 726.6,813.1 c -12.6,81.1 -139.2,100.5 -153.2,8.6 -32.3,-214.4 -103.9,-423.6 -236.2,-584.1 -121.4,203.2 -355.7,342.9 -704.7,354 -614,19.5 -755.1,-716.3 -162.9,-902.6 189.3,-59.6 375.6,-52.9 545.7,0 -23.4,-52.4 -66.2,-104 -134.7,-175.8 -92.2,-96.4 -207.4,-173 -323.6,-235.9 -302.1,-163.7 -583.9,-198.2 -851.3,44.6 -208.8,189.6 -503.6,-86.9 -361.5,-317.6 439.1,-713.6 1471.7,-343.6 1867.1,217.8 168.7,239.3 240.8,495.7 219.3,721.9 220.7,222 346.9,541.8 296,869.1 v 0"
         style="fill:#f06d39;fill-opacity:1;fill-rule:evenodd;stroke:none"
         id="path16" /><path
         d="m 15111.4,17437.1 c -1155.2,680.4 -3188.1,1770.7 -4038.1,1874.9 -1543.76,189.3 -2228.32,-1479.1 -996.5,-2494.1 1304,-1074.4 4819.2,-2369.6 6090.9,-1262.2 888,772.9 -168.4,1358.6 -1056.3,1881.4 v 0"
         style="fill:#ff8454;fill-opacity:1;fill-rule:evenodd;stroke:none"
         id="path18" /><path
         d="m 10117.5,19157.9 c -807.17,-427 -974.04,-1570.9 -40.7,-2340 1304,-1074.4 4819.2,-2369.6 6090.9,-1262.2 423.8,369 404.6,695.2 172,992.3 -246.5,-166.1 -628.2,-325.9 -1217.9,-435.4 -1760.3,-326.5 -6466.14,941.1 -5004.3,3045.3 v 0"
         style="fill:#f77745;fill-opacity:1;fill-rule:evenodd;stroke:none"
         id="path20" /><path
         d="m 11514.4,19207.6 c -167.8,52.8 -317.2,89.1 -441.1,104.4 -1543.76,189.3 -2228.32,-1479.1 -996.5,-2494.1 83,-68.3 175.1,-137.6 274.6,-207 543.4,152.5 1026.9,803.7 1204.7,1461.4 89.2,290.4 111.7,600 54.6,866.8 -20.9,99.3 -53.8,188.9 -96.3,268.5 v 0"
         style="fill:#963910;fill-opacity:1;fill-rule:evenodd;stroke:none"
         id="path22" /><path
         d="m 10117.5,19157.9 c -807.17,-427 -974.04,-1570.9 -40.7,-2340 83,-68.3 175.1,-137.6 274.6,-207 204.6,57.3 400.8,185.5 575.2,358.2 -926.4,535 -1437.29,1284.5 -809.1,2188.8 v 0"
         style="fill:#802f0d;fill-opacity:1;fill-rule:evenodd;stroke:none"
         id="path24" /><path
         d="m 25829.4,19006.1 c 0,0 2143.9,-1774.3 2698.4,-5101 441.1,-2667.3 275.5,-5675.3 161.1,-7027.7 -53.4,-630.9 -491.4,-1076.4 -1183.4,-1213.7 -797.5,-158.2 -1831.2,-101 -2556.4,-89.8 -1145.9,73.9 -1647.7,218.9 -1721.7,995.1 -74,776.2 65.6,1690.9 65.6,1690.9 -678.3,-136 -1306.4,-215.7 -1788.4,-158 0,0 113.4,-1363.3 -55.4,-2063.2 -158.1,-565.1 -4623.9,-1035.3 -5045.5,399.8 -184.7,850.2 -295.8,3068.1 -295.8,3068.1 0,0 -1515.3,1035 -1959,3844 -443.6,2809.3 554.5,5951.1 1959,6912.2 1404.6,961.2 9721.5,-1256.7 9721.5,-1256.7 v 0"
         style="fill:#ff966c;fill-opacity:1;fill-rule:evenodd;stroke:none"
         id="path26" /><path
         d="m 21508.3,8054.9 c 17.9,-245.6 90.9,-1393.5 -59.1,-2016.2 -65.3,-233.8 -868,-451.2 -1816.1,-524.2 319.5,578.4 445.8,1278.5 419.6,1742.5 -54.3,954.7 -1456.9,1122.3 -1456.9,1122.3 1507.7,-360.5 2481.9,-355.8 2912.5,-324.4 v 0"
         style="fill:#ff8454;fill-opacity:1;fill-rule:evenodd;stroke:none"
         id="path28" /><path
         d="m 25829.4,19006.1 c 0,0 2143.9,-1774.3 2698.4,-5101 441.1,-2667.3 275.5,-5675.3 161.1,-7027.7 -53.4,-630.9 -491.4,-1076.4 -1183.4,-1213.7 -492.5,-97.7 -1075.3,-113.3 -1619.6,-108.3 1738.4,1522.1 2478.3,5414.9 980.4,8287.5 -692.5,1328.1 -1424.9,2213.3 -3720.3,2535.8 -124.9,1193.3 -131.8,2302.6 -15.4,3277 1532.6,-338.6 2698.8,-649.6 2698.8,-649.6 v 0"
         style="fill:#ff8454;fill-opacity:1;fill-rule:evenodd;stroke:none"
         id="path30" /><path
         d="m 25829.4,19006.1 c 0,0 457.2,-378.7 1003.9,-1113.4 -3117.1,-2809.4 -8793.3,-3173.4 -12717.5,-1953.5 235.5,1932.2 1015.5,3655.4 1992.1,4323.6 1404.6,961.2 9721.5,-1256.7 9721.5,-1256.7 v 0"
         style="fill:#f77745;fill-opacity:1;fill-rule:evenodd;stroke:none"
         id="path32" /><path
         d="m 21516.5,6482.1 c -14.5,-161.9 -36.2,-313.8 -67.3,-443.4 -158.1,-565.1 -4623.9,-1035.3 -5045.5,399.8 -12.1,55.8 -23.8,117.4 -35.4,183.7 1341,-472.3 4140.3,-399.6 5148.2,-140.1 v 0"
         style="fill:#963910;fill-opacity:1;fill-rule:evenodd;stroke:none"
         id="path34" /><path
         d="m 21516.5,6482.1 c -14.5,-161.9 -36.2,-313.8 -67.3,-443.4 -65.3,-233.8 -868,-451.2 -1816.1,-524.2 136.2,246.9 237.4,515.9 306.5,779.3 652.2,29.7 1224.2,97.6 1576.9,188.3 v 0"
         style="fill:#802f0d;fill-opacity:1;fill-rule:evenodd;stroke:none"
         id="path36" /><path
         d="m 28643,6619.8 c -137.2,-493.9 -544.1,-838.3 -1137.5,-956.1 -797.5,-158.2 -1831.2,-101 -2556.4,-89.8 -1137.8,73.4 -1640.8,217.1 -1720.1,979.3 1026.6,-381.1 4075.1,-430.7 5414,66.6 v 0"
         style="fill:#963910;fill-opacity:1;fill-rule:evenodd;stroke:none"
         id="path38" /><path
         d="m 28643,6619.8 c -137.2,-493.9 -544.1,-838.3 -1137.5,-956.1 -492.5,-97.7 -1075.3,-113.3 -1619.6,-108.3 229.6,201.2 441.8,443.5 633.6,719.4 820.4,40.4 1601.8,151.2 2123.5,345 v 0"
         style="fill:#802f0d;fill-opacity:1;fill-rule:evenodd;stroke:none"
         id="path40" /><path
         d="m 11328.8,29300.4 c 0,0 -2140.13,1335.7 -2487.17,3229.6 -347.33,1893.7 324.44,5180.4 879.46,5510.1 555.01,329.7 4551.81,-1259.4 6502.61,-4369.3 1950.9,-3109.7 -4894.9,-4370.4 -4894.9,-4370.4 v 0"
         style="fill:#ff966c;fill-opacity:1;fill-rule:evenodd;stroke:none"
         id="path42" /><path
         d="m 11328.8,29300.4 c 0,0 -2140.13,1335.7 -2487.17,3229.6 -275.8,1504 91.17,3886.5 531.98,4968.7 -1.12,-15 -357.45,-5566.6 3052.39,-7033.8 375.2,-161.4 611.9,-397.6 734.2,-680.3 -1000.3,-330.9 -1831.4,-484.2 -1831.4,-484.2 v 0"
         style="fill:#ff8454;fill-opacity:1;fill-rule:evenodd;stroke:none"
         id="path44" /><path
         d="m 11342.9,29414 c 0,0 -1761.46,1182 -2058.75,2839 -297.29,1657.2 229.62,4524.4 681.88,4808.6 452.07,284.2 3735.37,-1132 5354.27,-3862.9 C 16939.1,30467.9 11342.9,29414 11342.9,29414 v 0"
         style="fill:#fa6544;fill-opacity:1;fill-rule:evenodd;stroke:none"
         id="path46" /><path
         d="m 11342.9,29414 c 0,0 -1761.46,1182 -2058.75,2839 -176.08,981.6 -63.06,2388.1 152.59,3430.5 190.8,-1760.4 845.96,-4296.3 2989.26,-5218.6 315.6,-135.7 532.9,-324.6 666.9,-549.4 -924.9,-345.9 -1750,-501.5 -1750,-501.5 v 0"
         style="fill:#f55b39;fill-opacity:1;fill-rule:evenodd;stroke:none"
         id="path48" /><path
         d="m 11746.4,30279.8 c -2624.58,-3289.7 -3585.53,-6099 -2735.38,-9610.5 850.24,-3511.5 5766.28,-4953 9610.48,-4990 3844.2,-36.9 9795.2,1737.3 10054,6653.4 258.9,4916.2 -1552.5,6949.1 -2883.1,8316.8 -1195,1228.1 -4356.8,2843.5 -6542.1,2866.1 -2805,28.8 -5717.1,-996 -7503.9,-3235.8 v 0"
         style="fill:#ff966c;fill-opacity:1;fill-rule:evenodd;stroke:none"
         id="path50" /><path
         d="m 13511.7,16546.9 c 1632,-579.7 3468.6,-851.8 5109.8,-867.6 3844.2,-36.9 9795.2,1737.3 10054,6653.4 86.1,1635 -57,2950.8 -335,4029.5 l -1,3.6 c -15.9,61.9 -32.3,122.6 -49.1,182.9 l -5.6,20.2 c -27.1,95.6 -55,189.2 -84,280.9 l -1.2,3.8 c -29.3,93.1 -59.9,184.4 -91.2,273.7 l -1.6,4.8 c -31.3,88.6 -63.5,175.3 -96.6,260.2 l -2.6,7.2 c -33.1,84.7 -67,167.8 -101.8,249.3 l -2.5,5.7 c -35.2,82.5 -71.3,163.3 -108.1,242.4 l -0.5,0.9 c -36.9,79.2 -74.6,156.8 -112.8,232.8 l -1.1,2 c -37.2,73.8 -75,146 -113.6,216.5 l -5.8,11.1 c -12.6,23.1 -25.4,46.3 -38.1,69.1 l -0.2,0.5 c -25.8,46.1 -51.7,91.3 -77.7,136.1 l -5.2,8.8 c -12.9,22.4 -26,44.5 -39.3,66.6 l -0.8,1.3 c -26.7,44.8 -53.7,88.9 -81,132.4 l -2.5,4.3 c -13.7,21.7 -27.3,43.5 -41.1,65.1 l -1.3,1.9 c -26.9,42.3 -54,83.9 -81.2,125 l -3.8,5.7 c -13.9,20.9 -27.7,41.6 -41.7,62 l -1,1.5 c -26,38.6 -52.4,76.7 -78.7,114.4 l -9.7,13.8 c -13.4,18.8 -26.6,37.7 -40,56.2 l -3.4,4.6 c -25.7,35.9 -51.6,71.3 -77.5,106.3 l -10.4,14.2 c -12.5,16.9 -25.3,33.9 -37.8,50.5 l -14.4,18.9 c -21.6,28.7 -43.6,57.1 -65.3,85.3 l -16.8,21.7 -34.9,44.2 -22,28 c -19.1,23.7 -38,47.3 -57.2,70.9 l -18.8,23.2 -33.1,40.4 -31.6,38 c -15.1,18 -30,35.9 -45.1,53.7 l -25,29.6 -31.4,36.7 -28.4,33 -44.8,51.5 -32.2,36.6 -26.2,29.5 -36.6,41.1 -34.3,38.2 -35.3,39 -23.6,25.9 -38.8,42.3 -32.6,35 -41.3,44.4 -14.5,15.6 -44.1,46.7 -30.2,32 -39.4,41.4 -19.4,20.4 -53.1,55.3 -0.1,0.2 -42.2,43.8 -21.2,21.8 -20.9,21.8 -41.8,42.9 c -18.5,19 -37.7,38.2 -57,57.3 l -0.5,0.6 -1.3,1.2 c -18.3,17.9 -36.8,36 -56,54.2 l -5.8,5.5 -3.9,3.8 c -15.9,14.9 -32,30.1 -48.3,45.1 l -4.1,3.8 -10.5,9.5 c -17.6,16.1 -35.4,32.3 -53.7,48.4 -1337.6,1190.5 -4249.5,2615.6 -6301,2636.7 -275.5,2.9 -552.1,-4.7 -828.6,-22.3 23.5,-5.4 5261.8,-1189.9 7637,-4744.4 207,-324.1 393,-653.3 554.2,-991.7 11.7,-25.7 23.5,-50.8 35.2,-75.6 774.4,-1669.4 945.9,-3568.3 68.9,-6174.1 -1258.4,-3739.3 -6976.9,-6515.4 -13205.3,-4960.6 v 0"
         style="fill:#ff8454;fill-opacity:1;fill-rule:evenodd;stroke:none"
         id="path52" /><path
         d="m 23959.1,28237.6 c 102.4,-114.4 92.5,-290.5 -22,-393 -114.4,-102.4 -290.3,-92.6 -392.8,21.9 -246.7,275.1 -503.5,473.5 -781.5,619.1 -279.6,146.4 -587.4,241.9 -933.4,309.6 -151.1,29.5 -250,176.1 -220.4,327.3 29.5,151.5 176.1,250.1 327.5,220.6 392.6,-76.9 749,-188.8 1084,-364.2 336.3,-176.1 644.9,-414.1 938.6,-741.3 v 0"
         style="fill:#6a270a;fill-opacity:1;fill-rule:evenodd;stroke:none"
         id="path54" /><path
         d="m 11969.3,29666.5 c 146.3,12.8 275.3,-100.9 287.6,-254 12.2,-153.2 -96.5,-287.7 -243.1,-300.7 -352.3,-31.3 -651.7,-116.8 -923.1,-251.2 -272.9,-135.2 -523.2,-323.6 -774.1,-558.9 -109.9,-103 -278.7,-93.6 -377.34,21 -98.45,114.7 -89.38,291.2 20.23,394.3 284.91,267.2 575.71,484.3 902.61,646.3 328.4,162.5 687.8,265.7 1107.2,303.2 v 0"
         style="fill:#6a270a;fill-opacity:1;fill-rule:evenodd;stroke:none"
         id="path56" /><path
         d="m 23626.4,25997.6 c 1.6,0 1.6,2.5 0,2.5"
         style="fill:none;stroke:#fad8d9;stroke-width:0.0605499;stroke-linecap:round;stroke-linejoin:round;stroke-miterlimit:4;stroke-dasharray:none;stroke-opacity:1"
         id="path58" /><path
         d="m 11952.3,23235.4 c -100.5,-1037.4 110.2,-2277.6 2326.9,-2535.5 2216.5,-258 4586.5,-750.7 5004,1039.1 417.8,1789.7 256.2,2624.3 -947.4,2917 -789.5,192 -3545.3,585.2 -5116.8,246.2 -865,-186.5 -1166,-629.6 -1266.7,-1666.8 v 0"
         style="fill:#fa6544;fill-opacity:1;fill-rule:evenodd;stroke:none"
         id="path60" /><path
         d="m 19371.5,22147.2 c 4.6,23.5 9.3,47.2 13.6,70.3 l -13.6,-70.3 z m -16.8,-83.7 c 5.4,25.9 10.6,51.4 15.5,77 l -15.5,-77 z m -32.8,-153.9 c 5.5,25 11,50.1 16.2,74.8 l -16.2,-74.8 z m -19.5,-87.4 c 6.4,27.5 12.3,54.8 18.3,81.9 l -18.3,-81.9 z m -894.6,-1158.6 21.4,9.5 c 14,6.4 27.9,12.9 41.4,19.7 l 23.9,11.8 c 12.5,6.3 25.2,12.9 37.5,19.4 8.3,4.5 16.7,9.2 25,13.8 12,6.8 23.9,13.7 35.7,20.6 8.5,5 16.9,10.2 25.2,15.2 11.5,7.2 23.1,14.5 34.4,22.1 9.2,6 18.5,12.1 27.7,18.5 8.5,5.8 17.1,11.9 25.8,18.1 11.1,8 21.9,15.9 32.8,24.2 7.9,6 15.9,12.2 23.7,18.5 11.2,8.9 22.4,17.9 33.2,27.2 l 18.5,15.9 c 11.5,10 22.9,20.4 34.1,30.9 l 15.7,14.7 c 11.8,11.4 23.4,22.9 34.7,34.9 l 12.9,13.6 c 12,12.6 23.8,25.6 35.1,38.7 l 11.4,13.3 c 11.7,13.8 23.1,27.8 34.4,42.1 l 9.4,12.3 c 12,15.7 23.8,31.7 35.2,48 l 5.6,8.3 c 11.7,16.9 23,34.1 34.1,51.8 l 5.3,8.6 c 11.1,18 21.9,36.6 32.4,55.4 l 3.9,6.9 c 10.5,19.2 20.9,38.9 30.7,59.1 l 3.6,7.3 c 10,20.5 19.6,41.5 29.1,63.2 l 2,4.6 c 9.5,22.3 18.8,45.3 27.6,68.6 l 1.2,3.1 c 8.9,23.6 17.4,47.8 25.4,72.5 l 1.1,3.1 c 8,24.9 15.9,50.4 23,76.1 l 0.6,2.5 c 7.5,26.5 14.4,53.6 20.7,81.3 6.2,26.2 12.2,52.3 18.1,78.2 l 1.1,5 c 6.4,27.5 12.3,54.8 18.3,81.9 l 1.2,5.5 c 5.5,25 11,50.1 16.2,74.8 l 0.1,0.8 c 5.4,24.9 10.6,49.8 15.6,74.3 l 0.9,4 c 5.4,25.9 10.6,51.4 15.5,77 l 0.1,0.7 1.2,6 c 4.6,23.7 9.3,47.2 13.6,70.3 l 0.3,1.4 c 4.3,23.8 8.9,47.3 13,70.6 l 0.5,3.1 v 0 c 8.8,49.2 17.1,97.5 24.7,145 l 0.1,0.9 0.5,1.9 c 3.6,22.1 6.8,44 10.1,65.6 l 0.1,1.2 0.5,2.4 0.4,3.5 c 3.3,21.6 6.4,43 9.4,64.2 l 0.3,1.9 0.9,6.8 c 2.8,20.7 5.5,41.3 8,61.6 v 0.2 l 0.5,2.4 c 149,1173.3 -141.3,1768.2 -1118.6,2005.8 -497.5,121 -1776,321.9 -3046.9,369 47.5,-4 1976.9,-204.5 2789.8,-666.3 666,-378.4 835.2,-830.4 861.2,-1449.2 2,-45.5 3.8,-91.6 5.4,-137.7 2.6,-1531.3 -567.2,-1957 -1622.2,-2072.6 -955.8,-104.7 -2392.1,0.1 -3043.9,0.7 1536.1,-179 3146,-470.2 4128.6,-36.3 v 0"
         style="fill:#e6502e;fill-opacity:1;fill-rule:evenodd;stroke:none"
         id="path62" /><path
         d="m 27995,11963.9 c -55,85.3 -171,134 -240.7,33.2 -29.6,-43 -46.1,-106.4 -53.3,-171 -15,-71.5 -5.3,-155.1 4.1,-216.2 14.5,-96.3 45.4,-268.3 179.9,-245.2 105.5,18.1 156.9,161.6 174.1,253.3 21.6,116.8 0.5,245.4 -64.1,345.9 v 0"
         style="fill:#ff966c;fill-opacity:1;fill-rule:evenodd;stroke:none"
         id="path64" /><path
         d="m 28395.9,11531.2 c -43.6,46.4 -115,55.2 -164.7,14.3 -54.5,-45.1 -80.7,-142.3 -63.5,-220 0.3,-14 0.8,-27.8 2.3,-41.4 5.6,-60.6 14.2,-138.7 78.1,-165.5 137.4,-57.8 188.1,156 191.5,248.7 1.9,55.1 -3.9,121.7 -43.7,163.9 v 0"
         style="fill:#ff966c;fill-opacity:1;fill-rule:evenodd;stroke:none"
         id="path66" /><path
         d="m 27217.3,12378.2 c -61.9,21.4 -144.9,-13.9 -175.3,-71.4 -45.4,-85.6 18.1,-399.2 187,-338.6 90.9,32.8 143.2,103.3 140.3,201.2 -3.2,96.2 -61.4,177.3 -152,208.8 v 0"
         style="fill:#f77745;fill-opacity:1;fill-rule:evenodd;stroke:none"
         id="path68" /><path
         d="m 28444,7875.3 c -24.7,158.5 -209.3,478.5 -380.1,259.2 -126.2,-162.3 -100.1,-644.4 95.5,-721.6 237.5,-93.8 307.9,312 284.6,462.4 v 0"
         style="fill:#ff966c;fill-opacity:1;fill-rule:evenodd;stroke:none"
         id="path70" /><path
         d="m 27923.3,9469.8 c -34,71.4 -157.1,72.7 -190.9,0 -39.8,-86.7 -43,-281.5 -0.6,-365.9 37.4,-73.6 142.5,-63.2 182.2,0 72.4,115.4 66.1,246.4 9.3,365.9 v 0"
         style="fill:#ff966c;fill-opacity:1;fill-rule:evenodd;stroke:none"
         id="path72" /><path
         d="m 28454.8,9047.3 c -0.6,99.1 -26.4,364.8 -195.6,280.3 -133.4,-66.1 -175.6,-523.8 -16.7,-588.1 67.6,-27.4 137.9,5.2 175.2,64.8 43.6,69.8 37.7,163.9 37.1,243 v 0"
         style="fill:#ff966c;fill-opacity:1;fill-rule:evenodd;stroke:none"
         id="path74" /><path
         d="m 28015.6,7337.4 c -25.6,75.5 -101.9,125.2 -181.9,103.3 -78,-21.6 -123.4,-104.3 -103.2,-182 7.9,-30.6 10.9,-62.9 19.3,-93.3 8,-30 25.2,-58 35.7,-87.5 23.4,-65.3 57.6,-144.5 142.7,-125.4 70.1,15.7 91.2,90 104.1,151.6 8.5,40.1 16.2,81 11.6,121.6 -4.1,38.2 -16.1,75.5 -28.3,111.7 v 0"
         style="fill:#ff966c;fill-opacity:1;fill-rule:evenodd;stroke:none"
         id="path76" /><path
         d="m 27695.1,15789 c -4.8,11.1 -9.7,21.9 -14.2,33 -16.2,38.7 11.2,-25.2 -11,27.8 -23.2,54.7 -70.7,116.5 -117,154 l -0.6,-2.6 c -37.8,36.3 -91.1,57.5 -145.3,50.2 -130.7,-17.6 -175.5,-147.9 -126.8,-258.1 22.2,-50.6 56.8,-102 90.1,-145.2 -18.6,24.1 19.9,-29.6 23.6,-35.1 24.1,-36.3 47.2,-60.9 83.6,-85.5 47.7,-32.1 117.4,-28.1 165.6,0 52.6,31 76.5,82.6 81.2,141.7 3.4,44.7 -12.1,79.9 -29.2,119.8 v 0"
         style="fill:#ff966c;fill-opacity:1;fill-rule:evenodd;stroke:none"
         id="path78" /><path
         d="m 27704.5,15389.6 c -64.9,-4.3 -124.8,-52.9 -122.9,-122.9 3.5,-133.7 273.7,-351.3 320.8,-209.1 45.2,135.2 -44,342.2 -197.9,332 v 0"
         style="fill:#ff966c;fill-opacity:1;fill-rule:evenodd;stroke:none"
         id="path80" /><path
         d="m 28192.6,12867.8 c -42.7,105.8 -195.4,94.8 -202.8,-27.2 -3.5,-55.1 -13.2,-111.9 9.3,-165 21.3,-50 28.5,-100.1 77.3,-132.1 29.1,-18.9 70.1,-10.8 93.9,12.2 39,37.6 38.3,89.7 43.4,140.5 11,57.3 1.6,115.3 -21.1,171.6 v 0"
         style="fill:#ff966c;fill-opacity:1;fill-rule:evenodd;stroke:none"
         id="path82" /><path
         d="m 21406.5,32608 c 297.5,435 1906.1,2718.4 3905.4,4251.2 2217.7,1700.4 2957,1922.1 3437.6,887.3 362.4,-780.5 1082.3,-3453.4 1223.8,-4989.7 39.3,-425.1 -233.4,-1258.1 -476.4,-1619.7 -435.7,-648.3 -1357.2,-2007.1 -2552.8,-2511 l -359.5,112.1 c -1466.1,1921 -4065.7,3310.5 -5178.1,3869.8 v 0"
         style="fill:#ff966c;fill-opacity:1;fill-rule:evenodd;stroke:none"
         id="path84" /><path
         d="m 28749.5,37746.5 c 362.4,-780.5 1082.3,-3453.4 1223.8,-4989.7 39.3,-425.1 -233.4,-1258.1 -476.4,-1619.7 -435.7,-648.3 -1357.2,-2007.1 -2552.8,-2511 l -359.5,112.1 c -359.3,470.9 -787,910 -1244.2,1312.7 4299.7,654.6 3409.1,7695.6 3409.1,7695.6 v 0"
         style="fill:#ff8454;fill-opacity:1;fill-rule:evenodd;stroke:none"
         id="path86" /><path
         d="m 21850.7,32379.6 c 547.4,732.6 1767.5,2253.7 3218.3,3354 1978.1,1500.2 2637.4,1704.6 3066,827.4 323.3,-661.5 965.2,-2937.2 1091.6,-4250.5 35,-363.3 -208.3,-1082.4 -425,-1396.9 -381.3,-553.5 -1179.9,-1702.6 -2217.4,-2175.4 -1295.7,1697.8 -3476.2,2980.2 -4733.5,3641.4 v 0"
         style="fill:#fa6544;fill-opacity:1;fill-rule:evenodd;stroke:none"
         id="path88" /><path
         d="m 28740.8,34732.2 c 222.3,-829.5 421.4,-1751 485.8,-2421.7 35,-363.3 -208.3,-1082.4 -425,-1396.9 -381.3,-553.5 -1179.9,-1702.6 -2217.4,-2175.4 -359.4,471.1 -786.9,910 -1244.1,1312.7 h 0.3 c 2380.6,362.2 3169.8,2682.3 3400.4,4681.3 v 0"
         style="fill:#f55b39;fill-opacity:1;fill-rule:evenodd;stroke:none"
         id="path90" /><path
         d="m 12926.8,22996.9 c 0,0 10.7,-444.8 130.3,-728.5 226.9,-537.3 943.9,-189.8 687.6,757.2 -216.5,799.8 -817.9,-28.7 -817.9,-28.7 v 0"
         style="fill:#ff7759;fill-opacity:1;fill-rule:evenodd;stroke:none"
         id="path92" /><path
         d="m 13759.6,22874.4 c -79,1268.3 -1110.2,855.9 -764.1,-230.6 67.3,-211.9 215.5,-521.4 495.6,-441.1 254.8,73 281.7,454.6 268.5,671.7 v 0"
         style="fill:#d13917;fill-opacity:1;fill-rule:evenodd;stroke:none"
         id="path94" /><path
         d="m 16056,22741.4 c 0,0 -77.6,-444.8 -14,-728.6 120.3,-537.3 906.1,-189.7 837.4,757.2 -58,799.9 -823.4,-28.6 -823.4,-28.6 v 0"
         style="fill:#ff7759;fill-opacity:1;fill-rule:evenodd;stroke:none"
         id="path96" /><path
         d="m 16935.6,22949.5 c -108.1,578.4 -828,586 -916.8,-221.6 -24.3,-224.8 -48.3,-608.5 152,-764.8 232.7,-182 487.3,57.5 615.8,249.7 142.8,213.8 195.9,484 149,736.7 v 0"
         style="fill:#d13917;fill-opacity:1;fill-rule:evenodd;stroke:none"
         id="path98" /><path
         d="m 17426.6,8984 c 2978.2,-1359.6 7699.2,-578.8 9449.7,2113.9 102.5,37 -94.5,-2227.5 -3831.9,-2885.7 -3665,-632 -5104.7,592.8 -5617.8,771.8 v 0"
         style="fill:#f77745;fill-opacity:1;fill-rule:evenodd;stroke:none"
         id="path100" /><path
         d="m 27024.2,7981.3 c -45.4,90.8 -155.5,151.8 -235.8,58.9 -34.2,-39.5 -57.4,-100.7 -71.4,-164.2 -22.8,-69.3 -21.9,-153.3 -19.3,-215.2 4,-97.3 16.1,-271.8 152.4,-263.3 106.6,6.8 173.5,143.8 200.4,233.1 34,113.7 26.9,243.9 -26.3,350.7 v 0"
         style="fill:#f77745;fill-opacity:1;fill-rule:evenodd;stroke:none"
         id="path102" /><path
         d="m 27233.2,8380 c -14.4,56.7 -67.4,97.2 -127,85.7 -58.3,-11.4 -96.1,-69.4 -85.8,-127.1 4.1,-23 4.6,-46.6 9,-69.2 4.2,-22.5 15.2,-43.9 21.2,-66 13.3,-49.1 33.9,-109 97.2,-99.6 52.1,7.5 71.5,60.6 84.7,104.8 8.3,28.8 16.4,58.1 15.1,88.2 -0.8,28.1 -7.4,56.1 -14.4,83.2 v 0"
         style="fill:#f77745;fill-opacity:1;fill-rule:evenodd;stroke:none"
         id="path104" /><path
         d="m 14541.6,15266.4 c -54.9,85.5 -170.9,134 -240.7,33.2 -29.7,-43 -46.2,-106.2 -53.2,-170.9 -15.2,-71.4 -5.1,-154.9 4,-216.1 14.4,-96.5 45.4,-268.5 179.9,-245.3 105.3,18.1 157.1,161.8 174.1,253.5 21.5,116.5 0.5,245.2 -64.1,345.6 v 0"
         style="fill:#f77745;fill-opacity:1;fill-rule:evenodd;stroke:none"
         id="path106" /><path
         d="m 14340.1,14508.6 c -62,21.6 -144.9,-13.8 -175.3,-71.3 -45.4,-85.7 18.1,-399.2 187,-338.6 90.9,32.8 143.2,103.4 140.2,201.1 -3.1,96.2 -61.2,177.3 -151.9,208.8 v 0"
         style="fill:#f77745;fill-opacity:1;fill-rule:evenodd;stroke:none"
         id="path108" /><path
         d="m 14764.9,14623.6 c -11.9,46.1 -54.8,79.1 -103.3,69.8 -47.3,-9.3 -78.1,-56.3 -69.6,-103.5 3.3,-18.4 3.6,-37.8 7.3,-56 3.2,-18.4 12.2,-35.8 17.2,-53.8 10.9,-39.9 27.5,-88.6 78.9,-81 42.3,6.1 58.2,49.2 68.8,85.3 6.8,23.3 13.4,47.3 12.5,71.7 -0.8,22.8 -6.1,45.6 -11.8,67.5 v 0"
         style="fill:#f77745;fill-opacity:1;fill-rule:evenodd;stroke:none"
         id="path110" /><path
         d="m 14642.4,12505.8 c -11.6,46 -54.7,79 -103.2,69.7 -47.5,-9.3 -78.3,-56.4 -69.8,-103.4 3.4,-18.7 3.6,-37.8 7.2,-56.3 3.5,-18.2 12.5,-35.6 17.4,-53.6 10.8,-39.9 27.5,-88.5 78.9,-80.9 42.4,6 58.3,49.1 68.8,85.3 6.8,23.3 13.3,47.3 12.5,71.5 -0.8,23 -6.2,45.7 -11.8,67.7 v 0"
         style="fill:#f77745;fill-opacity:1;fill-rule:evenodd;stroke:none"
         id="path112" /><path
         d="m 14761.6,12701.4 c -4.3,17 -14.4,31.4 -27.7,40.7 -13.4,9.3 -30.1,13.8 -47.9,10.4 -93.3,-18.3 -40.3,-225.2 24.6,-215.7 31.1,4.5 42.9,36.1 50.5,62.6 4.9,17 9.8,34.6 9.1,52.5 -0.5,16.7 -4.5,33.3 -8.6,49.5 v 0"
         style="fill:#f77745;fill-opacity:1;fill-rule:evenodd;stroke:none"
         id="path114" /><path
         d="m 20174.4,32784.5 c -101.5,-1.4 -204.4,-73.9 -155.7,-186.7 20.6,-47.8 65.8,-95.3 116.9,-135.6 52.6,-50.7 128.4,-86.5 185.2,-111 89.5,-38.8 251.8,-103.7 303.4,22.5 40.5,98.9 -54.1,218.9 -122.5,282 -87.6,80.1 -208,130.3 -327.3,128.8 v 0"
         style="fill:#ff8454;fill-opacity:1;fill-rule:evenodd;stroke:none"
         id="path116" /><path
         d="m 19886.6,32379.4 c -59.5,-23.7 -93.8,-86.7 -74,-148 21.6,-67.4 102.5,-127.3 181,-140.2 13.1,-4.8 26.2,-9.3 39.4,-13.1 58.3,-16.9 134.2,-37.7 182.7,11.7 104.4,106.3 -75.7,232.2 -160.6,269.7 -50.6,22.1 -114.6,41.3 -168.5,19.9 v 0"
         style="fill:#ff8454;fill-opacity:1;fill-rule:evenodd;stroke:none"
         id="path118" /><path
         d="m 19722.4,32583.6 c 57.3,32.2 85.8,117.6 62.8,178.6 -33.8,90.6 -310.8,251.2 -377.4,84.6 -35.7,-89.6 -17.7,-175.6 57.6,-238.3 74,-61.4 173.4,-71.8 257,-24.9 v 0"
         style="fill:#ff8454;fill-opacity:1;fill-rule:evenodd;stroke:none"
         id="path120" /><path
         d="m 28325.8,21419.1 c -30.8,79.4 -162.8,90.8 -204.9,15.3 -49.8,-89.6 -68.9,-298.6 -30.2,-392.5 34.1,-81.9 147.5,-79.3 195.4,-14.6 87.1,117.9 90.9,259 39.7,391.8 v 0"
         style="fill:#ff966c;fill-opacity:1;fill-rule:evenodd;stroke:none"
         id="path122" /><path
         d="m 22924.8,31363.9 c -74.7,65.2 -290.5,222.4 -339.7,39.7 -38.8,-143.7 275.4,-479 429,-402.6 65.2,32.2 87.6,106.4 67.6,173.8 -23.1,79.1 -97.5,136.9 -156.9,189.1 v 0"
         style="fill:#ff8454;fill-opacity:1;fill-rule:evenodd;stroke:none"
         id="path124" /><path
         d="m 22439.2,31058.4 c 108.5,-34.7 197.7,89.6 108.5,173.4 -40.3,37.8 -77.6,81.8 -132.9,98.3 -51.9,15.5 -95.3,41.9 -150.9,24.8 -33.3,-10.2 -53.1,-46.8 -50.8,-79.8 4.1,-54.2 44.8,-87 80.5,-123.3 37,-45 87.6,-74.9 145.6,-93.4 v 0"
         style="fill:#ff8454;fill-opacity:1;fill-rule:evenodd;stroke:none"
         id="path126" /><path
         d="m 28007.9,20554.3 c 22.2,124 51.5,462 -179.5,395.9 -182,-51.9 -340.7,-614.2 -156.9,-731.2 78,-49.9 173.4,-25.6 233.7,40.4 70.8,77 85,196 102.7,294.9 v 0"
         style="fill:#ff966c;fill-opacity:1;fill-rule:evenodd;stroke:none"
         id="path128" /><path
         d="m 28050.5,21781.8 c -20.6,52.8 -108.2,60.5 -136.3,10.4 -33,-59.6 -45.8,-198.4 -20,-260.8 22.5,-54.3 98,-52.6 129.7,-9.8 57.9,78.4 60.6,172.2 26.6,260.2 v 0"
         style="fill:#ff966c;fill-opacity:1;fill-rule:evenodd;stroke:none"
         id="path130" /><path
         d="m 28316,25745.7 c -32.1,46.9 -119.1,34.1 -135,-21 -18.5,-65.7 0.9,-203.6 40.2,-258.5 34.6,-47.7 107.6,-28.9 128.6,20.2 38.3,89.4 19.4,181.3 -33.8,259.3 v 0"
         style="fill:#ff966c;fill-opacity:1;fill-rule:evenodd;stroke:none"
         id="path132" /><path
         d="m 28178.9,25345.5 c -27.5,40.1 -102.2,29.2 -115.7,-18.1 -15.9,-56.4 0.7,-174.6 34.5,-221.6 29.6,-40.9 92,-24.6 110.2,17.3 33,76.7 16.6,155.6 -29,222.4 v 0"
         style="fill:#ff966c;fill-opacity:1;fill-rule:evenodd;stroke:none"
         id="path134" /><path
         d="m 24798.1,12836.4 c 32,45.1 61.1,91.2 95.7,134.5 87.9,110 405,18.3 36.2,-255.2 -79.4,-59.1 -193.4,33.9 -131.9,120.7 v 0"
         style="fill:#f77745;fill-opacity:1;fill-rule:evenodd;stroke:none"
         id="path136" /><path
         d="m 24077.2,12507.5 c 90.6,113.2 332.1,373.8 498.8,220.8 63.1,-57.6 67.2,-143.5 24.8,-215.3 -78.6,-131.9 -221.6,-209.3 -364.4,-251.9 -131.4,-39 -242.1,143.2 -159.2,246.4 v 0"
         style="fill:#f77745;fill-opacity:1;fill-rule:evenodd;stroke:none"
         id="path138" /><path
         d="m 21362.5,7056.5 c -14.6,56.6 -67.4,97.2 -127.2,85.7 -58.2,-11.5 -95.9,-69.3 -85.7,-127.2 4.2,-22.9 4.6,-46.6 9,-69.2 4.2,-22.5 15,-43.9 21.2,-66 13.4,-49 33.9,-108.9 97.1,-99.6 52.2,7.6 71.7,60.6 84.7,105 8.4,28.8 16.3,58.2 15.3,88.1 -1,28.1 -7.6,56.1 -14.4,83.2 v 0"
         style="fill:#ff966c;fill-opacity:1;fill-rule:evenodd;stroke:none"
         id="path140" /><path
         d="m 21059.7,7236.7 c -10.2,40.1 -47.9,68.9 -90,60.8 -41.7,-8.1 -68.4,-49.1 -61.1,-90.3 3.2,-16.2 3.3,-33 6.4,-49 2.9,-16 10.7,-31.3 15.1,-46.8 9.5,-34.9 24.1,-77.4 69,-70.8 37,5.3 50.7,43 60.1,74.4 5.9,20.5 11.5,41.3 10.9,62.6 -0.8,19.9 -5.4,39.8 -10.4,59.1 v 0"
         style="fill:#ff966c;fill-opacity:1;fill-rule:evenodd;stroke:none"
         id="path142" /><path
         d="m 24207.2,17478.1 c -1185.2,626.6 -3266.1,1622.4 -4120,1687.5 -1550.8,118.3 -2158.1,-1579.6 -881,-2537.1 1352,-1013.4 4922.8,-2146 6142.5,-981.5 851.5,813 -230.6,1349.5 -1141.5,1831.1 v 0"
         style="fill:#ff8454;fill-opacity:1;fill-rule:evenodd;stroke:none"
         id="path144" /><path
         d="m 18843.3,18728.6 c -500.9,-546.5 -465.7,-1479 362.9,-2100.1 1352,-1013.4 4922.8,-2146 6142.5,-981.5 412.6,393.9 371.3,722.8 115.6,1012.1 v 0 c 0,0 -0.9,-830.1 -1847,-820 -1450.1,7.9 -4601.5,1406 -4774,2889.5 v 0"
         style="fill:#f77745;fill-opacity:1;fill-rule:evenodd;stroke:none"
         id="path146" /><path
         d="m 20532.9,19081.7 c -170.3,45.1 -321,74.5 -445.7,83.9 -1550.8,118.3 -2158.1,-1579.6 -881,-2537.1 86.1,-64.4 181.2,-129.3 284.2,-194.2 535.7,177.1 988.7,850.1 1135.9,1515 76,294.2 84.2,604.5 15,868.6 -25.6,98.2 -62.5,186.1 -108.4,263.8 v 0"
         style="fill:#963910;fill-opacity:1;fill-rule:evenodd;stroke:none"
         id="path148" /><path
         d="m 18843.3,18728.6 c -500.9,-546.5 -465.7,-1479 362.9,-2100.1 86.2,-64.4 181.2,-129.3 284.2,-194.2 278.4,92.2 534.6,318.2 737,607.6 -746,488.7 -1313.6,1080.4 -1384.1,1686.7 v 0"
         style="fill:#802f0d;fill-opacity:1;fill-rule:evenodd;stroke:none"
         id="path150" /><path
         d="m 21441.4,16768.4 c -76.9,9.5 -153.1,15 -229.5,29 -194.2,35.7 -290.8,488.7 291.2,213.9 125.9,-58.8 86.4,-261.4 -61.7,-242.9 v 0"
         style="fill:#f77745;fill-opacity:1;fill-rule:evenodd;stroke:none"
         id="path152" /><path
         d="m 22023.2,16343 c -144.8,2.7 -498.6,35.1 -479.2,260.5 7.3,85.3 72.8,141 155.7,150.9 152.4,18.5 300.9,-47.8 421.8,-134.8 111,-80.3 34.1,-279.3 -98.3,-276.6 v 0"
         style="fill:#f77745;fill-opacity:1;fill-rule:evenodd;stroke:none"
         id="path154" /><path
         d="m 21955.4,16850.4 c -372.8,46.3 -341.8,352.1 43.4,170.3 88.2,-41.3 60.6,-183.2 -43.4,-170.3 v 0"
         style="fill:#f77745;fill-opacity:1;fill-rule:evenodd;stroke:none"
         id="path156" /><path
         d="m 10629.6,26564.2 c -647.95,0 -1173.45,-525.4 -1173.45,-1173.5 0,-648.2 525.5,-1173.5 1173.45,-1173.5 648.1,0 1173.6,525.3 1173.6,1173.5 0,648.1 -525.5,1173.5 -1173.6,1173.5 v 0"
         style="fill:#f77745;fill-opacity:1;fill-rule:evenodd;stroke:none"
         id="path158" /><path
         d="m 10553.3,26548.4 c 579.9,82 1113.4,-343.4 1191.8,-950.1 78.4,-606.6 -328.2,-1164.9 -908.1,-1246.9 -579.8,-82 -1113.53,343.5 -1191.76,950.1 -78.37,606.5 328.08,1164.8 908.06,1246.9 v 0"
         style="fill:#fefefe;fill-opacity:1;fill-rule:nonzero;stroke:none"
         id="path160" /><path
         d="m 11729.6,25689.8 c 6.4,-30 11.6,-60.5 15.5,-91.5 78.4,-606.6 -328.2,-1164.9 -908.1,-1246.9 -63.3,-9 -125.7,-11.9 -187.3,-9.2 -208.1,206.9 -306.4,514.2 -232.3,820.5 112.7,466 581.8,752.4 1047.8,639.7 96.4,-23.3 185.2,-61.8 264.4,-112.6 v 0"
         style="fill:#3b1200;fill-opacity:1;fill-rule:evenodd;stroke:none"
         id="path162" /><path
         d="m 23259.9,25758.4 c 1.6,-0.2 1.8,2.2 0.4,2.4"
         style="fill:none;stroke:#000000;stroke-width:0.0561324;stroke-linecap:round;stroke-linejoin:round;stroke-miterlimit:4;stroke-dasharray:none;stroke-opacity:1"
         id="path164" /><path
         d="m 22300.1,25601.5 c 704.3,-72.7 1216.3,-702.6 1143.5,-1406.9 -72.6,-704.2 -702.6,-1216.2 -1407,-1143.5 -704,72.8 -1216,702.7 -1143.4,1406.8 72.8,704.4 702.4,1216.4 1406.9,1143.6 v 0"
         style="fill:#f77745;fill-opacity:1;fill-rule:evenodd;stroke:none"
         id="path166" /><path
         d="m 22335.2,25580.5 c -650,157.1 -1304.3,-242.4 -1461.4,-892.4 -157.2,-650.1 242.4,-1304.4 892.4,-1461.5 650,-157.3 1304.3,242.4 1461.6,892.4 157.2,650.1 -242.6,1304.4 -892.6,1461.5 v 0"
         style="fill:#fefefe;fill-opacity:1;fill-rule:nonzero;stroke:none"
         id="path168" /><path
         d="m 22066.6,23192.4 c 540.4,6.8 1028.1,377.3 1161,926.6 22.6,93.6 33.7,187.1 34.2,279.3 -116.6,178.8 -299.1,315 -522.8,369.2 -466.1,112.6 -935.2,-173.8 -1047.8,-639.9 -89.3,-369.5 72.4,-741 375.4,-935.2 v 0"
         style="fill:#3b1200;fill-opacity:1;fill-rule:evenodd;stroke:none"
         id="path170" /><path
         d="m 22019.7,24848.2 c 199.9,-20.5 345.3,-199.5 324.5,-399.3 -20.7,-199.9 -199.4,-345.3 -399.2,-324.6 -200,20.6 -345.3,199.5 -324.6,399.2 20.5,200 199.4,345.4 399.3,324.7 v 0"
         style="fill:#fefefe;fill-opacity:1;fill-rule:nonzero;stroke:none"
         id="path172" /><path
         d="m 10894.6,23805.5 c -309,88.6 -698.1,74.5 -1038.84,-44.2 -62.69,-11.9 -118.61,-35.7 -168.58,-69 -326.44,-156.6 -580.75,-422.2 -626.7,-799.3 -172.67,-1415.8 2370.72,-963.9 2537.62,128.5 67.3,438.2 -337.3,678.9 -703.5,784 v 0"
         style="fill:#f76954;fill-opacity:1;fill-rule:evenodd;stroke:none"
         id="path174" /><path
         d="m 23172.1,22428.7 c -1579,1193.1 -3394.4,-80.3 -2238.9,-1120 545.6,-490.4 1648,-613.7 2317.8,-327.8 688,293.8 379.3,1101.4 -78.9,1447.8 v 0"
         style="fill:#f76954;fill-opacity:1;fill-rule:evenodd;stroke:none"
         id="path176" /><path
         d="m 16902.2,35439.5 c 8.5,32.5 58.2,19.4 62.2,-10.7 55.1,-415.1 76.7,-777.7 318.7,-1162.4 55.8,-88.8 122.2,-177.2 196.3,-262.6 -273.5,701 -130.8,1567.6 234.9,2170.3 20.2,33.5 74.9,5.7 68,-28.8 -114.9,-570.6 -210.9,-1153.9 -60.1,-1745.3 67.8,-265.1 190.4,-528 426.2,-716.1 19.7,-15.9 39.9,-30 60.3,-43 -218.8,377.9 -239.9,845.5 -206.2,1263 2.6,33.3 46.8,27.1 54.2,-1.9 99,-415.5 167.8,-1101 569.2,-1353.5 64.8,-40.7 113.7,-77.2 149.3,-109.1 17.7,-7 35.4,-14.8 53.1,-23.1 67.8,-32.3 83.2,-131.4 27.5,-171.7 -203.5,-146.7 -445.1,-118.1 -669.6,-5.3 -466.2,-6.9 -875.5,361.2 -1126,704 -331.4,453.8 -282.3,1015.3 -158,1496.2 v 0"
         style="fill:#6a270a;fill-opacity:1;fill-rule:evenodd;stroke:none"
         id="path178" /><path
         d="m 10745.8,25883.2 c 200,-20.7 345.2,-199.4 324.7,-399.4 -20.7,-199.8 -199.4,-345.2 -399.4,-324.5 -199.8,20.6 -345.2,199.5 -324.6,399.2 20.8,200 199.4,345.2 399.3,324.7 v 0"
         style="fill:#fefefe;fill-opacity:1;fill-rule:nonzero;stroke:none"
         id="path180" /><path
         d="m 14869.8,19838 c -388,-78 -655.6,-602.4 -346.5,-1398.6 415.1,-1116.9 1909.5,-678.8 1279.7,694.3 -192.4,419 -541.3,783.4 -933.2,704.3 v 0"
         style="fill:#ffad8c;fill-opacity:1;fill-rule:evenodd;stroke:none"
         id="path182" /><path
         d="m 14769,19997.4 c -387.6,-78 -655.3,-602.5 -346.2,-1398.7 415,-1116.8 1909.4,-678.7 1279.7,694.3 -192.5,419.1 -541.5,783.5 -933.5,704.4 v 0"
         style="fill:#a82103;fill-opacity:1;fill-rule:evenodd;stroke:none"
         id="path184" /><g
         id="g186"><g
           id="g188"
           clip-path="url(#clipPath192)"><path
             d="m 16588.8,18068.6 c -50.7,276.5 -497.3,397.7 -769.6,457.9 -886.5,196.5 -1714,-24.4 -2040.3,-749 -19.2,-42.5 47.6,-88 95.3,-72.2 145.2,-570.5 1676.5,-358 2066.5,-229.1 280.5,92.5 704.4,283.7 648.1,592.4 v 0"
             style="fill:#e63f29;fill-opacity:1;fill-rule:evenodd;stroke:none"
             id="path194" /><path
             d="m 16588.8,18068.6 c -50.7,276.5 -497.3,397.7 -769.6,457.9 -212.1,47 -420.6,70.2 -620,68.3 166.9,-50.3 329.6,-154.6 342.6,-369.3 27.4,-443.3 -853.9,-836.5 -1614.9,-632.1 13.2,-18.4 28.5,-35.9 45.7,-52.3 105.4,-46.2 261.4,-110.3 453.1,-183.9 524.1,-84.1 1261.1,35.2 1515,119 280.5,92.5 704.2,283.7 648.1,592.4 v 0"
             style="fill:#d4331e;fill-opacity:1;fill-rule:evenodd;stroke:none"
             id="path196" /></g></g><path
         d="m 37485.3,16907.7 c -267.4,241.5 -691,211.2 -986.6,76.2 -486.6,-222.1 -11.7,638.9 -627,508.4 -583.8,-124.4 -663.9,-1621.3 -558.9,-2052.3 90.8,-372.5 394.9,-347.8 696.2,-228.3 441.7,175.3 874.5,435.5 1198.4,787.3 192.9,209.2 575.7,640.2 277.9,908.7 v 0"
         style="fill:#f0413e;fill-opacity:1;fill-rule:evenodd;stroke:none"
         id="path198" /><path
         d="m 35984.3,17301.8 c -8.2,15.2 -23.3,23.5 -39.5,27.8 l 0.8,2.7 c -3.6,0.5 -6.9,-0.1 -10.5,0 -4.8,0.9 -9.2,0.8 -13.8,0.4 -103.3,-1.4 -158.7,-104.6 -209.1,-190 -64.1,-108.2 -141.4,-239.4 -140.7,-368.2 0.3,-77.7 108.4,-136.3 164.8,-70.4 78.5,91.3 115.2,215.2 171.5,321 44.8,84 129.6,181.6 76.5,276.7 v 0"
         style="fill:#fefefe;fill-opacity:1;fill-rule:nonzero;stroke:none"
         id="path200" /><path
         d="m 37485.3,16907.7 c -92.8,83.8 -204.6,134.9 -323,160.3 437.7,-238.3 -431.7,-1476.9 -1150,-1611.3 -706.2,-132 -733,607 -733.8,632 -13.5,-271.1 1.1,-512.8 34.3,-648.7 90.8,-372.5 394.9,-347.8 696.2,-228.3 441.7,175.3 874.5,435.5 1198.4,787.3 192.9,209.2 575.7,640.2 277.9,908.7 v 0"
         style="fill:#e02d2a;fill-opacity:1;fill-rule:evenodd;stroke:none"
         id="path202" /><path
         d="m 36058.5,16924.1 c -153,-36 -238.1,-286.7 -84.5,-250.7 153.3,35.9 238,286.7 84.5,250.7 v 0"
         style="fill:#fefefe;fill-opacity:1;fill-rule:nonzero;stroke:none"
         id="path204" /><path
         d="m 38268.4,14925.8 c -330.2,-54.9 -386.9,-152.3 -304.2,154.7 211.9,784.1 -624.6,503.8 -919.3,-166.6 -106.1,-242 -358.6,-734.9 -136.1,-971.5 216.2,-229.9 691.7,-86.3 944.7,6.2 247.8,90.6 691,288.6 778.8,564.7 98.7,312.3 -112.1,453.9 -363.9,412.5 v 0"
         style="fill:#f0413e;fill-opacity:1;fill-rule:evenodd;stroke:none"
         id="path206" /><path
         d="m 37643,15469 c -196.3,-61.1 -371.1,-245.4 -393,-454.5 -7.1,-68.9 94.7,-110.7 139.7,-59.3 54.6,62.1 99.5,132 154.1,194.4 55.7,63.7 118.2,118.6 179.8,176.1 61.1,56.8 1.3,168.9 -80.6,143.3 v 0"
         style="fill:#fefefe;fill-opacity:1;fill-rule:nonzero;stroke:none"
         id="path208" /><path
         d="m 36855.7,14433.8 c -50.5,-185.6 -59.7,-371.4 53.1,-491.4 216.2,-229.9 691.7,-86.3 944.7,6.2 247.8,90.8 691,288.6 778.8,564.7 52.1,164.8 18,282.3 -63.1,350.1 -250.7,-367.9 -661.3,-730.7 -1031.6,-800 -430.5,-80.6 -608.5,162.5 -681.9,370.4 v 0"
         style="fill:#e02d2a;fill-opacity:1;fill-rule:evenodd;stroke:none"
         id="path210" /><path
         d="m 37560.7,15017.8 c -153.3,-35.9 -238.1,-286.6 -84.7,-250.7 153.3,36.1 238.2,286.8 84.7,250.7 v 0"
         style="fill:#fefefe;fill-opacity:1;fill-rule:nonzero;stroke:none"
         id="path212" /><path
         d="m 35986.4,14080.4 c -426.3,220.6 -539.6,-305.4 -537.2,76.2 0.3,50.7 -18.1,109.6 -94,164.1 -171.6,137.3 -384.1,14.2 -476.8,-153.7 -65.1,-116.6 -234.8,-635.7 -223.1,-758 22.9,-244.6 279.4,-347.4 493.7,-283.1 246.1,74 1267.9,627.1 837.4,954.5 v 0"
         style="fill:#f0413e;fill-opacity:1;fill-rule:evenodd;stroke:none"
         id="path214" /><path
         d="m 35066.7,14266.2 c -130.2,-48 -193,-227.3 -186.5,-355.9 3.1,-60 90.5,-80.1 124.2,-33.5 31.4,43.5 53.8,86.3 91.2,124.8 36.2,37.5 77.1,91 95.3,140.2 28.8,78.2 -45.8,153.1 -124.2,124.4 v 0"
         style="fill:#fefefe;fill-opacity:1;fill-rule:nonzero;stroke:none"
         id="path216" /><path
         d="m 34685.3,13326.8 c 32.6,-232.8 282.3,-329.8 491.9,-266.8 225.9,67.9 1105.8,539.8 914.9,870 -252.1,-321.6 -611.6,-613.3 -939.7,-674.8 -210.2,-39.2 -360.1,-1.5 -467.1,71.6 v 0"
         style="fill:#e02d2a;fill-opacity:1;fill-rule:evenodd;stroke:none"
         id="path218" /><path
         d="m 35136.3,13950.8 c -105.7,-24.8 -164.2,-197.7 -58.4,-172.8 105.6,24.9 164.1,197.7 58.4,172.8 v 0"
         style="fill:#fefefe;fill-opacity:1;fill-rule:nonzero;stroke:none"
         id="path220" /><path
         d="m 34769.9,14968.6 c -124.5,144.7 -221,163.9 -392.7,105 -297.3,-101.5 -227.8,-168.7 -354.4,28.7 -116.7,181.1 -361.8,227.7 -511.7,59.2 -178.7,-200.5 -135.4,-603.2 -132.1,-852 3.3,-255.7 122.6,-513.7 421.7,-483.9 283.9,28.4 580.3,288.4 769.7,486.7 164.1,171.8 401.7,421.5 199.5,656.3 v 0"
         style="fill:#f0413e;fill-opacity:1;fill-rule:evenodd;stroke:none"
         id="path222" /><path
         d="m 33731.9,15094.6 c -5.2,48.2 -57.2,95.6 -106.1,62.5 -118,-79.9 -162.5,-276.1 -139.8,-410.2 10.8,-62.8 102.9,-70.1 132.6,-19 32.1,55.1 53.4,119 72.4,179.8 19.2,60.9 47.9,122 40.9,186.9 v 0"
         style="fill:#fefefe;fill-opacity:1;fill-rule:nonzero;stroke:none"
         id="path224" /><path
         d="m 33432.2,14042.4 c 61.3,-138.7 178.7,-235.7 368.5,-216.8 283.9,28.4 580.3,288.6 769.7,486.7 158.7,166.2 386.7,405.6 217.6,633.9 -240.8,-398.6 -690.6,-820.4 -1093.2,-895.7 -100.6,-19 -187.6,-20.1 -262.6,-8.1 v 0"
         style="fill:#e02d2a;fill-opacity:1;fill-rule:evenodd;stroke:none"
         id="path226" /><path
         d="m 33718.5,14808 c -90,-60.6 -83.5,-242.9 6.7,-182.3 89.9,60.7 83.4,243.1 -6.7,182.3 v 0"
         style="fill:#fefefe;fill-opacity:1;fill-rule:nonzero;stroke:none"
         id="path228" /><path
         d="m 32839.9,14016.7 c 36.5,231.8 -175.2,512.1 -392.8,437.7 -317.4,-108.5 -182.9,-141.1 -413.6,136 -30.1,36.2 -64.6,69.5 -103,98.5 -345.4,261.4 -499.1,-1040.2 -342.5,-1442.2 200.7,-514.2 694.7,5.5 901.5,231.5 136.5,148.5 317.9,330.7 350.4,538.5 v 0"
         style="fill:#f0413e;fill-opacity:1;fill-rule:evenodd;stroke:none"
         id="path230" /><path
         d="m 31911.5,14405.2 c 19.8,125 -140.8,170.2 -188.8,52.8 -34.3,-84.4 -51.9,-164.6 -57.5,-255.2 -5.4,-85.5 123.5,-121.8 163.4,-45.6 42.1,80.6 68.6,158.3 82.9,248 v 0"
         style="fill:#fefefe;fill-opacity:1;fill-rule:nonzero;stroke:none"
         id="path232" /><path
         d="m 32839.9,14016.7 c 17.9,114.6 -24.7,241 -98.7,330.7 -78.8,-405.7 -586.4,-1029.6 -1079.6,-1231.4 229.1,-276 643,160.4 827.9,362.2 136.5,148.5 317.9,330.7 350.4,538.5 v 0"
         style="fill:#e02d2a;fill-opacity:1;fill-rule:evenodd;stroke:none"
         id="path234" /><path
         d="m 31906.3,14190.4 c -92.1,-57.4 -92.1,-239.9 0.1,-182.6 92.1,57.6 92.1,240.1 -0.1,182.6 v 0"
         style="fill:#fefefe;fill-opacity:1;fill-rule:nonzero;stroke:none"
         id="path236" /></g></g></svg>
