<?xml version="1.0" encoding="UTF-8" standalone="no"?>
<svg
   xmlns:dc="http://purl.org/dc/elements/1.1/"
   xmlns:cc="http://creativecommons.org/ns#"
   xmlns:rdf="http://www.w3.org/1999/02/22-rdf-syntax-ns#"
   xmlns:svg="http://www.w3.org/2000/svg"
   xmlns="http://www.w3.org/2000/svg"
   xmlns:sodipodi="http://sodipodi.sourceforge.net/DTD/sodipodi-0.dtd"
   xmlns:inkscape="http://www.inkscape.org/namespaces/inkscape"
   version="1.1"
   id="svg2"
   xml:space="preserve"
   width="6300.3066"
   height="6300.3198"
   viewBox="0 0 6300.3066 6300.3198"
   sodipodi:docname="656.eps"><metadata
     id="metadata8"><rdf:RDF><cc:Work
         rdf:about=""><dc:format>image/svg+xml</dc:format><dc:type
           rdf:resource="http://purl.org/dc/dcmitype/StillImage" /></cc:Work></rdf:RDF></metadata><defs
     id="defs6"><clipPath
       clipPathUnits="userSpaceOnUse"
       id="clipPath24"><path
         d="m 9568.73,16878.3 v 0 c 2.21,2.6 4.47,5.2 6.82,7.7 -39.63,56.2 -78.87,112.8 -118.4,169.2 38.11,-58.4 75.24,-117.4 111.58,-176.9 z m -5051.85,-364.1 c -32.18,104.2 -16.23,223.1 78.97,325.7 1857.52,2001.2 3867.48,3906.1 6208.65,5334.6 1199.9,732.3 2480.6,1310.2 3820.4,1734.8 1483,469.7 3021.2,775.6 4556.3,1016.7 2834.4,445.1 5688.5,533.3 8532.9,130 2627.4,-372.8 5192.2,-1138.9 7603.8,-2244.4 2390.4,-1095.7 4702.8,-2532.9 6629,-4332.9 239.8,-223.9 457,-449.9 661.7,-706.4 19.2,-24.2 30.4,-51.6 36.2,-80.1 67.5,-77.8 93.5,-189.9 27.5,-297.8 -700.1,-1148.6 -1717.6,-2139.2 -2738.2,-3005 -1044.8,-886 -2189.9,-1651.5 -3394.4,-2302.6 C 30973.3,9078.3 24665.5,8706.7 18501.6,9572 c -2878.2,404 -5776.7,1012.8 -8462.1,2149.9 -936.24,396.4 -5194.24,2957.8 -5522.62,4792.3 z"
         clip-rule="evenodd"
         id="path22" /></clipPath><clipPath
       clipPathUnits="userSpaceOnUse"
       id="clipPath102"><path
         d="m 8135.83,25243.7 c 60.28,877.1 290.81,1762 559.99,2594.5 280.41,867.5 675.39,1716.4 1176.13,2478.8 1016.25,1547.1 2481.45,2673.7 4154.15,3438.8 1766.5,807.9 3691.3,1289.3 5609.4,1564.9 1983.8,284.8 3996,334.3 5990.4,130.8 1111.9,-113.4 2214.8,-300.6 3300.5,-566.9 539.6,-132.4 1073.6,-283.8 1601.1,-457.9 486.4,-160.6 991.8,-318.5 1438.9,-572.7 441.8,176.5 889,339.4 1341.5,487 655.9,213.8 1321.7,396.8 1994.8,548.2 349.4,78.6 700.8,146.1 1054.3,204.1 333.8,54.8 692.3,132.8 1031.2,111.5 116.9,-7.4 156.9,-136 94.5,-209.5 20.9,-153.3 -4.4,-315.4 -24,-466.3 -27.8,-212.8 -62,-424.7 -107.1,-634.4 -92.5,-430.5 -215.8,-854.3 -374.3,-1265 -42,-108.8 -86,-218.4 -131.9,-328.5 259.8,-135.5 472.2,-389.9 658.8,-609.5 196.6,-231.2 376.4,-479.2 544.9,-731.6 348.7,-522 640.6,-1082.5 872.6,-1665.8 356.4,-896.5 577.8,-1852 664.9,-2815.5 351.9,-54 700.3,-127.5 1037.1,-210.7 370.7,-91.6 739.3,-199.9 1095.2,-338.5 318.6,-124.2 720.8,-241.5 968.2,-483.9 9,-8.6 14.8,-19.6 18,-31.5 38.3,-26.7 60.5,-77.6 33.5,-133.8 -24.7,-51.5 -47.4,-102.2 -69.7,-152.7 -6.9,-60.5 -29.9,-116.5 -71.7,-159 -33,-70.4 -68.4,-140.3 -111.1,-210.1 -105.6,-172.5 -224.4,-337.6 -347,-498.5 -229.9,-301.8 -480.3,-584.6 -753.8,-847.7 -560.3,-539.1 -1203.9,-994.5 -1893.4,-1353.3 -1496.6,-779.1 -3213.1,-1075.4 -4889.5,-944.8 42.2,-54.7 84.7,-109.1 126.5,-164 80.4,-105.6 154.7,-223.3 238.6,-329.9 321.7,-22.3 655.8,-168.8 927,-308.8 343.3,-177.5 652.4,-500.1 606,-914 -52,-463.5 -551.7,-784.4 -998.2,-742.2 16.1,-276.4 -91.2,-718.8 -332.9,-880.7 -343.2,-229.7 -731.6,-114.6 -1037.1,144.9 -17.6,-73.5 -45.8,-144.7 -88,-211.6 -252.1,-400.1 -797.7,-436.3 -1179.5,-220.3 -427,241.4 -686.8,721 -749.2,1196 -8.9,67.7 -11.2,428.9 -3,548.6 -255.5,193.1 -496.7,410.1 -744,610.5 -354,286.9 -713.6,567.9 -1081.5,837.1 -698.5,511 -1427.6,983.6 -2186.1,1401.2 -1348.3,742.5 -2777.7,1255.1 -4269.5,1582.3 287.4,-233.5 470.6,-536.4 328.9,-901.8 -96.2,-248 -341.8,-372.5 -597.4,-413.2 43.3,-90.3 72.9,-183.8 86.2,-271.8 64.2,-423.8 -224.5,-786.6 -643.6,-849.3 -255.1,-38 -513,25.3 -742.4,145.4 -6.7,-48.3 -17,-94.8 -31.6,-136.9 -1.9,-5.5 -4.5,-10.6 -6.5,-16 9,-294.1 -253.4,-464.5 -509.1,-439 -115.6,-29.6 -238.7,-35.7 -359,-15.9 -606.4,100.5 -1054.6,757.1 -965.9,1359.8 -160.5,75.5 -321.3,150.7 -484.4,221.6 -249,108.3 -505.4,202.1 -764.6,285.9 -168.1,47.2 -337.4,89.8 -507.9,127.7 -776.4,172.6 -1565.2,256.2 -2358.2,304 -190.3,11.5 -381.3,21.3 -572.6,28.7 -1487,-83.1 -3052.2,-526.8 -4174,-1508.9 -153.5,-134.5 -296.4,-279.7 -428.2,-434.2 -6.6,-260 -5.4,-520.5 4.8,-780.1 29.4,-746.2 135.5,-1487.6 318,-2211.7 283.8,-1126 745.3,-2188.1 1358.8,-3167.1 483.8,-499.3 1019.3,-941.7 1643.3,-1283.1 523.9,-286.7 1146.3,-558.5 1753.9,-401.8 449.5,115.9 868.4,541.3 815.9,1003.1 -144.5,375.3 -574.7,515.9 -883.6,742.4 -275.5,202.1 -497.5,484.6 -554.9,828.3 -61.4,367.4 78.1,736 390.5,946.4 307.9,207.3 723.2,237 1081.8,195.7 1473,-169.4 2922.3,-1728.9 2745.2,-3252 -197.6,-1698.1 -1917.6,-2533.6 -3467.8,-2525.9 -1823,9.2 -3344.4,972.3 -4701.2,2101.1 -718.7,597.7 -1320.6,1298.4 -1681.96,2167.6 -22.66,54.5 -43.94,109.6 -64.74,164.7 -4.27,7 -8.53,14 -12.75,20.6 -147.88,236.9 -281.74,478.9 -400.29,731.9 -235.14,501.8 -416.81,1031.8 -562.78,1565.7 -101.92,373.1 -184.42,752 -254.66,1132.8 -431.73,1452.9 -533.45,2994.1 -534.73,4514.2 -0.34,531.9 -2.45,1070.2 41.84,1601.5 z"
         id="path100" /></clipPath></defs><sodipodi:namedview
     pagecolor="#ffffff"
     bordercolor="#666666"
     borderopacity="1"
     objecttolerance="10"
     gridtolerance="10"
     guidetolerance="10"
     inkscape:pageopacity="0"
     inkscape:pageshadow="2"
     inkscape:window-width="640"
     inkscape:window-height="480"
     id="namedview4" /><g
     id="g10"
     inkscape:groupmode="layer"
     inkscape:label="ink_ext_XXXXXX"
     transform="matrix(1.3333333,0,0,-1.3333333,0,6300.32)"><g
       id="g12"
       transform="scale(0.1)"><path
         d="M -0.00390625,47252.4 H 47252.3 V 0 H -0.00390625 v 47252.4 0"
         style="fill:#fefefe;fill-opacity:1;fill-rule:evenodd;stroke:none"
         id="path14" /><path
         d="m 9568.73,16878.3 v 0 c 2.21,2.6 4.47,5.2 6.82,7.7 -39.63,56.2 -78.87,112.8 -118.4,169.2 38.11,-58.4 75.24,-117.4 111.58,-176.9 z m -5051.85,-364.1 c -32.18,104.2 -16.23,223.1 78.97,325.7 1857.52,2001.2 3867.48,3906.1 6208.65,5334.6 1199.9,732.3 2480.6,1310.2 3820.4,1734.8 1483,469.7 3021.2,775.6 4556.3,1016.7 2834.4,445.1 5688.5,533.3 8532.9,130 2627.4,-372.8 5192.2,-1138.9 7603.8,-2244.4 2390.4,-1095.7 4702.8,-2532.9 6629,-4332.9 239.8,-223.9 457,-449.9 661.7,-706.4 19.2,-24.2 30.4,-51.6 36.2,-80.1 67.5,-77.8 93.5,-189.9 27.5,-297.8 -700.1,-1148.6 -1717.6,-2139.2 -2738.2,-3005 -1044.8,-886 -2189.9,-1651.5 -3394.4,-2302.6 C 30973.3,9078.3 24665.5,8706.7 18501.6,9572 c -2878.2,404 -5776.7,1012.8 -8462.1,2149.9 -936.24,396.4 -5194.24,2957.8 -5522.62,4792.3 v 0"
         style="fill:#0da18d;fill-opacity:1;fill-rule:evenodd;stroke:none"
         id="path16" /><g
         id="g18"><g
           id="g20"
           clip-path="url(#clipPath24)"><path
             d="m 19431.5,13201.2 c 288.3,178.3 577.7,355 867.3,531 113.7,68.9 233,169.4 364.1,204.2 131.3,34.9 212.5,-29.8 327.8,-86.9 301.9,-149.9 634.6,-256 948.7,-379.6 211.9,-83.5 441.3,-159.1 652.4,-258.5 32.8,10.5 70.7,9.6 111,-9 207.7,120.8 431.4,223.6 638.3,342.6 260,149.7 510.6,312.5 765.6,470.1 45.7,28.2 103.2,23.8 149.3,0 419.4,-217 853.6,-399.8 1298.9,-559.2 202.4,-72.5 406.8,-139.2 611.2,-206.3 18.6,-6 37.9,-12 57.6,-18.1 102.2,178.2 396.8,347.9 511.4,431.2 344.3,249.9 685.5,488.9 964.5,811 50.8,58.6 139.3,54.9 203.2,25.5 373.6,-171.6 762.2,-308.8 1146.3,-456.9 237.8,-91.6 512.1,-171.2 745.3,-297.5 19.8,-5.7 37.5,-16 51.9,-30.2 18.5,-10.8 37.3,-21.2 55.2,-32.9 34,59.1 87.8,101.9 148,159.1 119.8,114.4 236.4,231.9 349.6,352.5 242.5,258.4 468,531.3 679.9,814.2 45.1,60.2 116.2,100.1 194.8,77.6 357.1,-102.7 712.6,-211.1 1071.3,-308.5 281.8,-76.6 572.6,-142.3 844.8,-250 57.4,68.8 128.3,129.4 192.8,194.9 134.5,137.3 269,274.5 403.6,411.7 188,191.6 413.5,532.7 699.9,577.9 136.5,21.4 280.7,-20 415.5,-38.2 212.1,-29 426.5,-44.2 639.6,-64.6 360.7,-34.7 763.3,-30.5 1110.8,-138.6 -1.6,48.4 25.9,96.7 71.5,121.3 295.1,309.4 574.6,618.1 812.7,973.9 33.3,49.5 102.7,87.7 164.9,65.5 38.4,-13.5 77,-26.3 115.7,-38.2 90.9,7.6 179.3,-9.9 286.7,-21.9 178.3,-20.1 356.5,-39.3 535.1,-57.2 307,-30.9 615.5,-51.2 921.8,-88.8 17.9,8.5 39,14.4 63.4,16.5 64,5.8 128.3,9.6 192.6,12.8 144.2,408.9 247.5,829.4 310.3,1258.5 10.8,74.3 102.1,104.8 166.1,92.3 390.9,-75.8 789.8,-109.6 1187.5,-130.7 344.5,-18.4 738.1,20.2 1070.7,-75 25.4,-7.2 33.5,-29 28.3,-48.7 78.5,57.3 200.8,-22 143.5,-115.5 -295.4,-481.5 -732.5,-902.3 -1102.4,-1329.7 -116.7,-134.9 -275.6,-421.7 -478,-443 -94,-10 -170.3,33.2 -250.1,74.2 -121.8,62.5 -245.1,116.8 -375.8,159.2 -177.9,57.6 -359.1,97.9 -542.1,127.8 -141.6,-237.4 -369.5,-444.9 -522.7,-668.6 -111.9,-163.3 -200.1,-336.9 -301.2,-505.8 -55.4,-92.7 -116,-172.3 -232.2,-188.1 -148.7,-20.2 -321.2,58.6 -462.7,99.1 -210.7,60.2 -420.1,125.3 -628.3,192.6 -324.7,105.4 -699.1,195.4 -1006.2,356 -0.3,-0.5 -0.3,-1 -0.5,-1.7 -58.6,-187 -187.8,-343.6 -301.8,-502 -125.4,-174.1 -253.4,-346.3 -386.5,-514.6 -108.3,-137.2 -218.1,-273.1 -329.5,-408 -93.9,-113.6 -199.8,-304.8 -354.1,-348.3 -162.6,-46.1 -358.3,80.5 -503.2,135.7 -175.7,67.1 -352.1,132.2 -529.6,194.8 -202.8,71.5 -406.9,139.5 -612.1,204.3 -155.6,49.2 -320.7,85.3 -472.2,148 -24.7,-12.5 -50.8,-23.7 -80.2,-32 -35,-9.6 -68,-4.1 -95.3,10.9 -177.8,-247.5 -406.3,-466.9 -610,-691.4 -124.4,-136.8 -250.3,-272.4 -375.6,-408.3 -80.7,-87.7 -168,-223.8 -295.8,-253.4 -112.6,-26.1 -219.4,36.6 -319.9,75.9 -171.1,67.3 -344,130.7 -518.3,189.7 -324.8,110 -658,185 -985.5,284.4 -9.7,2.9 -18.9,7 -27.6,11.7 -66.5,0.8 -129,33 -150.4,96.6 -13.5,1.3 -27.2,3.4 -40.8,5.1 -250,-282 -571.1,-519.5 -861.7,-759.4 -152.2,-125.8 -305,-250.9 -458.8,-374.8 -98.3,-79.1 -192.5,-169.2 -326.1,-180.1 -149,-12.1 -270.7,82.3 -392.4,151.9 -155.7,88.9 -315.4,171.4 -478.3,247.1 -171,79.2 -346,149.6 -524.5,211.2 -124.9,43.1 -265.7,62.4 -367.7,141.9 -33.5,-18.3 -73.9,-22.2 -112.6,-6.9 -43.2,-33.6 -89.2,-63.9 -127.8,-93.1 -183.8,-139.5 -375.3,-269.4 -569,-395 -388.1,-252.1 -786.1,-487.8 -1191.3,-712.6 -48,-26.4 -123,-34.7 -170,0 -512.1,376.9 -1044.8,723.6 -1566.4,1086.7 -160,-234.2 -464.1,-434.8 -662.6,-596.4 -132.8,-107.9 -268.6,-212.4 -405.4,-315.5 -133.8,-101.1 -283.1,-247.5 -441,-306.2 -112.7,-41.9 -193.4,-7.6 -284.2,62.2 -157,120.8 -306.9,252 -459.8,377.7 -328.3,269.5 -652.9,543.5 -978.2,816.5 -13.3,11.2 -23,23 -31.2,35.1 -90.7,69.9 -120.1,225.9 8.2,305.3 v 0"
             style="fill:#087567;fill-opacity:1;fill-rule:nonzero;stroke:none"
             id="path26" /><path
             d="m 4254.86,16715.4 c 7.8,70.6 69.95,139 143.08,132.6 38.25,-3.4 75.44,-8.3 111.58,-14.9 25.76,30 64.6,49.2 117.18,47.2 394.3,-14.6 788.75,-27.6 1182.95,-43.8 53.42,-2 109.38,-2 166.52,-2 228.32,47.8 502.26,137.8 700.07,11.4 111.34,-71.1 194.68,-192.8 281.93,-289.8 111.2,-123.5 222.24,-247.1 333.34,-370.6 164.36,-182.6 357.66,-363.6 515.5,-561.6 6.43,-5.5 12.85,-10.6 19.42,-16 25.51,-21.5 39.58,-45.8 46.01,-70.4 24.77,-34.5 48.16,-69.3 70.04,-104.9 28.6,-30.2 56.5,-60.8 83.24,-92 17.02,1.2 34.38,0 51.35,-3.5 3.63,2.5 6.77,5.3 10.64,7.4 165.98,93.2 365.22,123.5 544.98,185.7 175.74,60.6 347.85,130.4 516.58,208.3 231.02,106.7 515.45,345.8 744.6,122.8 283.43,-276.1 556.03,-567.5 836.73,-847.4 135.9,-135.4 270.6,-272.1 404.1,-410 105.6,-109 221.9,-210.6 290.6,-344.2 75.4,8.1 106.7,-97.7 59,-145.2 -23.9,-24 -49.4,-46.4 -75.7,-68.2 -9.8,-43.3 -36,-83.5 -79.5,-112.5 -59.7,-39.7 -119.9,-56.9 -180.3,-58.6 -220.2,-117.1 -469.8,-196.9 -691.7,-269 -173,-56.2 -348.1,-106.1 -524.77,-149.4 -157.44,-38.7 -344.27,-103.2 -508.05,-67 -175.15,38.7 -291,201.7 -405.14,326.8 -124.43,136.6 -246.47,275.3 -366.14,416 -266.34,312.5 -520.06,635.2 -764.13,965.1 -5.49,7.5 -10.05,15 -14.03,22.4 -22.17,17.9 -43.9,36.2 -65.43,55.1 -280.46,-157.7 -645.97,-225.2 -938.1,-313 -181.78,-54.7 -363.26,-110.5 -545.27,-164.2 -145.09,-42.9 -294.69,-87.2 -434.38,-2 -132.77,81.1 -215.17,246.7 -303.31,368.9 -109.14,151 -222.73,298.9 -340.89,443 -255.94,311.9 -540.91,592.9 -814.94,887.9 -4.91,5.3 -9.03,10.4 -13,15.7 -47.92,43.9 -95.69,88.2 -143.86,132 -45.27,41.4 -51.36,118.6 -20.8,171.9 v 0"
             style="fill:#087567;fill-opacity:1;fill-rule:nonzero;stroke:none"
             id="path28" /><path
             d="m 40448.3,18803.5 c 24.6,77.7 108,134.1 190.8,108.3 99,-30.9 189.4,-86 258.3,-162.6 15.3,-6.3 29.5,-13.8 42.8,-22.8 2.6,-0.9 5,-1.7 7.4,-2.6 32.8,-13.4 56.9,-43.4 65.2,-75.4 21.3,-37.5 33.5,-81.7 33.6,-129.8 0.3,-102.8 -50.2,-192.5 -132.9,-242.3 -6.5,-4.4 -13.1,-8.7 -20.4,-12.7 -28.4,-15.7 -60.5,-23.4 -93.2,-25.2 -124,-14.9 -251.5,48.6 -320.1,152.2 -82.4,124.6 -75.2,275.6 -31.5,412.9 v 0"
             style="fill:#087567;fill-opacity:1;fill-rule:nonzero;stroke:none"
             id="path30" /><path
             d="m 38659.1,18037.8 c 91,60.6 203.6,62.4 294.3,5.7 59.2,-1.6 121.3,-31.1 161.6,-67.7 63.1,-57.1 97.1,-151.4 91.9,-235.9 -15.1,-246.6 -301.5,-335.4 -500.1,-238.9 -207.4,100.8 -246.8,404.7 -47.7,536.8 v 0"
             style="fill:#087567;fill-opacity:1;fill-rule:nonzero;stroke:none"
             id="path32" /><path
             d="m 36602.1,17355.5 c 192,40.1 379.3,-124.1 355.9,-297.9 49,-137.3 64.6,-282.6 -64.4,-389.3 -188.6,-155.8 -460.8,45.9 -524.3,237.2 -60.6,182.3 34.6,408.8 232.8,450 v 0"
             style="fill:#087567;fill-opacity:1;fill-rule:nonzero;stroke:none"
             id="path34" /><path
             d="m 33005.3,16163.1 c -2.3,73 13.8,146.5 52.3,208.8 75.8,122.9 239.1,161.6 363,87.8 123.4,-73.2 174.3,-225.7 190.9,-360 19.5,-160.6 -58.8,-332.2 -226.3,-374.7 -176,-44.8 -309.6,93.7 -363.8,246.6 -21.1,59.9 -27,128.1 -16.1,191.5 v 0"
             style="fill:#087567;fill-opacity:1;fill-rule:nonzero;stroke:none"
             id="path36" /><path
             d="m 29709.4,15670.8 c 53.5,135.1 202.1,289.1 356.3,205.4 116.5,-63 222.8,-164.5 253.3,-297.5 35.6,-154.8 -52.2,-335.6 -208.6,-383.7 -103.7,-31.8 -196.8,0.8 -264.7,67.2 -125.1,84.2 -199.1,250.6 -136.3,408.6 v 0"
             style="fill:#087567;fill-opacity:1;fill-rule:nonzero;stroke:none"
             id="path38" /><path
             d="m 26130.2,15268.4 c 217.8,121.4 529.8,-57.5 525,-292.6 25.5,-98.1 -8.7,-208.6 -84.5,-277 -105.4,-95.5 -258,-92.6 -380.4,-36.1 -109.7,50.6 -203.8,146.8 -226,268.2 -24.4,134.8 47.1,271.5 165.9,337.5 v 0"
             style="fill:#087567;fill-opacity:1;fill-rule:nonzero;stroke:none"
             id="path40" /><path
             d="m 22850,15143.5 c 91.7,-1.3 183.1,-48.2 246.4,-117.1 134.2,-33.9 184.7,-190.1 123.6,-307.3 -31.9,-61.2 -87.3,-103.7 -150.3,-125.4 -14.8,-10.8 -30.9,-20.6 -48.2,-28.4 -134.7,-62.2 -294.5,13.3 -338.6,154.3 -1.9,6 -3.1,12.1 -4.4,18.1 -36.2,43.6 -63.8,91.9 -75.5,140.2 -37.4,155.6 102.9,267.2 247,265.6 v 0"
             style="fill:#087567;fill-opacity:1;fill-rule:nonzero;stroke:none"
             id="path42" /><path
             d="m 20092.2,14779 c -10.8,65 8.6,134.6 60.6,188.4 81.7,84.4 211.7,97.7 316.1,53.7 106.4,-44.9 184.8,-154.9 186.6,-271.4 2.3,-127.2 -77.8,-234.2 -195.7,-276 -103.6,-36.9 -222.4,-10.9 -301.2,65.4 -65.9,63.9 -84.9,155 -66.4,239.9 v 0"
             style="fill:#087567;fill-opacity:1;fill-rule:nonzero;stroke:none"
             id="path44" /><path
             d="m 14929.9,15159 c 156,260.2 491.6,89.4 597.3,-125.1 45.5,-92.1 14.4,-236.4 -104.7,-257.5 -25.7,-4.7 -51.6,-9.2 -77.4,-13.9 -50.7,-9 -101.9,-0.3 -142.7,25 -64.9,-12.6 -136.5,-1.5 -189.9,30.1 -116.9,68.7 -151.7,226 -82.6,341.4 v 0"
             style="fill:#087567;fill-opacity:1;fill-rule:nonzero;stroke:none"
             id="path46" /><path
             d="m 8059.51,16957.8 c 88.43,0.4 169.71,-43.8 223.66,-112.3 12.56,-15.8 22.32,-32.7 30.85,-49.7 2.06,-1.7 4.42,-3.3 6.13,-5.3 124.14,-140 18.06,-339.3 -137.77,-397.8 -160.1,-59.9 -349.47,33.4 -396.46,199 -49.79,175.6 91.47,365.2 273.59,366.1 v 0"
             style="fill:#087567;fill-opacity:1;fill-rule:nonzero;stroke:none"
             id="path48" /><path
             d="m 7466.91,14201 c 50.37,65.7 126.88,97.4 205.46,53.9 142.53,-78.6 226.65,-294.3 186.53,-450 -20.85,-81.1 -123.6,-151.5 -207.62,-117.9 -23.1,9.2 -46.45,18.4 -68.38,30.1 -31.93,17.5 -53.11,43.9 -64.54,74 -111.54,99.3 -145.82,287.1 -51.45,409.9 v 0"
             style="fill:#087567;fill-opacity:1;fill-rule:nonzero;stroke:none"
             id="path50" /><path
             d="m 10829.4,12563.9 c -14.1,59.4 -14.6,120.1 1.7,169.6 39.5,118.8 163.7,186 283.2,139.4 108.7,-42.4 179.9,-153 204.1,-264 28.1,-127.4 -14.3,-273.5 -134.7,-338.7 -117.2,-63.6 -260.6,-32.9 -333.6,80.8 -41.4,64.7 -46.4,145.2 -20.7,212.9 v 0"
             style="fill:#087567;fill-opacity:1;fill-rule:nonzero;stroke:none"
             id="path52" /><path
             d="m 19201,10786.3 c 23.7,176.2 244,298.7 387.2,163.1 52.6,-50.1 83.2,-121.1 82.1,-194.2 -0.9,-70.6 -32,-132.7 -91.9,-171.2 -0.1,-0.1 -0.4,-0.2 -0.5,-0.3 -22,-18.1 -47.8,-32.3 -77.6,-39.7 -150.9,-38.2 -321.6,76.9 -299.3,242.3 v 0"
             style="fill:#087567;fill-opacity:1;fill-rule:nonzero;stroke:none"
             id="path54" /><path
             d="m 22671.7,11124.1 c 17.7,83.9 76,170.1 152,211.7 118,64.9 245.9,17.2 314.6,-92.1 52.5,-83.6 87.7,-179 74.3,-278.5 -14.5,-108.1 -87.7,-211 -195.9,-242 -115.1,-32.8 -237.8,25.2 -283.6,135.2 -1.2,3 -1.6,6.3 -2.8,9.2 -52.7,72.9 -77.2,168 -58.6,256.5 v 0"
             style="fill:#087567;fill-opacity:1;fill-rule:nonzero;stroke:none"
             id="path56" /><path
             d="m 26230.6,11359.7 c 28.7,101.9 114.7,172.4 217,191.1 124.2,22.8 239.4,-28.4 303.3,-139.3 118.5,-205.3 -29.1,-534.3 -275.3,-477 -83.8,3 -166,52.7 -209.7,125.3 -51.7,85.5 -62.3,204.6 -35.3,299.9 v 0"
             style="fill:#087567;fill-opacity:1;fill-rule:nonzero;stroke:none"
             id="path58" /><path
             d="m 30005.6,11945.7 c 11.5,42.4 38.7,82.3 49.2,123.4 23.3,91.8 126.7,149.3 217.3,123.4 144.7,-41.5 239.6,-168.9 248.4,-318.1 6.2,-104.2 -40.9,-226.7 -130,-283.6 -15.2,-34.9 -36.4,-67.7 -61.9,-96.2 -52.4,-58.3 -163.5,-59.8 -215.6,0 -73.9,85 -117,182.3 -124.3,295.5 -3.3,51.3 3.6,105.9 16.9,155.6 v 0"
             style="fill:#087567;fill-opacity:1;fill-rule:nonzero;stroke:none"
             id="path60" /><path
             d="m 33797.9,12925.1 c 1,3.4 26.9,68.7 19.2,49.3 4.9,18.4 11.8,35.8 20.3,52.8 4.4,8.2 6.9,12.9 8.3,14.7 24.6,94.7 161.1,153 243.2,93.1 96.4,-70.9 159.1,-180.5 178.4,-298.9 11.9,-73.9 16.9,-147.7 -21.4,-215.7 -46.6,-82.5 -139.3,-122.1 -231,-96.8 -52.6,14.4 -87.5,49.1 -107.7,93 -54.6,35.3 -95,93.7 -112.2,156.5 -13.1,48.4 -10.5,104 2.9,152 v 0"
             style="fill:#087567;fill-opacity:1;fill-rule:nonzero;stroke:none"
             id="path62" /><path
             d="m 37132.1,14061.7 c 54.4,48.6 150.8,75.5 216.2,27.8 5,-3.6 9.7,-7.4 14.5,-11.1 102.6,-20.8 147.7,-117.4 156,-214.5 6.3,-74 -12.1,-143.4 -42.1,-210 -23.3,-51.7 -99,-95 -155.3,-88.9 -124.9,12.8 -219.9,83.9 -260.4,204.7 -32.9,98.8 -7.6,221.5 71.1,292 v 0"
             style="fill:#087567;fill-opacity:1;fill-rule:nonzero;stroke:none"
             id="path64" /><path
             d="m 39975.5,15157.4 c 65.3,105.6 199.1,164.7 314.5,97.4 101.5,-59 145.2,-196.7 96.6,-302.9 -15.9,-48.6 -50,-91.4 -98.1,-119 -88,-50.8 -210.6,-41.8 -283.6,32.5 -75.3,76.8 -85.9,200.5 -29.4,292 v 0"
             style="fill:#087567;fill-opacity:1;fill-rule:nonzero;stroke:none"
             id="path66" /><path
             d="m 5991.87,21676.4 c 1027.76,-295 2039.73,-644.2 3068.57,-938.1 1004.36,-286.8 2018.56,-543.3 3037.86,-770.9 2074.4,-463.5 4178,-797.3 6293.8,-999.8 4196.1,-401.9 8447.9,-294.7 12616.7,333.6 1159.3,174.7 2313.1,388.6 3458,640.8 768.5,169.3 5012,1692.6 5776,1883.2 150.6,42 301.1,84 451.8,126.1 29.7,8.2 57.2,8.3 82.3,3.4 221.7,51.7 443.8,100.9 666.8,145.9 83,16.7 110,-93.6 34.4,-124.3 -81.3,-33.1 -163.2,-64.6 -245.3,-95.6 14.8,-10.6 27.9,-23.6 39.2,-38.4 72,-21.4 137.3,-76.8 152.5,-144.4 24.6,9.5 49.2,18.9 73.6,28.8 161.9,64.5 312.9,-191.2 174.1,-299.1 -15.6,-12.1 -31.5,-22.6 -47.2,-33.9 70.4,-12.9 133.8,-88.1 83.9,-164.7 -173,-265.7 -552.6,-443.5 -829,-580.5 -9.7,-4.8 -19.3,-9.2 -29.1,-14 281.2,102.8 562,207.6 843.2,312.5 79.3,29.5 130.8,-96.4 57.3,-135.9 -917.2,-493.2 -5404.6,-2161.2 -6400.2,-2459.9 -1020.1,-306.4 -2059.3,-545.8 -3107.2,-736.2 -2096.5,-380.7 -4230.6,-578.7 -6358.7,-665.7 -4267.5,-174.8 -8559.9,177.5 -12745.8,1023 -1183.8,238.8 -2364.3,513.2 -3525.2,847.3 -1160.1,334 -2328.38,677.7 -3444.38,1141 -100.95,42 -80.84,187.8 13.04,195.3 -185.55,82.8 -24.47,355.7 160.49,273.8 148.37,-65.8 297.92,-129.4 448.01,-191.5 171.96,10.8 343.24,10.9 513.93,1.9 -140.18,45.9 -280.07,92.5 -419.66,140 -172.75,58.5 -143.46,310.4 43.06,318.6 6.58,0.2 13.4,0.2 19.92,0.5 25.21,33.3 65.77,54 122.52,48 126.26,-13.7 252.31,-28.8 378.07,-45.1 252.79,-6.7 504.81,-25.8 755.89,-54.4 -779.88,239.3 -1555.82,504.6 -2297.83,828 -115.31,50.2 -32.77,234.5 84.61,200.7 v 0"
             style="fill:#087567;fill-opacity:1;fill-rule:nonzero;stroke:none"
             id="path68" /><path
             d="m 28592.1,20844.9 c 1.7,3.7 3.2,7.3 5.5,10.7 54.5,83.1 150.4,99.7 236.4,65.4 47.9,-1.9 94.5,-13.1 135.1,-36.2 139.1,-79.5 167.5,-266.2 54.5,-382.2 -45.2,-46.6 -110.3,-70.6 -174.6,-69.7 -35,-18.1 -74.3,-28.6 -116.7,-28.5 -119.9,0.7 -228.8,86.1 -244.9,206.4 -13.3,98.1 33.1,179.2 104.7,234.1 v 0"
             style="fill:#087567;fill-opacity:1;fill-rule:nonzero;stroke:none"
             id="path70" /><path
             d="m 25940.3,20511.6 c 56.3,45.3 126,66.6 197.9,57.8 51.8,-6.3 92.7,-24.7 125.3,-53.8 58,25.7 130.3,14.5 169.3,-54 74.9,-131.6 11.4,-297.7 -110.9,-376.6 -121.4,-78.5 -301.4,-72.4 -401,39.2 -98.9,110.9 -100.2,290.9 19.4,387.4 v 0"
             style="fill:#087567;fill-opacity:1;fill-rule:nonzero;stroke:none"
             id="path72" /><path
             d="m 23358.8,20203.4 c 49,191.9 290.1,295.1 440,140.1 80.1,-82.7 98.6,-228.3 18.8,-317.8 -3.9,-63.2 -48.5,-114.8 -110.9,-138.5 -190.1,-72.4 -397.3,123.1 -347.9,316.2 v 0"
             style="fill:#087567;fill-opacity:1;fill-rule:nonzero;stroke:none"
             id="path74" /><path
             d="m 20384.7,20397.7 c 181.9,47 343.4,-104.3 348.7,-282.6 3.5,-119.1 -79.2,-255.5 -211,-255.5 -31.9,0 -66,8.7 -97,24.2 -90.5,1.5 -181.8,45.4 -226,125.4 -88.5,159 18,345.3 185.3,388.5 v 0"
             style="fill:#087567;fill-opacity:1;fill-rule:nonzero;stroke:none"
             id="path76" /><path
             d="m 16970.3,20603 c 50.1,113.7 159.5,177.3 283,160.7 123.8,-16.5 207.1,-97.8 230.2,-215.4 35.3,-53.1 58.5,-117.5 56,-189.7 -4.7,-126.8 -100.9,-231.7 -226.9,-245.8 -244.9,-27.1 -438.4,272.3 -342.3,490.2 v 0"
             style="fill:#087567;fill-opacity:1;fill-rule:nonzero;stroke:none"
             id="path78" /><path
             d="m 13886.2,21144 c 194.2,174 500.6,80.6 582.6,-162.7 44.8,-132.4 1.2,-288.8 -148.1,-325.7 -40.6,-10 -79.5,-8.8 -115.3,0.4 -48,-59.3 -122.5,-93.9 -218.3,-72.3 -263.8,59.5 -279.4,400.7 -100.9,560.3 v 0"
             style="fill:#087567;fill-opacity:1;fill-rule:nonzero;stroke:none"
             id="path80" /><path
             d="m 12100.5,23749 c 77.5,-18.9 154.8,-38.6 232.2,-58.1 20.9,30.1 50.3,54 86.1,64.5 147.8,43.5 308.5,45.7 471.6,30.1 -39.3,14.3 -78.9,28 -118.1,42.4 -168,61.5 -160.3,351 45.4,335.5 857.1,-64.9 1686.1,-314 2525.8,-482.8 126.5,-25.4 253.2,-49.5 380.2,-72.6 1000.1,89.2 2008.3,53.7 3013.5,-19.7 5.1,4.4 9.8,8.9 15.5,12.6 539.7,369.1 1205.2,410 1842,432.4 -8.3,79.4 38.6,168.7 141.6,174.6 873.6,50.1 1722.8,15 2583,-154.1 96.2,-18.7 132.9,-102.5 122.3,-182.3 220.7,-15.2 441.3,-36.7 661.5,-64.9 70.4,-9 118.5,-48.6 144.3,-97.9 353.8,-2.4 707.7,-4.9 1061.4,-7.4 92.4,-0.7 145,-52.5 162,-116 190.9,-4.5 381.8,-11.6 572.9,-22.4 201.9,-11.2 224.9,-279.9 63.7,-340.3 69,-4.6 138,-9.3 207.2,-14.9 98.1,-8.1 159.6,-95.7 160.2,-178.1 67.5,-1.4 135.1,-2.5 202.7,-3.8 67,-1.2 113.7,-32.6 141.3,-75.9 45.6,-4.8 91.3,-10.2 137.2,-16.9 104.3,-15 121.9,-108.9 90.5,-186.5 204.2,53.5 407.2,113 608.8,179.8 100.5,33.3 172,-128.9 73.2,-173.6 -924.8,-417.6 -1926.8,-590.1 -2930.6,-690.8 -1045,-104.4 -2096,-149.7 -3146.1,-142.3 -2078.8,14.8 -4156,231.5 -6193,646.2 -623.3,127 -1249.7,267.7 -1866.6,439.2 -126.5,29.3 -251,62.5 -370.6,107.1 -400.8,120.6 -796.6,255.7 -1183.5,410.7 -136.9,54.9 -88,263.2 62.4,226.2 v 0"
             style="fill:#087567;fill-opacity:1;fill-rule:nonzero;stroke:none"
             id="path82" /><path
             d="M 7796.02,12212.4 C 11793,11216.1 15843,10454.3 19962.1,10223.1 c 1151.6,-64.5 2306,-88.3 3459.5,-68.8 1818.2,87 3633.7,229.1 5442.7,428.5 979.8,140.9 1954.7,317.1 2922.1,530.6 2163.1,477.4 7268,2124.2 9336.8,2911.3 42.5,16.1 72.6,-54.5 31.2,-74 -527,-246.7 -1062.7,-475.3 -1605.4,-687.7 33.6,2.5 62.7,-6 86.4,-22 36.7,22.4 73.6,44.4 110,67.3 130.3,81.7 247.7,-122.3 120,-205.5 -61.4,-40 -123.3,-79.1 -185.2,-118 -11.9,-18.8 -27.2,-36 -46.8,-49.8 -275.5,-195.6 -3576.1,-1323.3 -3885.2,-1454.7 -627.6,-327.3 -1278.6,-606.6 -1944.4,-848.5 -378.8,-201.3 -762.4,-392.1 -1167,-535.1 -322.5,-113.9 -652.1,-209.4 -986.1,-291.4 -1017.1,-600.2 -2197,-967.7 -3337.9,-1215.1 -1358.6,-294.4 -2753.3,-399.3 -4141.3,-408.4 -1626.8,-10.6 -3249.5,111.9 -4866.3,296.6 -1437.6,124.5 -2869.4,311 -4290.8,559.3 -355.2,46.8 -707.7,109.8 -1056.5,189.8 -490.5,76.2 -980.6,155 -1469.9,238.1 -779.5,132.7 -1558.7,272.7 -2272.8,627.7 -120.2,59.8 -99.5,228.1 0,293.1 1.1,0.5 2.3,1.1 3.2,1.9 -611.85,135 -1223,273.5 -1834.19,412 -186.92,42.5 -150.63,359 46.1,340.4 475.34,-45.5 949.49,-101.5 1422.36,-166.3 -332.15,72.6 -664.16,146.6 -995.73,221.5 -166.42,37.7 -153.71,230.8 -44.78,308.3 -71.22,33.9 -142.44,67.4 -213.41,102.2 -109.33,53.3 -95.84,177.1 -26.58,246.5 -271.15,75.1 -541.6,152.5 -811.32,232 -81.47,24.1 -47.53,148.1 35.17,127.5 v 0"
             style="fill:#087567;fill-opacity:1;fill-rule:nonzero;stroke:none"
             id="path84" /><path
             d="m 13146.7,13963 c 488.6,125.1 892.2,364.2 1279.1,682.1 73.9,60.6 197.7,65.9 248.4,-32.2 82.4,-159.4 307.4,-293.3 444.9,-407.9 134.3,-111.7 269.5,-222.3 405.2,-332.3 135.4,-109.9 272.5,-217.6 408,-327.5 110.6,-89.7 229.7,-167.3 276.6,-305.7 5.3,-15.8 -8.9,-32.6 -24.7,-32.4 -5.3,0 -10.2,1 -15.4,1.3 -4.5,-31.3 -17.9,-62.2 -40.4,-88.9 -161.7,-192.4 -463.1,12.6 -673.7,172.4 1.3,-85.4 -70.9,-168.1 -153.7,-180.5 -23.8,-108.3 -129.7,-194.9 -245.9,-113 -303.3,213.6 -609.4,427.8 -946.1,582.2 -24.5,-67.5 -81.5,-121 -166.1,-114.9 -27.1,2.1 -54.3,3.9 -81.4,6 -164.2,12.1 -242.8,201.9 -138.7,315.1 -0.6,1.3 -1.3,2.6 -2.1,4 -156.6,-68 -317.9,-124.4 -480,-168.6 -219.9,-60 -314.3,284.4 -94,340.8 v 0"
             style="fill:#087567;fill-opacity:1;fill-rule:nonzero;stroke:none"
             id="path86" /><path
             d="m 12793,15696.8 c 50.4,65.7 126.9,97.2 205.5,53.9 142.5,-78.5 226.7,-294.2 186.5,-450.1 -20.9,-81.1 -123.6,-151.7 -207.6,-117.9 -23.1,9.3 -46.4,18.4 -68.4,30.3 -31.8,17.3 -53.1,43.9 -64.5,73.8 -111.5,99.4 -145.8,287.2 -51.5,410 v 0"
             style="fill:#087567;fill-opacity:1;fill-rule:nonzero;stroke:none"
             id="path88" /></g></g><path
         d="m 38065.7,22329.1 c 236.3,-230.8 -48.4,184.9 100.7,-104.4 124.6,129.4 335.4,176.2 495.7,94 23.5,14 48.3,25.8 74,35.2 42.2,73.9 101.8,138.3 184.6,186.6 59.5,34.8 120.1,55.7 180.9,65.4 11.7,68 43.7,133.3 100.5,190.3 37,36.9 82.9,64.7 132.7,83 -76.4,155.1 -117.3,331.9 -106,538.7 13.3,242 875.6,-355 915,-625 74.3,-510.3 605.5,-712.1 1011.7,-914.2 397.7,-198 1031.6,-531.3 1045.4,-1048.2 7.4,-279.1 -221.7,-491.4 -474.1,-563.2 -166.4,-47.3 -336.8,-39.6 -500.3,2.2 0.3,-2 0.6,-4.1 0.9,-6.3 39,-348.9 -136.3,-704.3 -501,-785.2 -126.3,-28 -246.5,-17.3 -359.7,18.7 -163.6,23.2 -321,92.1 -458.6,190.8 -16.8,12.1 -33.2,24.6 -49.8,36.9 -232.7,-679.8 -1861.9,-619.8 -1814.5,692.4 3.1,86.6 10.9,185.9 26.4,288.2 -155.4,369.9 -323.4,731.5 -610.6,1018.1 -391,390.3 211,991.8 606.1,606 v 0"
         style="fill:#e08134;fill-opacity:1;fill-rule:nonzero;stroke:none"
         id="path90" /><path
         d="m 34185.4,8524.6 c 2.7,0 2.7,-4.3 0,-4.3 -2.7,0 -2.7,4.3 0,4.3 v 0"
         style="fill:#6a5651;fill-opacity:1;fill-rule:nonzero;stroke:none"
         id="path92" /><path
         d="m 8135.83,25243.7 c 60.28,877.1 290.81,1762 559.99,2594.5 280.41,867.5 675.39,1716.4 1176.13,2478.8 1016.25,1547.1 2481.45,2673.7 4154.15,3438.8 1766.5,807.9 3691.3,1289.3 5609.4,1564.9 1983.8,284.8 3996,334.3 5990.4,130.8 1111.9,-113.4 2214.8,-300.6 3300.5,-566.9 539.6,-132.4 1073.6,-283.8 1601.1,-457.9 486.4,-160.6 991.8,-318.5 1438.9,-572.7 441.8,176.5 889,339.4 1341.5,487 655.9,213.8 1321.7,396.8 1994.8,548.2 349.4,78.6 700.8,146.1 1054.3,204.1 333.8,54.8 692.3,132.8 1031.2,111.5 116.9,-7.4 156.9,-136 94.5,-209.5 20.9,-153.3 -4.4,-315.4 -24,-466.3 -27.8,-212.8 -62,-424.7 -107.1,-634.4 -92.5,-430.5 -215.8,-854.3 -374.3,-1265 -42,-108.8 -86,-218.4 -131.9,-328.5 259.8,-135.5 472.2,-389.9 658.8,-609.5 196.6,-231.2 376.4,-479.2 544.9,-731.6 348.7,-522 640.6,-1082.5 872.6,-1665.8 356.4,-896.5 577.8,-1852 664.9,-2815.5 351.9,-54 700.3,-127.5 1037.1,-210.7 370.7,-91.6 739.3,-199.9 1095.2,-338.5 318.6,-124.2 720.8,-241.5 968.2,-483.9 9,-8.6 14.8,-19.6 18,-31.5 38.3,-26.7 60.5,-77.6 33.5,-133.8 -24.7,-51.5 -47.4,-102.2 -69.7,-152.7 -6.9,-60.5 -29.9,-116.5 -71.7,-159 -33,-70.4 -68.4,-140.3 -111.1,-210.1 -105.6,-172.5 -224.4,-337.6 -347,-498.5 -229.9,-301.8 -480.3,-584.6 -753.8,-847.7 -560.3,-539.1 -1203.9,-994.5 -1893.4,-1353.3 -1496.6,-779.1 -3213.1,-1075.4 -4889.5,-944.8 42.2,-54.7 84.7,-109.1 126.5,-164 80.4,-105.6 154.7,-223.3 238.6,-329.9 321.7,-22.3 655.8,-168.8 927,-308.8 343.3,-177.5 652.4,-500.1 606,-914 -52,-463.5 -551.7,-784.4 -998.2,-742.2 16.1,-276.4 -91.2,-718.8 -332.9,-880.7 -343.2,-229.7 -731.6,-114.6 -1037.1,144.9 -17.6,-73.5 -45.8,-144.7 -88,-211.6 -252.1,-400.1 -797.7,-436.3 -1179.5,-220.3 -427,241.4 -686.8,721 -749.2,1196 -8.9,67.7 -11.2,428.9 -3,548.6 -255.5,193.1 -496.7,410.1 -744,610.5 -354,286.9 -713.6,567.9 -1081.5,837.1 -698.5,511 -1427.6,983.6 -2186.1,1401.2 -1348.3,742.5 -2777.7,1255.1 -4269.5,1582.3 287.4,-233.5 470.6,-536.4 328.9,-901.8 -96.2,-248 -341.8,-372.5 -597.4,-413.2 43.3,-90.3 72.9,-183.8 86.2,-271.8 64.2,-423.8 -224.5,-786.6 -643.6,-849.3 -255.1,-38 -513,25.3 -742.4,145.4 -6.7,-48.3 -17,-94.8 -31.6,-136.9 -1.9,-5.5 -4.5,-10.6 -6.5,-16 9,-294.1 -253.4,-464.5 -509.1,-439 -115.6,-29.6 -238.7,-35.7 -359,-15.9 -606.4,100.5 -1054.6,757.1 -965.9,1359.8 -160.5,75.5 -321.3,150.7 -484.4,221.6 -249,108.3 -505.4,202.1 -764.6,285.9 -168.1,47.2 -337.4,89.8 -507.9,127.7 -776.4,172.6 -1565.2,256.2 -2358.2,304 -190.3,11.5 -381.3,21.3 -572.6,28.7 -1487,-83.1 -3052.2,-526.8 -4174,-1508.9 -153.5,-134.5 -296.4,-279.7 -428.2,-434.2 -6.6,-260 -5.4,-520.5 4.8,-780.1 29.4,-746.2 135.5,-1487.6 318,-2211.7 283.8,-1126 745.3,-2188.1 1358.8,-3167.1 483.8,-499.3 1019.3,-941.7 1643.3,-1283.1 523.9,-286.7 1146.3,-558.5 1753.9,-401.8 449.5,115.9 868.4,541.3 815.9,1003.1 -144.5,375.3 -574.7,515.9 -883.6,742.4 -275.5,202.1 -497.5,484.6 -554.9,828.3 -61.4,367.4 78.1,736 390.5,946.4 307.9,207.3 723.2,237 1081.8,195.7 1473,-169.4 2922.3,-1728.9 2745.2,-3252 -197.6,-1698.1 -1917.6,-2533.6 -3467.8,-2525.9 -1823,9.2 -3344.4,972.3 -4701.2,2101.1 -718.7,597.7 -1320.6,1298.4 -1681.96,2167.6 -22.66,54.5 -43.94,109.6 -64.74,164.7 -4.27,7 -8.53,14 -12.75,20.6 -147.88,236.9 -281.74,478.9 -400.29,731.9 -235.14,501.8 -416.81,1031.8 -562.78,1565.7 -101.92,373.1 -184.42,752 -254.66,1132.8 -431.73,1452.9 -533.45,2994.1 -534.73,4514.2 -0.34,531.9 -2.45,1070.2 41.84,1601.5 v 0"
         style="fill:#f69546;fill-opacity:1;fill-rule:nonzero;stroke:none"
         id="path94" /><g
         id="g96"><g
           id="g98"
           clip-path="url(#clipPath102)"><path
             d="m 35270.3,27568.7 v 0 c 2.7,19.3 6.8,38.6 11.9,57.6 -39.6,6 -78.5,23.3 -112.3,49.1 -0.8,-3 -1.9,-5.6 -2.9,-8.6 -12,-40.1 -30.3,-71.4 -52.6,-94.9 52,-1 104,-2.1 155.9,-3.2 z m -460.8,306.2 c 138.3,166.9 230.1,393.7 331.5,584.3 101.1,189.9 200.5,380.7 298.3,572.2 183.6,359.2 363,720 536.1,1084.3 360.1,757.1 710,1513.2 940.2,2320.8 17.4,60.8 111.8,49.6 111.4,-15.3 -0.9,-98.7 -8,-197.5 -19.8,-295.9 79.1,20.6 169.9,-2.2 214.2,-66.5 106.8,14 217.8,-66.1 209.7,-206.8 93.1,-24.6 732.5,627.7 711.7,514.1 -16.5,-89.6 -38.9,-177.5 -65,-264.1 13.5,23.1 26.4,46.3 40.3,69.3 132.1,218.7 999.8,598.3 904.3,376 l -47.7,-111.2 c 151.5,98.9 368.6,-73.9 280.5,-273.8 l -117.3,-266.5 c 29.6,-1.8 58.9,-9.4 85.4,-22.1 17.9,39.7 36.1,79.2 55.5,118.5 85.2,174.2 406.1,98.5 380.2,-103.1 -23.2,-181 -1183.7,-1678.8 -1221.5,-1855.5 23.9,22 51.2,41.2 83.3,56.8 191,92.4 359.8,-58.9 332.6,-255.7 -3.3,-24.2 -6.6,-48.4 -9.8,-72.7 2.5,-11.6 4.8,-23.4 5.7,-35.8 4.1,-56.9 7.6,-113.8 10.5,-170.7 110.1,4.1 218.5,-72.6 235.2,-222.7 10.3,-92 18.5,-184.1 24.8,-276.3 74.6,-1.5 145.6,-35.2 179.8,-110.6 134,-296.1 240.4,-601 298.3,-921.2 20.7,-114.2 52.8,-251.7 64.7,-387.5 8.4,-17.6 16.5,-35.4 25.4,-52.9 15.9,-30.9 74.1,-95.1 52.6,-122 13.1,-1 26.2,-1.9 39.5,-2.9 240.6,-16.9 331.7,-402 60.9,-450.5 -21.1,-3.7 -41.3,-5.8 -61.2,-7.2 0.2,-0.3 0.2,-0.5 0.3,-0.9 -2.4,0.2 -4.9,0.4 -7.3,0.5 -37.2,-1.8 -72.1,0.7 -104.9,7.2 -19.7,1.4 -39.5,2.6 -59.2,4.2 -1.4,-14.6 -4.5,-28.5 -8.4,-42.2 49.7,19.4 108.5,16.2 169.1,-24 114.3,-75.8 174.6,-156.2 222.8,-284 58.7,-155.4 544.8,782.6 401.5,820.1 -89.6,23.4 -1232.2,-193.8 -1321.7,-169.9 -185.2,21.9 21.7,-775.3 -152.8,-751.1 -399.8,55.3 -800.7,102.5 -1202.4,142.5 -383.9,38.3 -768.6,69 -1153.7,92.6 -381.2,23.4 -775.6,64.6 -1157,42.6 -89.8,-5.2 -142.4,47.9 -158.7,113.6 -53.2,26.3 -86.4,74.8 -99.7,130.8 -33.3,7.3 -66.7,14.3 -100.1,22.3 -198.5,47.6 -212.9,297.6 -89.4,410.5 -150.5,14.4 -296.3,180.4 -148.7,358.4 v 0"
             style="fill:#e8712b;fill-opacity:1;fill-rule:nonzero;stroke:none"
             id="path104" /><path
             d="m 34608.1,27190.4 c 42.4,15 86.8,26.1 132.3,34.2 -52.5,35 -91,94.3 -91.5,153.8 -115.5,14.3 -219.7,134.9 -139.8,262 500,796.8 952.5,1622.3 1363.7,2468.4 205.5,422.4 789.4,1759.8 972.6,2192.3 176.5,416.7 627.1,767.1 894.4,1136.7 21.4,29.6 74.1,22.1 73.2,-20 -3.3,-181.6 -77.9,-504.4 -130.1,-685.4 63.8,134.4 168.9,406.7 242.2,535.7 34.4,60.4 -561.3,-735.3 -570.4,-811.8 -0.2,-1.9 -0.6,-3.6 -0.6,-5.4 12,6.7 24.1,13.3 37.9,18.5 12.8,4.8 31.9,-3.1 37.9,-15.4 43.1,-90.8 31.5,-180.4 5.1,-270.1 35.4,62.8 161.8,211.9 143.7,287.5 -12.8,53.4 40.6,87.4 86.6,66.6 126.9,-57.3 95.8,-202.9 62.5,-312.8 -69.8,-231.9 -168.6,-456.7 -264.7,-678.8 -198.9,-458.8 -429.9,-904.9 -667.7,-1344.5 -237.9,-439.9 -489.6,-871.8 -757.6,-1294.2 -137.4,-216.3 -278.1,-430.6 -422.1,-642.8 -55.9,-82 -111,-167.9 -168.5,-252.3 66.4,37.3 133.3,72.9 199.8,107.6 107.4,73.5 215.2,146.5 322.9,219.6 374.1,253.8 749.5,505.9 1122.2,761.6 360.2,247.5 706.4,509.5 1040.1,791.8 163.2,138.3 324.2,279.7 483.8,422.5 141.8,126.8 274.6,273.5 455.9,339.8 58.1,21.4 125.6,-45.4 103.8,-103.8 -63,-169.4 -194.7,-292.4 -316.9,-422.1 -155.7,-165.4 1170.3,1080.4 1004.2,925.4 -4.1,-3.9 -8.5,-7.6 -12.6,-11.5 338.9,247.3 -824.3,-887.3 -463.1,-673.5 81.6,48.4 148.5,-57.4 95.3,-123.6 -4.5,-5.4 -9.1,-10.6 -13.5,-16 0.3,-5.9 0,-11.9 -1.4,-18.4 -35.9,-173.9 -203,-314.1 -316.8,-444.2 -27.7,-31.8 -57.3,-62.6 -86.7,-93.4 124.6,93.4 250.7,185 383.1,266.7 33.2,20.5 74.3,-11.1 71.1,-45.6 87.9,54.6 176.2,108.9 265.8,161.5 47.6,27.9 117.2,-31.3 80.6,-80.7 -262.9,-354.9 -661.8,-628.1 -1037,-853 -85.7,-51.2 -172.7,-100.4 -260.6,-148.2 -379.4,-284.4 -797.9,-509.5 -1219.8,-724.7 -436.7,-222.7 -876.6,-438.2 -1317.2,-652.4 -207.4,-100.9 -414.5,-201.5 -621.8,-302.4 264,42.7 542.8,40.7 799.8,51.2 457.5,18.8 915.4,28.1 1373.1,35.2 444.1,6.9 887.7,6.8 1331.8,0.4 431.2,-6 951.1,32.9 1360.3,-124.2 98.6,-37.7 105.1,-171.7 0,-207.3 -4,-1.5 -8.1,-2.5 -12.3,-3.8 116.8,-24.5 232.1,-52 344.9,-84.1 75.7,-21.6 102.9,-142.5 23.4,-179.8 -125.8,-59.3 -261.2,-87.5 -400.8,-97.5 12.1,-4.2 24.4,-7.9 36.3,-12.3 84.5,-30 129.8,-121.4 83.1,-204.2 0,0 -594.7,-7 -761.4,9.5 -591,59 -1344.4,76.1 -1972.5,125.6 -497.9,39.4 -996.2,70.7 -1495.1,89.1 -249.7,9.1 -499.3,17.2 -748.8,25.4 -223.4,7.4 -463.1,-0.1 -669.5,92.9 -46.8,14.1 -92.1,32.1 -134.9,55.4 -142.5,77.1 -93.8,275.2 42.3,323.3 v 0"
             style="fill:#cc5c1a;fill-opacity:1;fill-rule:nonzero;stroke:none"
             id="path106" /><path
             d="m 28299.9,34323.5 c 273.2,578.6 609.6,1183.8 1147.5,1552.8 135.3,92.8 308.1,-60.4 268.4,-206.2 -13.3,-48.9 -24.6,-79.3 -54.7,-119.5 -32,-42.8 -91.6,-75.4 -146.1,-68.8 -66.6,-49.7 -129.1,-106.5 -188.3,-167.7 40.7,6.5 82.7,-2.7 119.5,-22.3 119.9,-12.7 238.2,-120.4 188.2,-254.7 -8.1,-21.7 -15.9,-43 -24,-64.1 60.6,29 126.7,23 180,-6.5 75.5,42.5 151.9,83.1 230.5,119.8 84.8,39.8 185,-65.5 106.6,-137.9 -33.2,-30.6 -66.1,-61.3 -99.3,-91.8 12.3,-29.5 18.8,-61.6 18.4,-93.6 154.7,95.8 314.2,183.6 478.8,261 41.4,19.4 95.2,-35.6 53.3,-69.1 -915.5,-729.5 -1740.9,-1522 -2330.5,-2545.3 -78.5,-136.4 -256.7,-87.6 -307.7,40.2 -243.6,609.1 100,1324 359.4,1873.7 v 0"
             style="fill:#e8712b;fill-opacity:1;fill-rule:nonzero;stroke:none"
             id="path108" /><path
             d="m 25569.8,34268.6 c 35.8,408.1 94.6,815.1 176.4,1216.7 75.6,370.7 148.4,764.2 319.2,1104.6 89.2,177.7 365.6,-1 228.8,-176.6 -82.4,-105.5 -118.8,-267 -150.6,-411.4 3.9,13.4 7.4,26.7 11.3,40.1 56.5,193.6 385.2,166.8 365.8,-49.5 -11.2,-126.9 -24.3,-253.4 -38.1,-379.9 30.2,54.7 62.6,108.1 97.5,159.3 36.3,52.8 86.5,77.2 136.9,81 65.2,64.4 138.3,119.8 221.9,161.8 150.2,75.3 328,-80.4 236.9,-236.9 -29.6,-50.9 -57.9,-102.7 -86.7,-153.9 82.6,84.5 153.2,140.3 178.5,115.8 -98.8,95.8 28.3,262 147.1,190.7 106,-63.5 126.1,-143.2 105,-225 27.5,31.5 54.3,63.4 82.5,94.1 35.8,39.1 105.2,-12.7 74.5,-57.5 -444.2,-648.8 -824.3,-1340.3 -1085.5,-2083.5 -127.9,-364.2 -226.7,-738.7 -294.3,-1118.8 -21.2,-118.8 -25.3,-267.4 -152.6,-322.1 -115.7,-49.8 -203,35.2 -273.3,118.8 -435.6,518.6 -355.9,1306.5 -301.2,1932.2 v 0"
             style="fill:#e8712b;fill-opacity:1;fill-rule:nonzero;stroke:none"
             id="path110" /><path
             d="m 22466.4,36953.6 c 100.7,135.7 331.7,4 229.5,-134.2 -128.9,-174.5 -198.4,-375.2 -228.3,-589.1 59.2,92.6 185.6,118.4 270,70.8 19.1,172.2 263,277.5 357.7,94 6.5,-12.5 12.4,-25 18.5,-37.7 33.2,144.9 69.6,289.7 109.3,434.9 41.1,149.6 301.4,172.8 327,0 24.9,-168.8 26.2,-339.7 14.9,-511.5 98.8,3.7 204.4,-71.7 208.4,-183.6 39.2,77.2 82.1,152.5 129.2,225.8 15.2,24.9 31.3,49.4 48.4,73.2 2.4,3.4 4.5,7 7,10.5 0.2,-0.2 0.3,-0.4 0.5,-0.4 9.2,12.4 18.1,24.7 27.9,36.9 77.1,97.3 207.3,58.2 272.7,-25.4 28,64.4 55.4,129.2 80.8,195.1 31.8,82.1 165.9,78.4 163.6,-22.3 -7.8,-337.2 -169.5,-646.2 -270.6,-962.6 -118.5,-370.6 -209,-748 -251,-1135.5 -42.1,-388.3 -40.3,-780.9 -3.7,-1169.7 19.7,-208.4 51.4,-415.6 85.9,-622 25.1,-150.3 75.3,-315.1 57.9,-468.7 -27.6,-245.2 -258.5,-370.7 -485.1,-278.5 -270.8,110.1 -466.7,444.2 -595.8,689.8 -344.4,654.4 -503.4,1403.7 -665.7,2119.6 -154.5,681.7 -365.7,1577 91,2190.6 v 0"
             style="fill:#e8712b;fill-opacity:1;fill-rule:nonzero;stroke:none"
             id="path112" /><path
             d="m 18876.1,36328.1 c -16.3,59 -6.8,109.1 17.7,147.8 10.4,87.8 24.8,175.9 43.6,264.7 21.5,101.7 170,57.1 153.9,-42.4 -7.3,-45 -13.1,-90 -17.5,-135.3 27.4,-1.4 54.4,-8.4 79.3,-21.2 36.3,33.6 86.4,54.4 134.5,58.8 157.3,14.2 249,-102.7 307.1,-232.9 6.8,-15.4 13,-31.1 19.7,-46.5 70.9,36.7 158.2,34.1 216.4,-22.2 33.4,21.8 72.3,34 109.7,34.7 -3.4,57 -6.2,114.3 -8.3,171.6 -8.6,242.3 356.9,237.9 373.8,0 2,-26 4.3,-51.8 6.4,-77.8 57.5,187.3 338.2,178.7 354.6,-42.6 6.5,-88.5 13.9,-176.9 21.8,-265.2 17.7,7.1 36,11.6 54.7,13.4 -1.1,130 -1,260 0.9,390.4 0.7,56.1 80.4,54.1 85.6,0 13.4,-142.6 26.8,-285.9 40.9,-429.3 27.6,-26.2 44.1,-65.5 40.1,-118.2 -4.4,-57.1 -7.8,-114.1 -10.5,-171 71.7,-673.6 168.1,-1347.1 359.2,-1994.8 129.8,-439.1 315.1,-849.4 523.3,-1256.1 94.9,-185.1 189.5,-370.7 272.3,-561.6 72.9,-169 172.8,-366.6 184.8,-553 21.2,-327.4 -336,-393.8 -575.8,-289.4 -373.4,162.6 -683.5,477 -951.9,774.2 -546.3,605 -965.9,1315.2 -1288.2,2061.6 -323.9,749.8 -597.1,1520.7 -544.9,2329.5 -1.2,4.4 -1.9,8.5 -3.2,12.8 v 0"
             style="fill:#e8712b;fill-opacity:1;fill-rule:nonzero;stroke:none"
             id="path114" /><path
             d="m 14581.7,35769.3 c 101.2,53.6 190,-96.7 90,-153.7 -198.6,-113 -80.4,-422.3 129.3,-748.6 23.6,93.7 129.5,161.1 235.8,142.9 144.7,-24.8 281.9,-89.6 412.6,-171.9 -62.9,128.5 85.4,274 210.2,249.9 13,111.8 128,182.1 237.3,156.4 -0.5,0.9 -0.8,1.6 -1.3,2.3 -82.5,141.5 81.5,301.1 221.9,221.9 7.9,-4.4 15.3,-9.4 23.1,-14.3 60.4,-2.5 120.3,-31 159.7,-94.4 6.3,-10.1 12.4,-20.5 18.5,-30.8 94.8,44.8 226.1,26.3 276.9,-71 -10.9,143.3 -0.8,287.8 41.4,433.2 58,200 334.4,148.6 349.8,-47.2 3.8,-48 7.8,-96.1 12.3,-144 20.6,-18.5 36.5,-42 44.9,-70.7 -19.1,175.8 -27.3,352.2 -21.9,527.8 0.7,23.9 37.5,30.7 43.3,5.8 183.3,-791.5 354.3,-1564.3 707.7,-2302.6 173.7,-363.1 373.3,-711.9 602.8,-1042.5 112.2,-161.5 234.9,-313.3 354.9,-468.9 82,-106.6 158.7,-234.1 96.1,-370.6 -135.6,-294.6 -629,-144.1 -841.6,-54.9 -370.2,155.3 -707.4,389.1 -1028.8,626.8 -621.5,459.3 -1235,951 -1742.2,1537.5 -275.3,317.9 -520.3,670.9 -699.9,1052 -123.6,262.7 -262.4,655.5 67.2,829.6 v 0"
             style="fill:#e8712b;fill-opacity:1;fill-rule:nonzero;stroke:none"
             id="path116" /><path
             d="m 29667.4,25892.6 c 1101.9,-537.8 2169.2,-1275.4 3085.1,-2089 420.6,-373.5 811.7,-781 1156.6,-1225.6 326.6,-420.6 820.5,-1133.5 1006.3,-1639.2 815.8,-86.6 1525.4,-145.9 2065.4,-792.1 15.4,-18.4 -5.5,-53.4 -28,-36.3 -668.8,508.6 -853.6,644 -1696.9,703.1 -70,4.8 -663.9,247.9 -653.5,300.7 -264.1,470.7 -508.9,932.9 -843.1,1363 -345.4,444.4 -738.4,850.7 -1159.4,1223.8 -451.4,399.8 -936.3,759.6 -1436.1,1096.4 -510.1,343.8 -1047.9,648.4 -1553.1,998.3 -59.5,41.1 -8.7,128.9 56.7,96.9 v 0"
             style="fill:#cc5c1a;fill-opacity:1;fill-rule:nonzero;stroke:none"
             id="path118" /><path
             d="m 17689.2,29846.6 c 933.5,-1141.4 1471.9,-2681 1434.4,-4159.3 993,-109.4 1984.4,-325.6 2899.9,-730.6 896.6,-396.8 1841.8,-1006.5 2405.8,-1827.8 7,-10 -8.3,-21.2 -16.9,-12.9 -367.2,354.2 -720.2,706.8 -1147.1,991.9 -420.1,280.3 -868.2,519.4 -1335.6,710.7 -934.7,382.2 -1923.4,597.1 -2930.3,640.5 -63.3,2.7 -123.1,53.1 -120.7,120.7 56.4,1538.4 -350.4,2970.2 -1231,4234.9 -16.9,24.3 22.5,55.3 41.5,31.9 v 0"
             style="fill:#cc5c1a;fill-opacity:1;fill-rule:nonzero;stroke:none"
             id="path120" /><path
             d="m 29956.4,31656 c 585.8,1068.1 1454.2,2025.6 2403.2,2782.7 474.8,378.8 982.7,712.8 1523.4,990.1 262,134.4 531.2,261.2 808.2,361.7 307,111.8 678.3,163.8 928.3,386 20.3,18.2 46.1,-8.8 29.4,-29.4 -175,-215.5 -419.5,-303.6 -669,-405 -301.6,-122.6 -601.1,-254.6 -891.1,-402.4 -545.4,-278 -1063.4,-613.8 -1545.1,-991.4 -992,-777.4 -1774.4,-1724 -2517.5,-2733.2 -30.2,-41.1 -95.5,-5.8 -69.8,40.9 v 0"
             style="fill:#cc5c1a;fill-opacity:1;fill-rule:nonzero;stroke:none"
             id="path122" /><path
             d="m 12071,24458.3 c 18.1,16.2 48.8,-4.5 35,-27.1 -845.6,-1373.6 -943.7,-1641.1 -897.4,-3281.8 1.9,-69.8 -101.5,-67.7 -107.4,0 -104.2,1193.2 -0.3,2435.9 969.8,3308.9 v 0"
             style="fill:#cc5c1a;fill-opacity:1;fill-rule:nonzero;stroke:none"
             id="path124" /></g></g><path
         d="m 34866.3,33987.1 c 10.3,32.4 35.7,60.8 81.5,74.9 255,78.3 509.5,113.3 774.3,138.2 251.1,23.6 557.4,101.9 803.8,41.3 0.7,-0.1 1.2,-0.6 2.1,-0.8 11,31.6 61.7,27.1 60.9,-9.1 -11.8,-517 -191.2,-1010.7 -283.3,-1515.5 -16.5,-90.3 -154.2,-127.8 -213,-56.2 -367,445.9 -765.6,832 -1217.7,1191.3 -47.8,37.9 -40.6,95.7 -8.6,135.9 v 0"
         style="fill:#cc5c1a;fill-opacity:1;fill-rule:nonzero;stroke:none"
         id="path126" /><path
         d="m 40167.6,25737.2 c 253.7,-49.2 500.9,-137.7 736.7,-242.6 202.2,-90.2 454.9,-201.4 571.9,-399.1 18.1,-30.4 -0.9,-58.4 -28.1,-67.1 8.3,-22 5.4,-47.8 -5.7,-68 -101.6,-186.3 -276.6,-332.8 -434.3,-470.5 -173.6,-151.3 -352.8,-325.9 -555.2,-437.8 -49.7,-27.5 -101,-11.1 -132.7,22.9 -35.4,14.3 -61.3,46.7 -57.1,97.6 39.1,477.1 -24,963.1 -219.9,1402.8 -39.8,89.3 25.2,181 124.4,161.8 v 0"
         style="fill:#cc5c1a;fill-opacity:1;fill-rule:nonzero;stroke:none"
         id="path128" /><path
         d="m 32796.5,31754.1 c -400,-19.6 -795.5,-211 -1050.5,-528.3 -323.2,-402.1 -443.6,-1258.7 -31.6,-1603.3 40.3,-56.8 -72.1,307.1 -41.1,371.9 63.5,133.2 67.5,286.7 107.5,428.9 45.2,160 125.5,322.6 227.6,449.9 177.9,221.9 437.3,375.3 718.6,402.9 311.6,30.4 661.9,-68.2 932.2,-240.8 236.3,-151.3 431.1,-441.9 304.3,-726.1 -141.7,-317.7 221.6,-872.5 371.2,-558 548.3,1154 -473.4,2055.4 -1538.2,2002.9 v 0"
         style="fill:#e8712b;fill-opacity:1;fill-rule:nonzero;stroke:none"
         id="path130" /><path
         d="m 37873.1,24453.9 c -70.1,447.9 -312.2,839.5 -683.5,1085.2 -325.7,215.6 -824.8,337.3 -1166.8,128.8 -58.6,-35.8 -37.5,-139 30.3,-151.5 309,-56.5 590.6,-86.8 859.7,-279.2 243.8,-174.6 418.7,-437.6 480.1,-737.4 58.7,-286.3 24.3,-589.6 -120.2,-836.7 -77.1,-132 -188.6,-241 -328.5,-296.2 -133.8,-52.5 -271.6,-28.7 -407.7,-64.1 -64.7,-16.7 -1133,356.8 -1103.2,290.6 395.7,-1056 2681.6,-1037.7 2439.8,860.5 v 0"
         style="fill:#e8712b;fill-opacity:1;fill-rule:nonzero;stroke:none"
         id="path132" /><path
         d="m 32195.6,31252.6 c -262.4,-124.8 -467.4,-377.9 -561.2,-659.8 -214.1,-642.1 170.7,-1393.4 768.6,-1653.6 319,-138.8 671.2,-168.3 1005.4,-109.3 379.1,66.8 663.2,301.9 828.9,660.4 664.8,1438.1 -1038.4,2239.2 -2041.7,1762.3 v 0"
         style="fill:#fff8f2;fill-opacity:1;fill-rule:nonzero;stroke:none"
         id="path134" /><path
         d="m 35447,25570.2 c -262.4,-124.8 -467.4,-377.8 -561.3,-659.6 -214,-642.2 170.8,-1393.5 768.7,-1653.6 319,-138.7 671.1,-168.4 1005.4,-109.4 379.1,66.9 663.1,301.9 828.9,660.5 664.8,1438 -1038.5,2239.1 -2041.7,1762.1 v 0"
         style="fill:#fff8f2;fill-opacity:1;fill-rule:nonzero;stroke:none"
         id="path136" /><path
         d="m 36818.6,25461.4 c -647.5,154.9 -1416.6,-407.5 -1170.4,-1147.7 20.5,-144.2 81.8,-282 180.3,-393.1 131.5,-213 354.7,-353.3 615.8,-350.1 295.9,3.3 633.6,127.1 852.9,326.9 543.2,495.1 191.5,1403.6 -478.6,1564 v 0"
         style="fill:#5f350b;fill-opacity:1;fill-rule:nonzero;stroke:none"
         id="path138" /><path
         d="m 36939.5,25181.4 c -155.3,116.4 -363,132.8 -504.4,-7.5 -28.5,-28.3 -42.7,-68.9 -44.5,-111.2 -21.9,-62.6 -5,-134.5 44.8,-184.4 147.9,-148.1 395.9,-100.3 521.2,41.7 58.6,66.2 61.3,202.5 -17.1,261.4 v 0"
         style="fill:#fff8f2;fill-opacity:1;fill-rule:nonzero;stroke:none"
         id="path140" /><path
         d="m 35067.6,32184.5 c 71.1,4.9 134.5,-51.4 141.3,-125.9 6.9,-74.3 -45.3,-138.8 -116.3,-143.7 -1.9,-0.1 -632.7,-48 -1069.8,207.1 -63.3,36.9 -87.4,119.4 -53.8,184.3 33.5,65.1 112,87.6 175.3,50.7 367.9,-214.7 921.8,-172.6 923.3,-172.5 v 0"
         style="fill:#5f350b;fill-opacity:1;fill-rule:nonzero;stroke:none"
         id="path142" /><path
         d="m 38701,25157.5 c 21.8,70.2 -15.8,147.4 -83.9,172.3 -68.1,24.8 -141.1,-12.1 -162.8,-82.4 -0.5,-1.7 -197.5,-623.9 -63.7,-1124.5 19.4,-72.5 91,-116.6 159.9,-98.5 69,18 109.2,91.4 89.8,163.8 -112.7,421.3 60.3,967.7 60.7,969.3 v 0"
         style="fill:#5f350b;fill-opacity:1;fill-rule:nonzero;stroke:none"
         id="path144" /><path
         d="m 33453.6,26491.7 493.4,162 c 451.7,-168.8 864.4,-113 1038.5,-60.3 420,39.5 -158.4,977.6 -295.3,1173.6 -15.4,35 -42.3,64 -74.3,79.7 -187.7,145.4 -734.6,-497.2 -808,-855.5 l -485.6,-250.5 c -298.1,373 -2245.7,1284.8 -171.4,-197.4 -40,-468 -73.1,-507.2 -133.4,-886.1 -134.1,-840.4 359,447.4 436.1,834.5 v 0"
         style="fill:#5f350b;fill-opacity:1;fill-rule:nonzero;stroke:none"
         id="path146" /><path
         d="m 33603.7,31056.2 c -647.5,154.9 -1416.6,-407.5 -1170.4,-1147.7 20.5,-144.1 81.9,-281.9 180.4,-393 131.5,-213 354.7,-353.3 615.7,-350.2 295.9,3.5 633.6,127.1 853,327 543.1,495.1 191.4,1403.5 -478.7,1563.9 v 0"
         style="fill:#5f350b;fill-opacity:1;fill-rule:nonzero;stroke:none"
         id="path148" /><path
         d="m 33724.6,30776.2 c -155.4,116.6 -363,132.8 -504.4,-7.5 -28.4,-28.3 -42.6,-68.7 -44.5,-111.1 -21.9,-62.8 -5,-134.5 44.8,-184.4 148,-148.1 396,-100.5 521.2,41.6 58.5,66.5 61.3,202.6 -17.1,261.4 v 0"
         style="fill:#fff8f2;fill-opacity:1;fill-rule:nonzero;stroke:none"
         id="path150" /><path
         d="m 26265.5,38180.8 896,402.7 c 318.9,143.3 697.1,-0.3 840.4,-319.3 1570.4,-3494.3 2903.5,-8436.2 4188.3,-11295.1 l -578.4,-259.9 c -1284.7,2858.7 -4095.2,7136.7 -5665.6,10631.1 -143.3,319 0.4,697.1 319.3,840.5 v 0"
         style="fill:#c2def5;fill-opacity:1;fill-rule:evenodd;stroke:none"
         id="path152" /><path
         d="m 26472.4,38273.7 896,402.7 c 319,143.3 697.1,-0.3 840.4,-319.2 1570.4,-3494.5 2903.4,-8436.3 4188.3,-11295.1 l -578.4,-260 c -1284.7,2858.7 -4095.2,7136.9 -5665.5,10631.3 -143.4,318.9 0.2,697 319.2,840.3 v 0"
         style="fill:#ddeefa;fill-opacity:1;fill-rule:evenodd;stroke:none"
         id="path154" /><path
         d="m 27234.3,36485.4 969.3,435.6 1328.6,-2956.4 -969.3,-435.6 -1328.6,2956.4 v 0"
         style="fill:#e31e24;fill-opacity:1;fill-rule:evenodd;stroke:none"
         id="path156" /><path
         d="m 31064.9,27685.7 c 0,0 803.6,-6.6 1821.9,-883 1018.2,-876.6 -1676.3,-310 -2107.8,97 -431.5,407 285.9,786 285.9,786 v 0"
         style="fill:#f69546;fill-opacity:1;fill-rule:nonzero;stroke:none"
         id="path158" /></g></g></svg>
